0
SECTION
2
HEADER
9
$INSUNITS
70
4
0
ENDSEC
0
SECTION
2
TABLES
0
TABLE
2
LTYPE
0
LTYPE
72
65
70
64
2
CONTINUOUS
3
______
73
0
40
0
0
ENDTAB
0
TABLE
2
LAYER
0
ENDTAB
0
ENDSEC
0
SECTION
2
ENTITIES
0
LINE
8
0
10
91.75
20
-138.75
11
108.25
21
-138.75
0
LINE
8
0
10
108.25
20
-138.75
11
108.25
21
-123.25
0
LINE
8
0
10
108.25
20
-123.25
11
91.75
21
-123.25
0
LINE
8
0
10
91.75
20
-123.25
11
91.75
21
-138.75
0
LINE
8
0
10
91.75
20
-119.75
11
108.25
21
-119.75
0
LINE
8
0
10
108.25
20
-119.75
11
108.25
21
-104.25
0
LINE
8
0
10
108.25
20
-104.25
11
91.75
21
-104.25
0
LINE
8
0
10
91.75
20
-104.25
11
91.75
21
-119.75
0
LINE
8
0
10
91.75
20
-100.75
11
108.25
21
-100.75
0
LINE
8
0
10
108.25
20
-100.75
11
108.25
21
-85.25
0
LINE
8
0
10
108.25
20
-85.25
11
91.75
21
-85.25
0
LINE
8
0
10
91.75
20
-85.25
11
91.75
21
-100.75
0
LINE
8
0
10
96.75
20
-157.75
11
113.25
21
-157.75
0
LINE
8
0
10
113.25
20
-157.75
11
113.25
21
-142.25
0
LINE
8
0
10
113.25
20
-142.25
11
96.75
21
-142.25
0
LINE
8
0
10
96.75
20
-142.25
11
96.75
21
-157.75
0
LINE
8
0
10
111.75
20
-138.75
11
128.25
21
-138.75
0
LINE
8
0
10
128.25
20
-138.75
11
128.25
21
-123.25
0
LINE
8
0
10
128.25
20
-123.25
11
111.75
21
-123.25
0
LINE
8
0
10
111.75
20
-123.25
11
111.75
21
-138.75
0
LINE
8
0
10
111.75
20
-119.75
11
128.25
21
-119.75
0
LINE
8
0
10
128.25
20
-119.75
11
128.25
21
-104.25
0
LINE
8
0
10
128.25
20
-104.25
11
111.75
21
-104.25
0
LINE
8
0
10
111.75
20
-104.25
11
111.75
21
-119.75
0
LINE
8
0
10
111.75
20
-100.75
11
128.25
21
-100.75
0
LINE
8
0
10
128.25
20
-100.75
11
128.25
21
-85.25
0
LINE
8
0
10
128.25
20
-85.25
11
111.75
21
-85.25
0
LINE
8
0
10
111.75
20
-85.25
11
111.75
21
-100.75
0
LINE
8
0
10
131.75
20
-149.75
11
148.25
21
-149.75
0
LINE
8
0
10
148.25
20
-149.75
11
148.25
21
-134.25
0
LINE
8
0
10
148.25
20
-134.25
11
131.75
21
-134.25
0
LINE
8
0
10
131.75
20
-134.25
11
131.75
21
-149.75
0
LINE
8
0
10
131.75
20
-130.75
11
148.25
21
-130.75
0
LINE
8
0
10
148.25
20
-130.75
11
148.25
21
-115.25
0
LINE
8
0
10
148.25
20
-115.25
11
131.75
21
-115.25
0
LINE
8
0
10
131.75
20
-115.25
11
131.75
21
-130.75
0
LINE
8
0
10
131.75
20
-111.75
11
148.25
21
-111.75
0
LINE
8
0
10
148.25
20
-111.75
11
148.25
21
-96.25
0
LINE
8
0
10
148.25
20
-96.25
11
131.75
21
-96.25
0
LINE
8
0
10
131.75
20
-96.25
11
131.75
21
-111.75
0
LINE
8
0
10
131.75
20
-92.75
11
148.25
21
-92.75
0
LINE
8
0
10
148.25
20
-92.75
11
148.25
21
-77.25
0
LINE
8
0
10
148.25
20
-77.25
11
131.75
21
-77.25
0
LINE
8
0
10
131.75
20
-77.25
11
131.75
21
-92.75
0
LINE
8
0
10
151.75
20
-157.75
11
168.25
21
-157.75
0
LINE
8
0
10
168.25
20
-157.75
11
168.25
21
-142.25
0
LINE
8
0
10
168.25
20
-142.25
11
151.75
21
-142.25
0
LINE
8
0
10
151.75
20
-142.25
11
151.75
21
-157.75
0
LINE
8
0
10
151.75
20
-138.75
11
168.25
21
-138.75
0
LINE
8
0
10
168.25
20
-138.75
11
168.25
21
-123.25
0
LINE
8
0
10
168.25
20
-123.25
11
151.75
21
-123.25
0
LINE
8
0
10
151.75
20
-123.25
11
151.75
21
-138.75
0
LINE
8
0
10
151.75
20
-119.75
11
168.25
21
-119.75
0
LINE
8
0
10
168.25
20
-119.75
11
168.25
21
-104.25
0
LINE
8
0
10
168.25
20
-104.25
11
151.75
21
-104.25
0
LINE
8
0
10
151.75
20
-104.25
11
151.75
21
-119.75
0
LINE
8
0
10
151.75
20
-100.75
11
168.25
21
-100.75
0
LINE
8
0
10
168.25
20
-100.75
11
168.25
21
-85.25
0
LINE
8
0
10
168.25
20
-85.25
11
151.75
21
-85.25
0
LINE
8
0
10
151.75
20
-85.25
11
151.75
21
-100.75
0
LINE
8
0
10
171.75
20
-167.25
11
188.25
21
-167.25
0
LINE
8
0
10
188.25
20
-167.25
11
188.25
21
-151.75
0
LINE
8
0
10
188.25
20
-151.75
11
171.75
21
-151.75
0
LINE
8
0
10
171.75
20
-151.75
11
171.75
21
-167.25
0
LINE
8
0
10
171.75
20
-148.25
11
188.25
21
-148.25
0
LINE
8
0
10
188.25
20
-148.25
11
188.25
21
-132.75
0
LINE
8
0
10
188.25
20
-132.75
11
171.75
21
-132.75
0
LINE
8
0
10
171.75
20
-132.75
11
171.75
21
-148.25
0
LINE
8
0
10
171.75
20
-129.25
11
188.25
21
-129.25
0
LINE
8
0
10
188.25
20
-129.25
11
188.25
21
-113.75
0
LINE
8
0
10
188.25
20
-113.75
11
171.75
21
-113.75
0
LINE
8
0
10
171.75
20
-113.75
11
171.75
21
-129.25
0
LINE
8
0
10
171.75
20
-110.25
11
188.25
21
-110.25
0
LINE
8
0
10
188.25
20
-110.25
11
188.25
21
-94.75
0
LINE
8
0
10
188.25
20
-94.75
11
171.75
21
-94.75
0
LINE
8
0
10
171.75
20
-94.75
11
171.75
21
-110.25
0
LINE
8
0
10
191.75
20
-157.75
11
208.25
21
-157.75
0
LINE
8
0
10
208.25
20
-157.75
11
208.25
21
-142.25
0
LINE
8
0
10
208.25
20
-142.25
11
191.75
21
-142.25
0
LINE
8
0
10
191.75
20
-142.25
11
191.75
21
-157.75
0
LINE
8
0
10
191.75
20
-138.75
11
208.25
21
-138.75
0
LINE
8
0
10
208.25
20
-138.75
11
208.25
21
-123.25
0
LINE
8
0
10
208.25
20
-123.25
11
191.75
21
-123.25
0
LINE
8
0
10
191.75
20
-123.25
11
191.75
21
-138.75
0
LINE
8
0
10
191.75
20
-119.75
11
208.25
21
-119.75
0
LINE
8
0
10
208.25
20
-119.75
11
208.25
21
-104.25
0
LINE
8
0
10
208.25
20
-104.25
11
191.75
21
-104.25
0
LINE
8
0
10
191.75
20
-104.25
11
191.75
21
-119.75
0
LINE
8
0
10
191.75
20
-100.75
11
208.25
21
-100.75
0
LINE
8
0
10
208.25
20
-100.75
11
208.25
21
-85.25
0
LINE
8
0
10
208.25
20
-85.25
11
191.75
21
-85.25
0
LINE
8
0
10
191.75
20
-85.25
11
191.75
21
-100.75
0
LINE
8
0
10
211.75
20
-157.75
11
228.25
21
-157.75
0
LINE
8
0
10
228.25
20
-157.75
11
228.25
21
-142.25
0
LINE
8
0
10
228.25
20
-142.25
11
211.75
21
-142.25
0
LINE
8
0
10
211.75
20
-142.25
11
211.75
21
-157.75
0
LINE
8
0
10
211.75
20
-138.75
11
228.25
21
-138.75
0
LINE
8
0
10
228.25
20
-138.75
11
228.25
21
-123.25
0
LINE
8
0
10
228.25
20
-123.25
11
211.75
21
-123.25
0
LINE
8
0
10
211.75
20
-123.25
11
211.75
21
-138.75
0
LINE
8
0
10
211.75
20
-119.75
11
228.25
21
-119.75
0
LINE
8
0
10
228.25
20
-119.75
11
228.25
21
-104.25
0
LINE
8
0
10
228.25
20
-104.25
11
211.75
21
-104.25
0
LINE
8
0
10
211.75
20
-104.25
11
211.75
21
-119.75
0
LINE
8
0
10
211.75
20
-100.75
11
228.25
21
-100.75
0
LINE
8
0
10
228.25
20
-100.75
11
228.25
21
-85.25
0
LINE
8
0
10
228.25
20
-85.25
11
211.75
21
-85.25
0
LINE
8
0
10
211.75
20
-85.25
11
211.75
21
-100.75
0
ENDSEC
0
EOF