0
SECTION
2
HEADER
9
$INSUNITS
70
4
0
ENDSEC
0
SECTION
2
TABLES
0
TABLE
2
LTYPE
0
LTYPE
72
65
70
64
2
CONTINUOUS
3
______
73
0
40
0
0
ENDTAB
0
TABLE
2
LAYER
0
ENDTAB
0
ENDSEC
0
SECTION
2
ENTITIES
0
LINE
8
0
10
89.75
20
-159.75
11
89.75
21
-83.25
0
LINE
8
0
10
89.75
20
-83.25
11
129.75
21
-83.25
0
LINE
8
0
10
129.75
20
-83.25
11
129.75
21
-75.25
0
LINE
8
0
10
129.75
20
-75.25
11
150.25
21
-75.25
0
LINE
8
0
10
150.25
20
-75.25
11
150.25
21
-83.25
0
LINE
8
0
10
150.25
20
-83.25
11
230.25
21
-83.25
0
LINE
8
0
10
230.25
20
-83.25
11
230.25
21
-159.75
0
LINE
8
0
10
230.25
20
-159.75
11
190.25
21
-159.75
0
LINE
8
0
10
190.25
20
-159.75
11
190.25
21
-169.25
0
LINE
8
0
10
190.25
20
-169.25
11
169.75
21
-169.25
0
LINE
8
0
10
169.75
20
-169.25
11
169.75
21
-159.75
0
LINE
8
0
10
89.75
20
-159.75
11
169.75
21
-159.75
0
LINE
8
0
10
93
20
-138
11
107
21
-138
0
LINE
8
0
10
107
20
-138
11
107
21
-124
0
LINE
8
0
10
107
20
-124
11
93
21
-124
0
LINE
8
0
10
93
20
-124
11
93
21
-138
0
LINE
8
0
10
93
20
-119
11
107
21
-119
0
LINE
8
0
10
107
20
-119
11
107
21
-105
0
LINE
8
0
10
107
20
-105
11
93
21
-105
0
LINE
8
0
10
93
20
-105
11
93
21
-119
0
LINE
8
0
10
93
20
-100
11
107
21
-100
0
LINE
8
0
10
107
20
-100
11
107
21
-86
0
LINE
8
0
10
107
20
-86
11
93
21
-86
0
LINE
8
0
10
93
20
-86
11
93
21
-100
0
LINE
8
0
10
98
20
-157
11
112
21
-157
0
LINE
8
0
10
112
20
-157
11
112
21
-143
0
LINE
8
0
10
112
20
-143
11
98
21
-143
0
LINE
8
0
10
98
20
-143
11
98
21
-157
0
LINE
8
0
10
113
20
-138
11
127
21
-138
0
LINE
8
0
10
127
20
-138
11
127
21
-124
0
LINE
8
0
10
127
20
-124
11
113
21
-124
0
LINE
8
0
10
113
20
-124
11
113
21
-138
0
LINE
8
0
10
113
20
-119
11
127
21
-119
0
LINE
8
0
10
127
20
-119
11
127
21
-105
0
LINE
8
0
10
127
20
-105
11
113
21
-105
0
LINE
8
0
10
113
20
-105
11
113
21
-119
0
LINE
8
0
10
113
20
-100
11
127
21
-100
0
LINE
8
0
10
127
20
-100
11
127
21
-86
0
LINE
8
0
10
127
20
-86
11
113
21
-86
0
LINE
8
0
10
113
20
-86
11
113
21
-100
0
LINE
8
0
10
133
20
-149
11
147
21
-149
0
LINE
8
0
10
147
20
-149
11
147
21
-135
0
LINE
8
0
10
147
20
-135
11
133
21
-135
0
LINE
8
0
10
133
20
-135
11
133
21
-149
0
LINE
8
0
10
133
20
-130
11
147
21
-130
0
LINE
8
0
10
147
20
-130
11
147
21
-116
0
LINE
8
0
10
147
20
-116
11
133
21
-116
0
LINE
8
0
10
133
20
-116
11
133
21
-130
0
LINE
8
0
10
133
20
-111
11
147
21
-111
0
LINE
8
0
10
147
20
-111
11
147
21
-97
0
LINE
8
0
10
147
20
-97
11
133
21
-97
0
LINE
8
0
10
133
20
-97
11
133
21
-111
0
LINE
8
0
10
133
20
-92
11
147
21
-92
0
LINE
8
0
10
147
20
-92
11
147
21
-78
0
LINE
8
0
10
147
20
-78
11
133
21
-78
0
LINE
8
0
10
133
20
-78
11
133
21
-92
0
LINE
8
0
10
153
20
-157
11
167
21
-157
0
LINE
8
0
10
167
20
-157
11
167
21
-143
0
LINE
8
0
10
167
20
-143
11
153
21
-143
0
LINE
8
0
10
153
20
-143
11
153
21
-157
0
LINE
8
0
10
153
20
-138
11
167
21
-138
0
LINE
8
0
10
167
20
-138
11
167
21
-124
0
LINE
8
0
10
167
20
-124
11
153
21
-124
0
LINE
8
0
10
153
20
-124
11
153
21
-138
0
LINE
8
0
10
153
20
-119
11
167
21
-119
0
LINE
8
0
10
167
20
-119
11
167
21
-105
0
LINE
8
0
10
167
20
-105
11
153
21
-105
0
LINE
8
0
10
153
20
-105
11
153
21
-119
0
LINE
8
0
10
153
20
-100
11
167
21
-100
0
LINE
8
0
10
167
20
-100
11
167
21
-86
0
LINE
8
0
10
167
20
-86
11
153
21
-86
0
LINE
8
0
10
153
20
-86
11
153
21
-100
0
LINE
8
0
10
173
20
-166.5
11
187
21
-166.5
0
LINE
8
0
10
187
20
-166.5
11
187
21
-152.5
0
LINE
8
0
10
187
20
-152.5
11
173
21
-152.5
0
LINE
8
0
10
173
20
-152.5
11
173
21
-166.5
0
LINE
8
0
10
173
20
-147.5
11
187
21
-147.5
0
LINE
8
0
10
187
20
-147.5
11
187
21
-133.5
0
LINE
8
0
10
187
20
-133.5
11
173
21
-133.5
0
LINE
8
0
10
173
20
-133.5
11
173
21
-147.5
0
LINE
8
0
10
173
20
-128.5
11
187
21
-128.5
0
LINE
8
0
10
187
20
-128.5
11
187
21
-114.5
0
LINE
8
0
10
187
20
-114.5
11
173
21
-114.5
0
LINE
8
0
10
173
20
-114.5
11
173
21
-128.5
0
LINE
8
0
10
173
20
-109.5
11
187
21
-109.5
0
LINE
8
0
10
187
20
-109.5
11
187
21
-95.5
0
LINE
8
0
10
187
20
-95.5
11
173
21
-95.5
0
LINE
8
0
10
173
20
-95.5
11
173
21
-109.5
0
LINE
8
0
10
193
20
-157
11
207
21
-157
0
LINE
8
0
10
207
20
-157
11
207
21
-143
0
LINE
8
0
10
207
20
-143
11
193
21
-143
0
LINE
8
0
10
193
20
-143
11
193
21
-157
0
LINE
8
0
10
193
20
-138
11
207
21
-138
0
LINE
8
0
10
207
20
-138
11
207
21
-124
0
LINE
8
0
10
207
20
-124
11
193
21
-124
0
LINE
8
0
10
193
20
-124
11
193
21
-138
0
LINE
8
0
10
193
20
-119
11
207
21
-119
0
LINE
8
0
10
207
20
-119
11
207
21
-105
0
LINE
8
0
10
207
20
-105
11
193
21
-105
0
LINE
8
0
10
193
20
-105
11
193
21
-119
0
LINE
8
0
10
193
20
-100
11
207
21
-100
0
LINE
8
0
10
207
20
-100
11
207
21
-86
0
LINE
8
0
10
207
20
-86
11
193
21
-86
0
LINE
8
0
10
193
20
-86
11
193
21
-100
0
LINE
8
0
10
213
20
-157
11
227
21
-157
0
LINE
8
0
10
227
20
-157
11
227
21
-143
0
LINE
8
0
10
227
20
-143
11
213
21
-143
0
LINE
8
0
10
213
20
-143
11
213
21
-157
0
LINE
8
0
10
213
20
-138
11
227
21
-138
0
LINE
8
0
10
227
20
-138
11
227
21
-124
0
LINE
8
0
10
227
20
-124
11
213
21
-124
0
LINE
8
0
10
213
20
-124
11
213
21
-138
0
LINE
8
0
10
213
20
-119
11
227
21
-119
0
LINE
8
0
10
227
20
-119
11
227
21
-105
0
LINE
8
0
10
227
20
-105
11
213
21
-105
0
LINE
8
0
10
213
20
-105
11
213
21
-119
0
LINE
8
0
10
213
20
-100
11
227
21
-100
0
LINE
8
0
10
227
20
-100
11
227
21
-86
0
LINE
8
0
10
227
20
-86
11
213
21
-86
0
LINE
8
0
10
213
20
-86
11
213
21
-100
0
ENDSEC
0
EOF