%TF.GenerationSoftware,KiCad,Pcbnew,8.0.7*%
%TF.CreationDate,2025-01-04T23:43:08-07:00*%
%TF.ProjectId,left,6c656674-2e6b-4696-9361-645f70636258,v1.0.0*%
%TF.SameCoordinates,Original*%
%TF.FileFunction,Drillmap*%
%TF.FilePolarity,Positive*%
%FSLAX45Y45*%
G04 Gerber Fmt 4.5, Leading zero omitted, Abs format (unit mm)*
G04 Created by KiCad (PCBNEW 8.0.7) date 2025-01-04 23:43:08*
%MOMM*%
%LPD*%
G01*
G04 APERTURE LIST*
%ADD10C,0.150000*%
%ADD11C,0.200000*%
%ADD12C,0.100000*%
%ADD13C,0.170180*%
%ADD14C,0.300000*%
%ADD15C,0.342900*%
%ADD16C,0.400000*%
G04 APERTURE END LIST*
D10*
X9000000Y-15950000D02*
X9000000Y-8350000D01*
X9000000Y-8350000D02*
X13000000Y-8350000D01*
X13000000Y-8350000D02*
X13000000Y-6950000D01*
X13000000Y-6950000D02*
X15000000Y-6950000D01*
X15000000Y-6950000D02*
X15000000Y-6150000D01*
X15000000Y-6150000D02*
X17000000Y-6150000D01*
X17000000Y-6150000D02*
X17000000Y-6950000D01*
X17000000Y-6950000D02*
X21000000Y-6950000D01*
X21000000Y-6950000D02*
X21000000Y-14550000D01*
X13000000Y-14550000D02*
X21000000Y-14550000D01*
X13000000Y-14550000D02*
X13000000Y-15950000D01*
X13000000Y-15950000D02*
X9000000Y-15950000D01*
D11*
D12*
X20625000Y-13962500D02*
X20700000Y-14037500D01*
X20700000Y-13962500D02*
X20625000Y-14037500D01*
X20900000Y-13962500D02*
X20975000Y-14037500D01*
X20975000Y-13962500D02*
X20900000Y-14037500D01*
X20845000Y-12950000D02*
G75*
G02*
X20755000Y-12950000I-45000J0D01*
G01*
X20755000Y-12950000D02*
G75*
G02*
X20845000Y-12950000I45000J0D01*
G01*
X20845000Y-13250000D02*
G75*
G02*
X20755000Y-13250000I-45000J0D01*
G01*
X20755000Y-13250000D02*
G75*
G02*
X20845000Y-13250000I45000J0D01*
G01*
D13*
X9450000Y-9214910D02*
X9450000Y-9385090D01*
X9364910Y-9300000D02*
X9535090Y-9300000D01*
X9450000Y-11114910D02*
X9450000Y-11285090D01*
X9364910Y-11200000D02*
X9535090Y-11200000D01*
X9450000Y-13014910D02*
X9450000Y-13185090D01*
X9364910Y-13100000D02*
X9535090Y-13100000D01*
X9450000Y-14914910D02*
X9450000Y-15085090D01*
X9364910Y-15000000D02*
X9535090Y-15000000D01*
X10550000Y-9214910D02*
X10550000Y-9385090D01*
X10464910Y-9300000D02*
X10635090Y-9300000D01*
X10550000Y-11114910D02*
X10550000Y-11285090D01*
X10464910Y-11200000D02*
X10635090Y-11200000D01*
X10550000Y-13014910D02*
X10550000Y-13185090D01*
X10464910Y-13100000D02*
X10635090Y-13100000D01*
X10550000Y-14914910D02*
X10550000Y-15085090D01*
X10464910Y-15000000D02*
X10635090Y-15000000D01*
X11450000Y-9214910D02*
X11450000Y-9385090D01*
X11364910Y-9300000D02*
X11535090Y-9300000D01*
X11450000Y-11114910D02*
X11450000Y-11285090D01*
X11364910Y-11200000D02*
X11535090Y-11200000D01*
X11450000Y-13014910D02*
X11450000Y-13185090D01*
X11364910Y-13100000D02*
X11535090Y-13100000D01*
X11450000Y-14914910D02*
X11450000Y-15085090D01*
X11364910Y-15000000D02*
X11535090Y-15000000D01*
X12550000Y-9214910D02*
X12550000Y-9385090D01*
X12464910Y-9300000D02*
X12635090Y-9300000D01*
X12550000Y-11114910D02*
X12550000Y-11285090D01*
X12464910Y-11200000D02*
X12635090Y-11200000D01*
X12550000Y-13014910D02*
X12550000Y-13185090D01*
X12464910Y-13100000D02*
X12635090Y-13100000D01*
X12550000Y-14914910D02*
X12550000Y-15085090D01*
X12464910Y-15000000D02*
X12635090Y-15000000D01*
X13450000Y-7814910D02*
X13450000Y-7985090D01*
X13364910Y-7900000D02*
X13535090Y-7900000D01*
X13450000Y-9714910D02*
X13450000Y-9885090D01*
X13364910Y-9800000D02*
X13535090Y-9800000D01*
X13450000Y-11614910D02*
X13450000Y-11785090D01*
X13364910Y-11700000D02*
X13535090Y-11700000D01*
X13450000Y-13514910D02*
X13450000Y-13685090D01*
X13364910Y-13600000D02*
X13535090Y-13600000D01*
X14550000Y-7814910D02*
X14550000Y-7985090D01*
X14464910Y-7900000D02*
X14635090Y-7900000D01*
X14550000Y-9714910D02*
X14550000Y-9885090D01*
X14464910Y-9800000D02*
X14635090Y-9800000D01*
X14550000Y-11614910D02*
X14550000Y-11785090D01*
X14464910Y-11700000D02*
X14635090Y-11700000D01*
X14550000Y-13514910D02*
X14550000Y-13685090D01*
X14464910Y-13600000D02*
X14635090Y-13600000D01*
X15450000Y-7014910D02*
X15450000Y-7185090D01*
X15364910Y-7100000D02*
X15535090Y-7100000D01*
X15450000Y-8914910D02*
X15450000Y-9085090D01*
X15364910Y-9000000D02*
X15535090Y-9000000D01*
X15450000Y-10814910D02*
X15450000Y-10985090D01*
X15364910Y-10900000D02*
X15535090Y-10900000D01*
X15450000Y-12714910D02*
X15450000Y-12885090D01*
X15364910Y-12800000D02*
X15535090Y-12800000D01*
X16550000Y-7014910D02*
X16550000Y-7185090D01*
X16464910Y-7100000D02*
X16635090Y-7100000D01*
X16550000Y-8914910D02*
X16550000Y-9085090D01*
X16464910Y-9000000D02*
X16635090Y-9000000D01*
X16550000Y-10814910D02*
X16550000Y-10985090D01*
X16464910Y-10900000D02*
X16635090Y-10900000D01*
X16550000Y-12714910D02*
X16550000Y-12885090D01*
X16464910Y-12800000D02*
X16635090Y-12800000D01*
X17450000Y-7814910D02*
X17450000Y-7985090D01*
X17364910Y-7900000D02*
X17535090Y-7900000D01*
X17450000Y-9714910D02*
X17450000Y-9885090D01*
X17364910Y-9800000D02*
X17535090Y-9800000D01*
X17450000Y-11614910D02*
X17450000Y-11785090D01*
X17364910Y-11700000D02*
X17535090Y-11700000D01*
X18550000Y-7814910D02*
X18550000Y-7985090D01*
X18464910Y-7900000D02*
X18635090Y-7900000D01*
X18550000Y-9714910D02*
X18550000Y-9885090D01*
X18464910Y-9800000D02*
X18635090Y-9800000D01*
X18550000Y-11614910D02*
X18550000Y-11785090D01*
X18464910Y-11700000D02*
X18635090Y-11700000D01*
X18950000Y-13514910D02*
X18950000Y-13685090D01*
X18864910Y-13600000D02*
X19035090Y-13600000D01*
X19450000Y-7814910D02*
X19450000Y-7985090D01*
X19364910Y-7900000D02*
X19535090Y-7900000D01*
X19450000Y-9714910D02*
X19450000Y-9885090D01*
X19364910Y-9800000D02*
X19535090Y-9800000D01*
X19450000Y-11614910D02*
X19450000Y-11785090D01*
X19364910Y-11700000D02*
X19535090Y-11700000D01*
X20050000Y-13514910D02*
X20050000Y-13685090D01*
X19964910Y-13600000D02*
X20135090Y-13600000D01*
X20550000Y-7814910D02*
X20550000Y-7985090D01*
X20464910Y-7900000D02*
X20635090Y-7900000D01*
X20550000Y-9714910D02*
X20550000Y-9885090D01*
X20464910Y-9800000D02*
X20635090Y-9800000D01*
X20550000Y-11614910D02*
X20550000Y-11785090D01*
X20464910Y-11700000D02*
X20635090Y-11700000D01*
D14*
X9606067Y-9781067D02*
X9606067Y-9568933D01*
X9393933Y-9568933D01*
X9393933Y-9781067D01*
X9606067Y-9781067D01*
X9606067Y-11681067D02*
X9606067Y-11468933D01*
X9393933Y-11468933D01*
X9393933Y-11681067D01*
X9606067Y-11681067D01*
X9606067Y-13581067D02*
X9606067Y-13368933D01*
X9393933Y-13368933D01*
X9393933Y-13581067D01*
X9606067Y-13581067D01*
X9606067Y-15481067D02*
X9606067Y-15268933D01*
X9393933Y-15268933D01*
X9393933Y-15481067D01*
X9606067Y-15481067D01*
X10106067Y-10001067D02*
X10106067Y-9788933D01*
X9893933Y-9788933D01*
X9893933Y-10001067D01*
X10106067Y-10001067D01*
X10106067Y-11901067D02*
X10106067Y-11688933D01*
X9893933Y-11688933D01*
X9893933Y-11901067D01*
X10106067Y-11901067D01*
X10106067Y-13801067D02*
X10106067Y-13588933D01*
X9893933Y-13588933D01*
X9893933Y-13801067D01*
X10106067Y-13801067D01*
X10106067Y-15701067D02*
X10106067Y-15488933D01*
X9893933Y-15488933D01*
X9893933Y-15701067D01*
X10106067Y-15701067D01*
X11606067Y-9781067D02*
X11606067Y-9568933D01*
X11393933Y-9568933D01*
X11393933Y-9781067D01*
X11606067Y-9781067D01*
X11606067Y-11681067D02*
X11606067Y-11468933D01*
X11393933Y-11468933D01*
X11393933Y-11681067D01*
X11606067Y-11681067D01*
X11606067Y-13581067D02*
X11606067Y-13368933D01*
X11393933Y-13368933D01*
X11393933Y-13581067D01*
X11606067Y-13581067D01*
X11606067Y-15481067D02*
X11606067Y-15268933D01*
X11393933Y-15268933D01*
X11393933Y-15481067D01*
X11606067Y-15481067D01*
X12106067Y-10001067D02*
X12106067Y-9788933D01*
X11893933Y-9788933D01*
X11893933Y-10001067D01*
X12106067Y-10001067D01*
X12106067Y-11901067D02*
X12106067Y-11688933D01*
X11893933Y-11688933D01*
X11893933Y-11901067D01*
X12106067Y-11901067D01*
X12106067Y-13801067D02*
X12106067Y-13588933D01*
X11893933Y-13588933D01*
X11893933Y-13801067D01*
X12106067Y-13801067D01*
X12106067Y-15701067D02*
X12106067Y-15488933D01*
X11893933Y-15488933D01*
X11893933Y-15701067D01*
X12106067Y-15701067D01*
X13606067Y-8381067D02*
X13606067Y-8168933D01*
X13393933Y-8168933D01*
X13393933Y-8381067D01*
X13606067Y-8381067D01*
X13606067Y-10281067D02*
X13606067Y-10068933D01*
X13393933Y-10068933D01*
X13393933Y-10281067D01*
X13606067Y-10281067D01*
X13606067Y-12181067D02*
X13606067Y-11968933D01*
X13393933Y-11968933D01*
X13393933Y-12181067D01*
X13606067Y-12181067D01*
X13606067Y-14081067D02*
X13606067Y-13868933D01*
X13393933Y-13868933D01*
X13393933Y-14081067D01*
X13606067Y-14081067D01*
X14106067Y-8601067D02*
X14106067Y-8388933D01*
X13893933Y-8388933D01*
X13893933Y-8601067D01*
X14106067Y-8601067D01*
X14106067Y-10501067D02*
X14106067Y-10288933D01*
X13893933Y-10288933D01*
X13893933Y-10501067D01*
X14106067Y-10501067D01*
X14106067Y-12401067D02*
X14106067Y-12188933D01*
X13893933Y-12188933D01*
X13893933Y-12401067D01*
X14106067Y-12401067D01*
X14106067Y-14301067D02*
X14106067Y-14088933D01*
X13893933Y-14088933D01*
X13893933Y-14301067D01*
X14106067Y-14301067D01*
X15606067Y-7581067D02*
X15606067Y-7368933D01*
X15393933Y-7368933D01*
X15393933Y-7581067D01*
X15606067Y-7581067D01*
X15606067Y-9481067D02*
X15606067Y-9268933D01*
X15393933Y-9268933D01*
X15393933Y-9481067D01*
X15606067Y-9481067D01*
X15606067Y-11381067D02*
X15606067Y-11168933D01*
X15393933Y-11168933D01*
X15393933Y-11381067D01*
X15606067Y-11381067D01*
X15606067Y-13281067D02*
X15606067Y-13068933D01*
X15393933Y-13068933D01*
X15393933Y-13281067D01*
X15606067Y-13281067D01*
X16106067Y-7801067D02*
X16106067Y-7588933D01*
X15893933Y-7588933D01*
X15893933Y-7801067D01*
X16106067Y-7801067D01*
X16106067Y-9701067D02*
X16106067Y-9488933D01*
X15893933Y-9488933D01*
X15893933Y-9701067D01*
X16106067Y-9701067D01*
X16106067Y-11601067D02*
X16106067Y-11388933D01*
X15893933Y-11388933D01*
X15893933Y-11601067D01*
X16106067Y-11601067D01*
X16106067Y-13501067D02*
X16106067Y-13288933D01*
X15893933Y-13288933D01*
X15893933Y-13501067D01*
X16106067Y-13501067D01*
X17606067Y-8381067D02*
X17606067Y-8168933D01*
X17393933Y-8168933D01*
X17393933Y-8381067D01*
X17606067Y-8381067D01*
X17606067Y-10281067D02*
X17606067Y-10068933D01*
X17393933Y-10068933D01*
X17393933Y-10281067D01*
X17606067Y-10281067D01*
X17606067Y-12181067D02*
X17606067Y-11968933D01*
X17393933Y-11968933D01*
X17393933Y-12181067D01*
X17606067Y-12181067D01*
X18106067Y-8601067D02*
X18106067Y-8388933D01*
X17893933Y-8388933D01*
X17893933Y-8601067D01*
X18106067Y-8601067D01*
X18106067Y-10501067D02*
X18106067Y-10288933D01*
X17893933Y-10288933D01*
X17893933Y-10501067D01*
X18106067Y-10501067D01*
X18106067Y-12401067D02*
X18106067Y-12188933D01*
X17893933Y-12188933D01*
X17893933Y-12401067D01*
X18106067Y-12401067D01*
X19106067Y-14081067D02*
X19106067Y-13868933D01*
X18893933Y-13868933D01*
X18893933Y-14081067D01*
X19106067Y-14081067D01*
X19606067Y-8381067D02*
X19606067Y-8168933D01*
X19393933Y-8168933D01*
X19393933Y-8381067D01*
X19606067Y-8381067D01*
X19606067Y-10281067D02*
X19606067Y-10068933D01*
X19393933Y-10068933D01*
X19393933Y-10281067D01*
X19606067Y-10281067D01*
X19606067Y-12181067D02*
X19606067Y-11968933D01*
X19393933Y-11968933D01*
X19393933Y-12181067D01*
X19606067Y-12181067D01*
X19606067Y-14301067D02*
X19606067Y-14088933D01*
X19393933Y-14088933D01*
X19393933Y-14301067D01*
X19606067Y-14301067D01*
X20106067Y-8601067D02*
X20106067Y-8388933D01*
X19893933Y-8388933D01*
X19893933Y-8601067D01*
X20106067Y-8601067D01*
X20106067Y-10501067D02*
X20106067Y-10288933D01*
X19893933Y-10288933D01*
X19893933Y-10501067D01*
X20106067Y-10501067D01*
X20106067Y-12401067D02*
X20106067Y-12188933D01*
X19893933Y-12188933D01*
X19893933Y-12401067D01*
X20106067Y-12401067D01*
D15*
X10000000Y-9471450D02*
X10171450Y-9300000D01*
X10000000Y-9128550D01*
X9828550Y-9300000D01*
X10000000Y-9471450D01*
X10000000Y-11371450D02*
X10171450Y-11200000D01*
X10000000Y-11028550D01*
X9828550Y-11200000D01*
X10000000Y-11371450D01*
X10000000Y-13271450D02*
X10171450Y-13100000D01*
X10000000Y-12928550D01*
X9828550Y-13100000D01*
X10000000Y-13271450D01*
X10000000Y-15171450D02*
X10171450Y-15000000D01*
X10000000Y-14828550D01*
X9828550Y-15000000D01*
X10000000Y-15171450D01*
X12000000Y-9471450D02*
X12171450Y-9300000D01*
X12000000Y-9128550D01*
X11828550Y-9300000D01*
X12000000Y-9471450D01*
X12000000Y-11371450D02*
X12171450Y-11200000D01*
X12000000Y-11028550D01*
X11828550Y-11200000D01*
X12000000Y-11371450D01*
X12000000Y-13271450D02*
X12171450Y-13100000D01*
X12000000Y-12928550D01*
X11828550Y-13100000D01*
X12000000Y-13271450D01*
X12000000Y-15171450D02*
X12171450Y-15000000D01*
X12000000Y-14828550D01*
X11828550Y-15000000D01*
X12000000Y-15171450D01*
X14000000Y-8071450D02*
X14171450Y-7900000D01*
X14000000Y-7728550D01*
X13828550Y-7900000D01*
X14000000Y-8071450D01*
X14000000Y-9971450D02*
X14171450Y-9800000D01*
X14000000Y-9628550D01*
X13828550Y-9800000D01*
X14000000Y-9971450D01*
X14000000Y-11871450D02*
X14171450Y-11700000D01*
X14000000Y-11528550D01*
X13828550Y-11700000D01*
X14000000Y-11871450D01*
X14000000Y-13771450D02*
X14171450Y-13600000D01*
X14000000Y-13428550D01*
X13828550Y-13600000D01*
X14000000Y-13771450D01*
X16000000Y-7271450D02*
X16171450Y-7100000D01*
X16000000Y-6928550D01*
X15828550Y-7100000D01*
X16000000Y-7271450D01*
X16000000Y-9171450D02*
X16171450Y-9000000D01*
X16000000Y-8828550D01*
X15828550Y-9000000D01*
X16000000Y-9171450D01*
X16000000Y-11071450D02*
X16171450Y-10900000D01*
X16000000Y-10728550D01*
X15828550Y-10900000D01*
X16000000Y-11071450D01*
X16000000Y-12971450D02*
X16171450Y-12800000D01*
X16000000Y-12628550D01*
X15828550Y-12800000D01*
X16000000Y-12971450D01*
X18000000Y-8071450D02*
X18171450Y-7900000D01*
X18000000Y-7728550D01*
X17828550Y-7900000D01*
X18000000Y-8071450D01*
X18000000Y-9971450D02*
X18171450Y-9800000D01*
X18000000Y-9628550D01*
X17828550Y-9800000D01*
X18000000Y-9971450D01*
X18000000Y-11871450D02*
X18171450Y-11700000D01*
X18000000Y-11528550D01*
X17828550Y-11700000D01*
X18000000Y-11871450D01*
X19500000Y-13771450D02*
X19671450Y-13600000D01*
X19500000Y-13428550D01*
X19328550Y-13600000D01*
X19500000Y-13771450D01*
X20000000Y-8071450D02*
X20171450Y-7900000D01*
X20000000Y-7728550D01*
X19828550Y-7900000D01*
X20000000Y-8071450D01*
X20000000Y-9971450D02*
X20171450Y-9800000D01*
X20000000Y-9628550D01*
X19828550Y-9800000D01*
X20000000Y-9971450D01*
X20000000Y-11871450D02*
X20171450Y-11700000D01*
X20000000Y-11528550D01*
X19828550Y-11700000D01*
X20000000Y-11871450D01*
D16*
X10800000Y-10150000D02*
X11200000Y-10550000D01*
X11200000Y-10150000D02*
X10800000Y-10550000D01*
X11200000Y-10350000D02*
G75*
G02*
X10800000Y-10350000I-200000J0D01*
G01*
X10800000Y-10350000D02*
G75*
G02*
X11200000Y-10350000I200000J0D01*
G01*
X10800000Y-13950000D02*
X11200000Y-14350000D01*
X11200000Y-13950000D02*
X10800000Y-14350000D01*
X11200000Y-14150000D02*
G75*
G02*
X10800000Y-14150000I-200000J0D01*
G01*
X10800000Y-14150000D02*
G75*
G02*
X11200000Y-14150000I200000J0D01*
G01*
X15000000Y-9900000D02*
X15400000Y-10300000D01*
X15400000Y-9900000D02*
X15000000Y-10300000D01*
X15400000Y-10100000D02*
G75*
G02*
X15000000Y-10100000I-200000J0D01*
G01*
X15000000Y-10100000D02*
G75*
G02*
X15400000Y-10100000I200000J0D01*
G01*
X17000000Y-8800000D02*
X17400000Y-9200000D01*
X17400000Y-8800000D02*
X17000000Y-9200000D01*
X17400000Y-9000000D02*
G75*
G02*
X17000000Y-9000000I-200000J0D01*
G01*
X17000000Y-9000000D02*
G75*
G02*
X17400000Y-9000000I200000J0D01*
G01*
X18400000Y-12900000D02*
X18800000Y-13300000D01*
X18800000Y-12900000D02*
X18400000Y-13300000D01*
X18800000Y-13100000D02*
G75*
G02*
X18400000Y-13100000I-200000J0D01*
G01*
X18400000Y-13100000D02*
G75*
G02*
X18800000Y-13100000I200000J0D01*
G01*
D11*
X9253277Y-16268984D02*
X9253277Y-16068984D01*
X9253277Y-16068984D02*
X9300896Y-16068984D01*
X9300896Y-16068984D02*
X9329467Y-16078508D01*
X9329467Y-16078508D02*
X9348515Y-16097555D01*
X9348515Y-16097555D02*
X9358039Y-16116603D01*
X9358039Y-16116603D02*
X9367563Y-16154698D01*
X9367563Y-16154698D02*
X9367563Y-16183269D01*
X9367563Y-16183269D02*
X9358039Y-16221365D01*
X9358039Y-16221365D02*
X9348515Y-16240412D01*
X9348515Y-16240412D02*
X9329467Y-16259460D01*
X9329467Y-16259460D02*
X9300896Y-16268984D01*
X9300896Y-16268984D02*
X9253277Y-16268984D01*
X9453277Y-16268984D02*
X9453277Y-16135650D01*
X9453277Y-16173746D02*
X9462801Y-16154698D01*
X9462801Y-16154698D02*
X9472324Y-16145174D01*
X9472324Y-16145174D02*
X9491372Y-16135650D01*
X9491372Y-16135650D02*
X9510420Y-16135650D01*
X9577086Y-16268984D02*
X9577086Y-16135650D01*
X9577086Y-16068984D02*
X9567563Y-16078508D01*
X9567563Y-16078508D02*
X9577086Y-16088031D01*
X9577086Y-16088031D02*
X9586610Y-16078508D01*
X9586610Y-16078508D02*
X9577086Y-16068984D01*
X9577086Y-16068984D02*
X9577086Y-16088031D01*
X9700896Y-16268984D02*
X9681848Y-16259460D01*
X9681848Y-16259460D02*
X9672324Y-16240412D01*
X9672324Y-16240412D02*
X9672324Y-16068984D01*
X9805658Y-16268984D02*
X9786610Y-16259460D01*
X9786610Y-16259460D02*
X9777086Y-16240412D01*
X9777086Y-16240412D02*
X9777086Y-16068984D01*
X10034229Y-16268984D02*
X10034229Y-16068984D01*
X10034229Y-16068984D02*
X10100896Y-16211841D01*
X10100896Y-16211841D02*
X10167563Y-16068984D01*
X10167563Y-16068984D02*
X10167563Y-16268984D01*
X10348515Y-16268984D02*
X10348515Y-16164222D01*
X10348515Y-16164222D02*
X10338991Y-16145174D01*
X10338991Y-16145174D02*
X10319944Y-16135650D01*
X10319944Y-16135650D02*
X10281848Y-16135650D01*
X10281848Y-16135650D02*
X10262801Y-16145174D01*
X10348515Y-16259460D02*
X10329467Y-16268984D01*
X10329467Y-16268984D02*
X10281848Y-16268984D01*
X10281848Y-16268984D02*
X10262801Y-16259460D01*
X10262801Y-16259460D02*
X10253277Y-16240412D01*
X10253277Y-16240412D02*
X10253277Y-16221365D01*
X10253277Y-16221365D02*
X10262801Y-16202317D01*
X10262801Y-16202317D02*
X10281848Y-16192793D01*
X10281848Y-16192793D02*
X10329467Y-16192793D01*
X10329467Y-16192793D02*
X10348515Y-16183269D01*
X10443753Y-16135650D02*
X10443753Y-16335650D01*
X10443753Y-16145174D02*
X10462801Y-16135650D01*
X10462801Y-16135650D02*
X10500896Y-16135650D01*
X10500896Y-16135650D02*
X10519944Y-16145174D01*
X10519944Y-16145174D02*
X10529467Y-16154698D01*
X10529467Y-16154698D02*
X10538991Y-16173746D01*
X10538991Y-16173746D02*
X10538991Y-16230888D01*
X10538991Y-16230888D02*
X10529467Y-16249936D01*
X10529467Y-16249936D02*
X10519944Y-16259460D01*
X10519944Y-16259460D02*
X10500896Y-16268984D01*
X10500896Y-16268984D02*
X10462801Y-16268984D01*
X10462801Y-16268984D02*
X10443753Y-16259460D01*
X10624705Y-16249936D02*
X10634229Y-16259460D01*
X10634229Y-16259460D02*
X10624705Y-16268984D01*
X10624705Y-16268984D02*
X10615182Y-16259460D01*
X10615182Y-16259460D02*
X10624705Y-16249936D01*
X10624705Y-16249936D02*
X10624705Y-16268984D01*
X10624705Y-16145174D02*
X10634229Y-16154698D01*
X10634229Y-16154698D02*
X10624705Y-16164222D01*
X10624705Y-16164222D02*
X10615182Y-16154698D01*
X10615182Y-16154698D02*
X10624705Y-16145174D01*
X10624705Y-16145174D02*
X10624705Y-16164222D01*
D12*
X8917500Y-16560000D02*
X8992500Y-16635000D01*
X8992500Y-16560000D02*
X8917500Y-16635000D01*
D11*
X9291372Y-16488984D02*
X9310420Y-16488984D01*
X9310420Y-16488984D02*
X9329467Y-16498508D01*
X9329467Y-16498508D02*
X9338991Y-16508031D01*
X9338991Y-16508031D02*
X9348515Y-16527079D01*
X9348515Y-16527079D02*
X9358039Y-16565174D01*
X9358039Y-16565174D02*
X9358039Y-16612793D01*
X9358039Y-16612793D02*
X9348515Y-16650888D01*
X9348515Y-16650888D02*
X9338991Y-16669936D01*
X9338991Y-16669936D02*
X9329467Y-16679460D01*
X9329467Y-16679460D02*
X9310420Y-16688984D01*
X9310420Y-16688984D02*
X9291372Y-16688984D01*
X9291372Y-16688984D02*
X9272324Y-16679460D01*
X9272324Y-16679460D02*
X9262801Y-16669936D01*
X9262801Y-16669936D02*
X9253277Y-16650888D01*
X9253277Y-16650888D02*
X9243753Y-16612793D01*
X9243753Y-16612793D02*
X9243753Y-16565174D01*
X9243753Y-16565174D02*
X9253277Y-16527079D01*
X9253277Y-16527079D02*
X9262801Y-16508031D01*
X9262801Y-16508031D02*
X9272324Y-16498508D01*
X9272324Y-16498508D02*
X9291372Y-16488984D01*
X9443753Y-16669936D02*
X9453277Y-16679460D01*
X9453277Y-16679460D02*
X9443753Y-16688984D01*
X9443753Y-16688984D02*
X9434229Y-16679460D01*
X9434229Y-16679460D02*
X9443753Y-16669936D01*
X9443753Y-16669936D02*
X9443753Y-16688984D01*
X9519944Y-16488984D02*
X9653277Y-16488984D01*
X9653277Y-16488984D02*
X9567563Y-16688984D01*
X9824705Y-16488984D02*
X9729467Y-16488984D01*
X9729467Y-16488984D02*
X9719944Y-16584222D01*
X9719944Y-16584222D02*
X9729467Y-16574698D01*
X9729467Y-16574698D02*
X9748515Y-16565174D01*
X9748515Y-16565174D02*
X9796134Y-16565174D01*
X9796134Y-16565174D02*
X9815182Y-16574698D01*
X9815182Y-16574698D02*
X9824705Y-16584222D01*
X9824705Y-16584222D02*
X9834229Y-16603269D01*
X9834229Y-16603269D02*
X9834229Y-16650888D01*
X9834229Y-16650888D02*
X9824705Y-16669936D01*
X9824705Y-16669936D02*
X9815182Y-16679460D01*
X9815182Y-16679460D02*
X9796134Y-16688984D01*
X9796134Y-16688984D02*
X9748515Y-16688984D01*
X9748515Y-16688984D02*
X9729467Y-16679460D01*
X9729467Y-16679460D02*
X9719944Y-16669936D01*
X9958039Y-16488984D02*
X9977086Y-16488984D01*
X9977086Y-16488984D02*
X9996134Y-16498508D01*
X9996134Y-16498508D02*
X10005658Y-16508031D01*
X10005658Y-16508031D02*
X10015182Y-16527079D01*
X10015182Y-16527079D02*
X10024705Y-16565174D01*
X10024705Y-16565174D02*
X10024705Y-16612793D01*
X10024705Y-16612793D02*
X10015182Y-16650888D01*
X10015182Y-16650888D02*
X10005658Y-16669936D01*
X10005658Y-16669936D02*
X9996134Y-16679460D01*
X9996134Y-16679460D02*
X9977086Y-16688984D01*
X9977086Y-16688984D02*
X9958039Y-16688984D01*
X9958039Y-16688984D02*
X9938991Y-16679460D01*
X9938991Y-16679460D02*
X9929467Y-16669936D01*
X9929467Y-16669936D02*
X9919944Y-16650888D01*
X9919944Y-16650888D02*
X9910420Y-16612793D01*
X9910420Y-16612793D02*
X9910420Y-16565174D01*
X9910420Y-16565174D02*
X9919944Y-16527079D01*
X9919944Y-16527079D02*
X9929467Y-16508031D01*
X9929467Y-16508031D02*
X9938991Y-16498508D01*
X9938991Y-16498508D02*
X9958039Y-16488984D01*
X10110420Y-16688984D02*
X10110420Y-16555650D01*
X10110420Y-16574698D02*
X10119944Y-16565174D01*
X10119944Y-16565174D02*
X10138991Y-16555650D01*
X10138991Y-16555650D02*
X10167563Y-16555650D01*
X10167563Y-16555650D02*
X10186610Y-16565174D01*
X10186610Y-16565174D02*
X10196134Y-16584222D01*
X10196134Y-16584222D02*
X10196134Y-16688984D01*
X10196134Y-16584222D02*
X10205658Y-16565174D01*
X10205658Y-16565174D02*
X10224705Y-16555650D01*
X10224705Y-16555650D02*
X10253277Y-16555650D01*
X10253277Y-16555650D02*
X10272325Y-16565174D01*
X10272325Y-16565174D02*
X10281848Y-16584222D01*
X10281848Y-16584222D02*
X10281848Y-16688984D01*
X10377086Y-16688984D02*
X10377086Y-16555650D01*
X10377086Y-16574698D02*
X10386610Y-16565174D01*
X10386610Y-16565174D02*
X10405658Y-16555650D01*
X10405658Y-16555650D02*
X10434229Y-16555650D01*
X10434229Y-16555650D02*
X10453277Y-16565174D01*
X10453277Y-16565174D02*
X10462801Y-16584222D01*
X10462801Y-16584222D02*
X10462801Y-16688984D01*
X10462801Y-16584222D02*
X10472325Y-16565174D01*
X10472325Y-16565174D02*
X10491372Y-16555650D01*
X10491372Y-16555650D02*
X10519944Y-16555650D01*
X10519944Y-16555650D02*
X10538991Y-16565174D01*
X10538991Y-16565174D02*
X10548515Y-16584222D01*
X10548515Y-16584222D02*
X10548515Y-16688984D01*
X10938991Y-16479460D02*
X10767563Y-16736603D01*
X11196134Y-16488984D02*
X11215182Y-16488984D01*
X11215182Y-16488984D02*
X11234229Y-16498508D01*
X11234229Y-16498508D02*
X11243753Y-16508031D01*
X11243753Y-16508031D02*
X11253277Y-16527079D01*
X11253277Y-16527079D02*
X11262801Y-16565174D01*
X11262801Y-16565174D02*
X11262801Y-16612793D01*
X11262801Y-16612793D02*
X11253277Y-16650888D01*
X11253277Y-16650888D02*
X11243753Y-16669936D01*
X11243753Y-16669936D02*
X11234229Y-16679460D01*
X11234229Y-16679460D02*
X11215182Y-16688984D01*
X11215182Y-16688984D02*
X11196134Y-16688984D01*
X11196134Y-16688984D02*
X11177087Y-16679460D01*
X11177087Y-16679460D02*
X11167563Y-16669936D01*
X11167563Y-16669936D02*
X11158039Y-16650888D01*
X11158039Y-16650888D02*
X11148515Y-16612793D01*
X11148515Y-16612793D02*
X11148515Y-16565174D01*
X11148515Y-16565174D02*
X11158039Y-16527079D01*
X11158039Y-16527079D02*
X11167563Y-16508031D01*
X11167563Y-16508031D02*
X11177087Y-16498508D01*
X11177087Y-16498508D02*
X11196134Y-16488984D01*
X11348515Y-16669936D02*
X11358039Y-16679460D01*
X11358039Y-16679460D02*
X11348515Y-16688984D01*
X11348515Y-16688984D02*
X11338991Y-16679460D01*
X11338991Y-16679460D02*
X11348515Y-16669936D01*
X11348515Y-16669936D02*
X11348515Y-16688984D01*
X11481848Y-16488984D02*
X11500896Y-16488984D01*
X11500896Y-16488984D02*
X11519944Y-16498508D01*
X11519944Y-16498508D02*
X11529467Y-16508031D01*
X11529467Y-16508031D02*
X11538991Y-16527079D01*
X11538991Y-16527079D02*
X11548515Y-16565174D01*
X11548515Y-16565174D02*
X11548515Y-16612793D01*
X11548515Y-16612793D02*
X11538991Y-16650888D01*
X11538991Y-16650888D02*
X11529467Y-16669936D01*
X11529467Y-16669936D02*
X11519944Y-16679460D01*
X11519944Y-16679460D02*
X11500896Y-16688984D01*
X11500896Y-16688984D02*
X11481848Y-16688984D01*
X11481848Y-16688984D02*
X11462801Y-16679460D01*
X11462801Y-16679460D02*
X11453277Y-16669936D01*
X11453277Y-16669936D02*
X11443753Y-16650888D01*
X11443753Y-16650888D02*
X11434229Y-16612793D01*
X11434229Y-16612793D02*
X11434229Y-16565174D01*
X11434229Y-16565174D02*
X11443753Y-16527079D01*
X11443753Y-16527079D02*
X11453277Y-16508031D01*
X11453277Y-16508031D02*
X11462801Y-16498508D01*
X11462801Y-16498508D02*
X11481848Y-16488984D01*
X11624706Y-16508031D02*
X11634229Y-16498508D01*
X11634229Y-16498508D02*
X11653277Y-16488984D01*
X11653277Y-16488984D02*
X11700896Y-16488984D01*
X11700896Y-16488984D02*
X11719944Y-16498508D01*
X11719944Y-16498508D02*
X11729467Y-16508031D01*
X11729467Y-16508031D02*
X11738991Y-16527079D01*
X11738991Y-16527079D02*
X11738991Y-16546127D01*
X11738991Y-16546127D02*
X11729467Y-16574698D01*
X11729467Y-16574698D02*
X11615182Y-16688984D01*
X11615182Y-16688984D02*
X11738991Y-16688984D01*
X11834229Y-16688984D02*
X11872325Y-16688984D01*
X11872325Y-16688984D02*
X11891372Y-16679460D01*
X11891372Y-16679460D02*
X11900896Y-16669936D01*
X11900896Y-16669936D02*
X11919944Y-16641365D01*
X11919944Y-16641365D02*
X11929467Y-16603269D01*
X11929467Y-16603269D02*
X11929467Y-16527079D01*
X11929467Y-16527079D02*
X11919944Y-16508031D01*
X11919944Y-16508031D02*
X11910420Y-16498508D01*
X11910420Y-16498508D02*
X11891372Y-16488984D01*
X11891372Y-16488984D02*
X11853277Y-16488984D01*
X11853277Y-16488984D02*
X11834229Y-16498508D01*
X11834229Y-16498508D02*
X11824706Y-16508031D01*
X11824706Y-16508031D02*
X11815182Y-16527079D01*
X11815182Y-16527079D02*
X11815182Y-16574698D01*
X11815182Y-16574698D02*
X11824706Y-16593746D01*
X11824706Y-16593746D02*
X11834229Y-16603269D01*
X11834229Y-16603269D02*
X11853277Y-16612793D01*
X11853277Y-16612793D02*
X11891372Y-16612793D01*
X11891372Y-16612793D02*
X11910420Y-16603269D01*
X11910420Y-16603269D02*
X11919944Y-16593746D01*
X11919944Y-16593746D02*
X11929467Y-16574698D01*
X12110420Y-16488984D02*
X12015182Y-16488984D01*
X12015182Y-16488984D02*
X12005658Y-16584222D01*
X12005658Y-16584222D02*
X12015182Y-16574698D01*
X12015182Y-16574698D02*
X12034229Y-16565174D01*
X12034229Y-16565174D02*
X12081848Y-16565174D01*
X12081848Y-16565174D02*
X12100896Y-16574698D01*
X12100896Y-16574698D02*
X12110420Y-16584222D01*
X12110420Y-16584222D02*
X12119944Y-16603269D01*
X12119944Y-16603269D02*
X12119944Y-16650888D01*
X12119944Y-16650888D02*
X12110420Y-16669936D01*
X12110420Y-16669936D02*
X12100896Y-16679460D01*
X12100896Y-16679460D02*
X12081848Y-16688984D01*
X12081848Y-16688984D02*
X12034229Y-16688984D01*
X12034229Y-16688984D02*
X12015182Y-16679460D01*
X12015182Y-16679460D02*
X12005658Y-16669936D01*
X12196134Y-16488984D02*
X12196134Y-16527079D01*
X12272325Y-16488984D02*
X12272325Y-16527079D01*
X12567563Y-16765174D02*
X12558039Y-16755650D01*
X12558039Y-16755650D02*
X12538991Y-16727079D01*
X12538991Y-16727079D02*
X12529468Y-16708031D01*
X12529468Y-16708031D02*
X12519944Y-16679460D01*
X12519944Y-16679460D02*
X12510420Y-16631841D01*
X12510420Y-16631841D02*
X12510420Y-16593746D01*
X12510420Y-16593746D02*
X12519944Y-16546127D01*
X12519944Y-16546127D02*
X12529468Y-16517555D01*
X12529468Y-16517555D02*
X12538991Y-16498508D01*
X12538991Y-16498508D02*
X12558039Y-16469936D01*
X12558039Y-16469936D02*
X12567563Y-16460412D01*
X12634229Y-16508031D02*
X12643753Y-16498508D01*
X12643753Y-16498508D02*
X12662801Y-16488984D01*
X12662801Y-16488984D02*
X12710420Y-16488984D01*
X12710420Y-16488984D02*
X12729468Y-16498508D01*
X12729468Y-16498508D02*
X12738991Y-16508031D01*
X12738991Y-16508031D02*
X12748515Y-16527079D01*
X12748515Y-16527079D02*
X12748515Y-16546127D01*
X12748515Y-16546127D02*
X12738991Y-16574698D01*
X12738991Y-16574698D02*
X12624706Y-16688984D01*
X12624706Y-16688984D02*
X12748515Y-16688984D01*
X12986610Y-16688984D02*
X12986610Y-16488984D01*
X13072325Y-16688984D02*
X13072325Y-16584222D01*
X13072325Y-16584222D02*
X13062801Y-16565174D01*
X13062801Y-16565174D02*
X13043753Y-16555650D01*
X13043753Y-16555650D02*
X13015182Y-16555650D01*
X13015182Y-16555650D02*
X12996134Y-16565174D01*
X12996134Y-16565174D02*
X12986610Y-16574698D01*
X13196134Y-16688984D02*
X13177087Y-16679460D01*
X13177087Y-16679460D02*
X13167563Y-16669936D01*
X13167563Y-16669936D02*
X13158039Y-16650888D01*
X13158039Y-16650888D02*
X13158039Y-16593746D01*
X13158039Y-16593746D02*
X13167563Y-16574698D01*
X13167563Y-16574698D02*
X13177087Y-16565174D01*
X13177087Y-16565174D02*
X13196134Y-16555650D01*
X13196134Y-16555650D02*
X13224706Y-16555650D01*
X13224706Y-16555650D02*
X13243753Y-16565174D01*
X13243753Y-16565174D02*
X13253277Y-16574698D01*
X13253277Y-16574698D02*
X13262801Y-16593746D01*
X13262801Y-16593746D02*
X13262801Y-16650888D01*
X13262801Y-16650888D02*
X13253277Y-16669936D01*
X13253277Y-16669936D02*
X13243753Y-16679460D01*
X13243753Y-16679460D02*
X13224706Y-16688984D01*
X13224706Y-16688984D02*
X13196134Y-16688984D01*
X13377087Y-16688984D02*
X13358039Y-16679460D01*
X13358039Y-16679460D02*
X13348515Y-16660412D01*
X13348515Y-16660412D02*
X13348515Y-16488984D01*
X13529468Y-16679460D02*
X13510420Y-16688984D01*
X13510420Y-16688984D02*
X13472325Y-16688984D01*
X13472325Y-16688984D02*
X13453277Y-16679460D01*
X13453277Y-16679460D02*
X13443753Y-16660412D01*
X13443753Y-16660412D02*
X13443753Y-16584222D01*
X13443753Y-16584222D02*
X13453277Y-16565174D01*
X13453277Y-16565174D02*
X13472325Y-16555650D01*
X13472325Y-16555650D02*
X13510420Y-16555650D01*
X13510420Y-16555650D02*
X13529468Y-16565174D01*
X13529468Y-16565174D02*
X13538991Y-16584222D01*
X13538991Y-16584222D02*
X13538991Y-16603269D01*
X13538991Y-16603269D02*
X13443753Y-16622317D01*
X13615182Y-16679460D02*
X13634230Y-16688984D01*
X13634230Y-16688984D02*
X13672325Y-16688984D01*
X13672325Y-16688984D02*
X13691372Y-16679460D01*
X13691372Y-16679460D02*
X13700896Y-16660412D01*
X13700896Y-16660412D02*
X13700896Y-16650888D01*
X13700896Y-16650888D02*
X13691372Y-16631841D01*
X13691372Y-16631841D02*
X13672325Y-16622317D01*
X13672325Y-16622317D02*
X13643753Y-16622317D01*
X13643753Y-16622317D02*
X13624706Y-16612793D01*
X13624706Y-16612793D02*
X13615182Y-16593746D01*
X13615182Y-16593746D02*
X13615182Y-16584222D01*
X13615182Y-16584222D02*
X13624706Y-16565174D01*
X13624706Y-16565174D02*
X13643753Y-16555650D01*
X13643753Y-16555650D02*
X13672325Y-16555650D01*
X13672325Y-16555650D02*
X13691372Y-16565174D01*
X13767563Y-16765174D02*
X13777087Y-16755650D01*
X13777087Y-16755650D02*
X13796134Y-16727079D01*
X13796134Y-16727079D02*
X13805658Y-16708031D01*
X13805658Y-16708031D02*
X13815182Y-16679460D01*
X13815182Y-16679460D02*
X13824706Y-16631841D01*
X13824706Y-16631841D02*
X13824706Y-16593746D01*
X13824706Y-16593746D02*
X13815182Y-16546127D01*
X13815182Y-16546127D02*
X13805658Y-16517555D01*
X13805658Y-16517555D02*
X13796134Y-16498508D01*
X13796134Y-16498508D02*
X13777087Y-16469936D01*
X13777087Y-16469936D02*
X13767563Y-16460412D01*
X14129468Y-16765174D02*
X14119944Y-16755650D01*
X14119944Y-16755650D02*
X14100896Y-16727079D01*
X14100896Y-16727079D02*
X14091372Y-16708031D01*
X14091372Y-16708031D02*
X14081849Y-16679460D01*
X14081849Y-16679460D02*
X14072325Y-16631841D01*
X14072325Y-16631841D02*
X14072325Y-16593746D01*
X14072325Y-16593746D02*
X14081849Y-16546127D01*
X14081849Y-16546127D02*
X14091372Y-16517555D01*
X14091372Y-16517555D02*
X14100896Y-16498508D01*
X14100896Y-16498508D02*
X14119944Y-16469936D01*
X14119944Y-16469936D02*
X14129468Y-16460412D01*
X14205658Y-16555650D02*
X14205658Y-16688984D01*
X14205658Y-16574698D02*
X14215182Y-16565174D01*
X14215182Y-16565174D02*
X14234230Y-16555650D01*
X14234230Y-16555650D02*
X14262801Y-16555650D01*
X14262801Y-16555650D02*
X14281849Y-16565174D01*
X14281849Y-16565174D02*
X14291372Y-16584222D01*
X14291372Y-16584222D02*
X14291372Y-16688984D01*
X14415182Y-16688984D02*
X14396134Y-16679460D01*
X14396134Y-16679460D02*
X14386611Y-16669936D01*
X14386611Y-16669936D02*
X14377087Y-16650888D01*
X14377087Y-16650888D02*
X14377087Y-16593746D01*
X14377087Y-16593746D02*
X14386611Y-16574698D01*
X14386611Y-16574698D02*
X14396134Y-16565174D01*
X14396134Y-16565174D02*
X14415182Y-16555650D01*
X14415182Y-16555650D02*
X14443753Y-16555650D01*
X14443753Y-16555650D02*
X14462801Y-16565174D01*
X14462801Y-16565174D02*
X14472325Y-16574698D01*
X14472325Y-16574698D02*
X14481849Y-16593746D01*
X14481849Y-16593746D02*
X14481849Y-16650888D01*
X14481849Y-16650888D02*
X14472325Y-16669936D01*
X14472325Y-16669936D02*
X14462801Y-16679460D01*
X14462801Y-16679460D02*
X14443753Y-16688984D01*
X14443753Y-16688984D02*
X14415182Y-16688984D01*
X14538992Y-16555650D02*
X14615182Y-16555650D01*
X14567563Y-16488984D02*
X14567563Y-16660412D01*
X14567563Y-16660412D02*
X14577087Y-16679460D01*
X14577087Y-16679460D02*
X14596134Y-16688984D01*
X14596134Y-16688984D02*
X14615182Y-16688984D01*
X14834230Y-16555650D02*
X14834230Y-16755650D01*
X14834230Y-16565174D02*
X14853277Y-16555650D01*
X14853277Y-16555650D02*
X14891373Y-16555650D01*
X14891373Y-16555650D02*
X14910420Y-16565174D01*
X14910420Y-16565174D02*
X14919944Y-16574698D01*
X14919944Y-16574698D02*
X14929468Y-16593746D01*
X14929468Y-16593746D02*
X14929468Y-16650888D01*
X14929468Y-16650888D02*
X14919944Y-16669936D01*
X14919944Y-16669936D02*
X14910420Y-16679460D01*
X14910420Y-16679460D02*
X14891373Y-16688984D01*
X14891373Y-16688984D02*
X14853277Y-16688984D01*
X14853277Y-16688984D02*
X14834230Y-16679460D01*
X15043753Y-16688984D02*
X15024706Y-16679460D01*
X15024706Y-16679460D02*
X15015182Y-16660412D01*
X15015182Y-16660412D02*
X15015182Y-16488984D01*
X15205658Y-16688984D02*
X15205658Y-16584222D01*
X15205658Y-16584222D02*
X15196134Y-16565174D01*
X15196134Y-16565174D02*
X15177087Y-16555650D01*
X15177087Y-16555650D02*
X15138992Y-16555650D01*
X15138992Y-16555650D02*
X15119944Y-16565174D01*
X15205658Y-16679460D02*
X15186611Y-16688984D01*
X15186611Y-16688984D02*
X15138992Y-16688984D01*
X15138992Y-16688984D02*
X15119944Y-16679460D01*
X15119944Y-16679460D02*
X15110420Y-16660412D01*
X15110420Y-16660412D02*
X15110420Y-16641365D01*
X15110420Y-16641365D02*
X15119944Y-16622317D01*
X15119944Y-16622317D02*
X15138992Y-16612793D01*
X15138992Y-16612793D02*
X15186611Y-16612793D01*
X15186611Y-16612793D02*
X15205658Y-16603269D01*
X15272325Y-16555650D02*
X15348515Y-16555650D01*
X15300896Y-16488984D02*
X15300896Y-16660412D01*
X15300896Y-16660412D02*
X15310420Y-16679460D01*
X15310420Y-16679460D02*
X15329468Y-16688984D01*
X15329468Y-16688984D02*
X15348515Y-16688984D01*
X15491373Y-16679460D02*
X15472325Y-16688984D01*
X15472325Y-16688984D02*
X15434230Y-16688984D01*
X15434230Y-16688984D02*
X15415182Y-16679460D01*
X15415182Y-16679460D02*
X15405658Y-16660412D01*
X15405658Y-16660412D02*
X15405658Y-16584222D01*
X15405658Y-16584222D02*
X15415182Y-16565174D01*
X15415182Y-16565174D02*
X15434230Y-16555650D01*
X15434230Y-16555650D02*
X15472325Y-16555650D01*
X15472325Y-16555650D02*
X15491373Y-16565174D01*
X15491373Y-16565174D02*
X15500896Y-16584222D01*
X15500896Y-16584222D02*
X15500896Y-16603269D01*
X15500896Y-16603269D02*
X15405658Y-16622317D01*
X15672325Y-16688984D02*
X15672325Y-16488984D01*
X15672325Y-16679460D02*
X15653277Y-16688984D01*
X15653277Y-16688984D02*
X15615182Y-16688984D01*
X15615182Y-16688984D02*
X15596134Y-16679460D01*
X15596134Y-16679460D02*
X15586611Y-16669936D01*
X15586611Y-16669936D02*
X15577087Y-16650888D01*
X15577087Y-16650888D02*
X15577087Y-16593746D01*
X15577087Y-16593746D02*
X15586611Y-16574698D01*
X15586611Y-16574698D02*
X15596134Y-16565174D01*
X15596134Y-16565174D02*
X15615182Y-16555650D01*
X15615182Y-16555650D02*
X15653277Y-16555650D01*
X15653277Y-16555650D02*
X15672325Y-16565174D01*
X15748515Y-16765174D02*
X15758039Y-16755650D01*
X15758039Y-16755650D02*
X15777087Y-16727079D01*
X15777087Y-16727079D02*
X15786611Y-16708031D01*
X15786611Y-16708031D02*
X15796134Y-16679460D01*
X15796134Y-16679460D02*
X15805658Y-16631841D01*
X15805658Y-16631841D02*
X15805658Y-16593746D01*
X15805658Y-16593746D02*
X15796134Y-16546127D01*
X15796134Y-16546127D02*
X15786611Y-16517555D01*
X15786611Y-16517555D02*
X15777087Y-16498508D01*
X15777087Y-16498508D02*
X15758039Y-16469936D01*
X15758039Y-16469936D02*
X15748515Y-16460412D01*
D12*
X8992500Y-16861500D02*
G75*
G02*
X8902500Y-16861500I-45000J0D01*
G01*
X8902500Y-16861500D02*
G75*
G02*
X8992500Y-16861500I45000J0D01*
G01*
D11*
X9291372Y-16752984D02*
X9310420Y-16752984D01*
X9310420Y-16752984D02*
X9329467Y-16762508D01*
X9329467Y-16762508D02*
X9338991Y-16772031D01*
X9338991Y-16772031D02*
X9348515Y-16791079D01*
X9348515Y-16791079D02*
X9358039Y-16829174D01*
X9358039Y-16829174D02*
X9358039Y-16876793D01*
X9358039Y-16876793D02*
X9348515Y-16914889D01*
X9348515Y-16914889D02*
X9338991Y-16933936D01*
X9338991Y-16933936D02*
X9329467Y-16943460D01*
X9329467Y-16943460D02*
X9310420Y-16952984D01*
X9310420Y-16952984D02*
X9291372Y-16952984D01*
X9291372Y-16952984D02*
X9272324Y-16943460D01*
X9272324Y-16943460D02*
X9262801Y-16933936D01*
X9262801Y-16933936D02*
X9253277Y-16914889D01*
X9253277Y-16914889D02*
X9243753Y-16876793D01*
X9243753Y-16876793D02*
X9243753Y-16829174D01*
X9243753Y-16829174D02*
X9253277Y-16791079D01*
X9253277Y-16791079D02*
X9262801Y-16772031D01*
X9262801Y-16772031D02*
X9272324Y-16762508D01*
X9272324Y-16762508D02*
X9291372Y-16752984D01*
X9443753Y-16933936D02*
X9453277Y-16943460D01*
X9453277Y-16943460D02*
X9443753Y-16952984D01*
X9443753Y-16952984D02*
X9434229Y-16943460D01*
X9434229Y-16943460D02*
X9443753Y-16933936D01*
X9443753Y-16933936D02*
X9443753Y-16952984D01*
X9548515Y-16952984D02*
X9586610Y-16952984D01*
X9586610Y-16952984D02*
X9605658Y-16943460D01*
X9605658Y-16943460D02*
X9615182Y-16933936D01*
X9615182Y-16933936D02*
X9634229Y-16905365D01*
X9634229Y-16905365D02*
X9643753Y-16867270D01*
X9643753Y-16867270D02*
X9643753Y-16791079D01*
X9643753Y-16791079D02*
X9634229Y-16772031D01*
X9634229Y-16772031D02*
X9624705Y-16762508D01*
X9624705Y-16762508D02*
X9605658Y-16752984D01*
X9605658Y-16752984D02*
X9567563Y-16752984D01*
X9567563Y-16752984D02*
X9548515Y-16762508D01*
X9548515Y-16762508D02*
X9538991Y-16772031D01*
X9538991Y-16772031D02*
X9529467Y-16791079D01*
X9529467Y-16791079D02*
X9529467Y-16838698D01*
X9529467Y-16838698D02*
X9538991Y-16857746D01*
X9538991Y-16857746D02*
X9548515Y-16867270D01*
X9548515Y-16867270D02*
X9567563Y-16876793D01*
X9567563Y-16876793D02*
X9605658Y-16876793D01*
X9605658Y-16876793D02*
X9624705Y-16867270D01*
X9624705Y-16867270D02*
X9634229Y-16857746D01*
X9634229Y-16857746D02*
X9643753Y-16838698D01*
X9767563Y-16752984D02*
X9786610Y-16752984D01*
X9786610Y-16752984D02*
X9805658Y-16762508D01*
X9805658Y-16762508D02*
X9815182Y-16772031D01*
X9815182Y-16772031D02*
X9824705Y-16791079D01*
X9824705Y-16791079D02*
X9834229Y-16829174D01*
X9834229Y-16829174D02*
X9834229Y-16876793D01*
X9834229Y-16876793D02*
X9824705Y-16914889D01*
X9824705Y-16914889D02*
X9815182Y-16933936D01*
X9815182Y-16933936D02*
X9805658Y-16943460D01*
X9805658Y-16943460D02*
X9786610Y-16952984D01*
X9786610Y-16952984D02*
X9767563Y-16952984D01*
X9767563Y-16952984D02*
X9748515Y-16943460D01*
X9748515Y-16943460D02*
X9738991Y-16933936D01*
X9738991Y-16933936D02*
X9729467Y-16914889D01*
X9729467Y-16914889D02*
X9719944Y-16876793D01*
X9719944Y-16876793D02*
X9719944Y-16829174D01*
X9719944Y-16829174D02*
X9729467Y-16791079D01*
X9729467Y-16791079D02*
X9738991Y-16772031D01*
X9738991Y-16772031D02*
X9748515Y-16762508D01*
X9748515Y-16762508D02*
X9767563Y-16752984D01*
X9958039Y-16752984D02*
X9977086Y-16752984D01*
X9977086Y-16752984D02*
X9996134Y-16762508D01*
X9996134Y-16762508D02*
X10005658Y-16772031D01*
X10005658Y-16772031D02*
X10015182Y-16791079D01*
X10015182Y-16791079D02*
X10024705Y-16829174D01*
X10024705Y-16829174D02*
X10024705Y-16876793D01*
X10024705Y-16876793D02*
X10015182Y-16914889D01*
X10015182Y-16914889D02*
X10005658Y-16933936D01*
X10005658Y-16933936D02*
X9996134Y-16943460D01*
X9996134Y-16943460D02*
X9977086Y-16952984D01*
X9977086Y-16952984D02*
X9958039Y-16952984D01*
X9958039Y-16952984D02*
X9938991Y-16943460D01*
X9938991Y-16943460D02*
X9929467Y-16933936D01*
X9929467Y-16933936D02*
X9919944Y-16914889D01*
X9919944Y-16914889D02*
X9910420Y-16876793D01*
X9910420Y-16876793D02*
X9910420Y-16829174D01*
X9910420Y-16829174D02*
X9919944Y-16791079D01*
X9919944Y-16791079D02*
X9929467Y-16772031D01*
X9929467Y-16772031D02*
X9938991Y-16762508D01*
X9938991Y-16762508D02*
X9958039Y-16752984D01*
X10110420Y-16952984D02*
X10110420Y-16819650D01*
X10110420Y-16838698D02*
X10119944Y-16829174D01*
X10119944Y-16829174D02*
X10138991Y-16819650D01*
X10138991Y-16819650D02*
X10167563Y-16819650D01*
X10167563Y-16819650D02*
X10186610Y-16829174D01*
X10186610Y-16829174D02*
X10196134Y-16848222D01*
X10196134Y-16848222D02*
X10196134Y-16952984D01*
X10196134Y-16848222D02*
X10205658Y-16829174D01*
X10205658Y-16829174D02*
X10224705Y-16819650D01*
X10224705Y-16819650D02*
X10253277Y-16819650D01*
X10253277Y-16819650D02*
X10272325Y-16829174D01*
X10272325Y-16829174D02*
X10281848Y-16848222D01*
X10281848Y-16848222D02*
X10281848Y-16952984D01*
X10377086Y-16952984D02*
X10377086Y-16819650D01*
X10377086Y-16838698D02*
X10386610Y-16829174D01*
X10386610Y-16829174D02*
X10405658Y-16819650D01*
X10405658Y-16819650D02*
X10434229Y-16819650D01*
X10434229Y-16819650D02*
X10453277Y-16829174D01*
X10453277Y-16829174D02*
X10462801Y-16848222D01*
X10462801Y-16848222D02*
X10462801Y-16952984D01*
X10462801Y-16848222D02*
X10472325Y-16829174D01*
X10472325Y-16829174D02*
X10491372Y-16819650D01*
X10491372Y-16819650D02*
X10519944Y-16819650D01*
X10519944Y-16819650D02*
X10538991Y-16829174D01*
X10538991Y-16829174D02*
X10548515Y-16848222D01*
X10548515Y-16848222D02*
X10548515Y-16952984D01*
X10938991Y-16743460D02*
X10767563Y-17000603D01*
X11196134Y-16752984D02*
X11215182Y-16752984D01*
X11215182Y-16752984D02*
X11234229Y-16762508D01*
X11234229Y-16762508D02*
X11243753Y-16772031D01*
X11243753Y-16772031D02*
X11253277Y-16791079D01*
X11253277Y-16791079D02*
X11262801Y-16829174D01*
X11262801Y-16829174D02*
X11262801Y-16876793D01*
X11262801Y-16876793D02*
X11253277Y-16914889D01*
X11253277Y-16914889D02*
X11243753Y-16933936D01*
X11243753Y-16933936D02*
X11234229Y-16943460D01*
X11234229Y-16943460D02*
X11215182Y-16952984D01*
X11215182Y-16952984D02*
X11196134Y-16952984D01*
X11196134Y-16952984D02*
X11177087Y-16943460D01*
X11177087Y-16943460D02*
X11167563Y-16933936D01*
X11167563Y-16933936D02*
X11158039Y-16914889D01*
X11158039Y-16914889D02*
X11148515Y-16876793D01*
X11148515Y-16876793D02*
X11148515Y-16829174D01*
X11148515Y-16829174D02*
X11158039Y-16791079D01*
X11158039Y-16791079D02*
X11167563Y-16772031D01*
X11167563Y-16772031D02*
X11177087Y-16762508D01*
X11177087Y-16762508D02*
X11196134Y-16752984D01*
X11348515Y-16933936D02*
X11358039Y-16943460D01*
X11358039Y-16943460D02*
X11348515Y-16952984D01*
X11348515Y-16952984D02*
X11338991Y-16943460D01*
X11338991Y-16943460D02*
X11348515Y-16933936D01*
X11348515Y-16933936D02*
X11348515Y-16952984D01*
X11481848Y-16752984D02*
X11500896Y-16752984D01*
X11500896Y-16752984D02*
X11519944Y-16762508D01*
X11519944Y-16762508D02*
X11529467Y-16772031D01*
X11529467Y-16772031D02*
X11538991Y-16791079D01*
X11538991Y-16791079D02*
X11548515Y-16829174D01*
X11548515Y-16829174D02*
X11548515Y-16876793D01*
X11548515Y-16876793D02*
X11538991Y-16914889D01*
X11538991Y-16914889D02*
X11529467Y-16933936D01*
X11529467Y-16933936D02*
X11519944Y-16943460D01*
X11519944Y-16943460D02*
X11500896Y-16952984D01*
X11500896Y-16952984D02*
X11481848Y-16952984D01*
X11481848Y-16952984D02*
X11462801Y-16943460D01*
X11462801Y-16943460D02*
X11453277Y-16933936D01*
X11453277Y-16933936D02*
X11443753Y-16914889D01*
X11443753Y-16914889D02*
X11434229Y-16876793D01*
X11434229Y-16876793D02*
X11434229Y-16829174D01*
X11434229Y-16829174D02*
X11443753Y-16791079D01*
X11443753Y-16791079D02*
X11453277Y-16772031D01*
X11453277Y-16772031D02*
X11462801Y-16762508D01*
X11462801Y-16762508D02*
X11481848Y-16752984D01*
X11615182Y-16752984D02*
X11738991Y-16752984D01*
X11738991Y-16752984D02*
X11672325Y-16829174D01*
X11672325Y-16829174D02*
X11700896Y-16829174D01*
X11700896Y-16829174D02*
X11719944Y-16838698D01*
X11719944Y-16838698D02*
X11729467Y-16848222D01*
X11729467Y-16848222D02*
X11738991Y-16867270D01*
X11738991Y-16867270D02*
X11738991Y-16914889D01*
X11738991Y-16914889D02*
X11729467Y-16933936D01*
X11729467Y-16933936D02*
X11719944Y-16943460D01*
X11719944Y-16943460D02*
X11700896Y-16952984D01*
X11700896Y-16952984D02*
X11643753Y-16952984D01*
X11643753Y-16952984D02*
X11624706Y-16943460D01*
X11624706Y-16943460D02*
X11615182Y-16933936D01*
X11919944Y-16752984D02*
X11824706Y-16752984D01*
X11824706Y-16752984D02*
X11815182Y-16848222D01*
X11815182Y-16848222D02*
X11824706Y-16838698D01*
X11824706Y-16838698D02*
X11843753Y-16829174D01*
X11843753Y-16829174D02*
X11891372Y-16829174D01*
X11891372Y-16829174D02*
X11910420Y-16838698D01*
X11910420Y-16838698D02*
X11919944Y-16848222D01*
X11919944Y-16848222D02*
X11929467Y-16867270D01*
X11929467Y-16867270D02*
X11929467Y-16914889D01*
X11929467Y-16914889D02*
X11919944Y-16933936D01*
X11919944Y-16933936D02*
X11910420Y-16943460D01*
X11910420Y-16943460D02*
X11891372Y-16952984D01*
X11891372Y-16952984D02*
X11843753Y-16952984D01*
X11843753Y-16952984D02*
X11824706Y-16943460D01*
X11824706Y-16943460D02*
X11815182Y-16933936D01*
X12100896Y-16819650D02*
X12100896Y-16952984D01*
X12053277Y-16743460D02*
X12005658Y-16886317D01*
X12005658Y-16886317D02*
X12129467Y-16886317D01*
X12196134Y-16752984D02*
X12196134Y-16791079D01*
X12272325Y-16752984D02*
X12272325Y-16791079D01*
X12567563Y-17029174D02*
X12558039Y-17019650D01*
X12558039Y-17019650D02*
X12538991Y-16991079D01*
X12538991Y-16991079D02*
X12529468Y-16972031D01*
X12529468Y-16972031D02*
X12519944Y-16943460D01*
X12519944Y-16943460D02*
X12510420Y-16895841D01*
X12510420Y-16895841D02*
X12510420Y-16857746D01*
X12510420Y-16857746D02*
X12519944Y-16810127D01*
X12519944Y-16810127D02*
X12529468Y-16781555D01*
X12529468Y-16781555D02*
X12538991Y-16762508D01*
X12538991Y-16762508D02*
X12558039Y-16733936D01*
X12558039Y-16733936D02*
X12567563Y-16724412D01*
X12634229Y-16772031D02*
X12643753Y-16762508D01*
X12643753Y-16762508D02*
X12662801Y-16752984D01*
X12662801Y-16752984D02*
X12710420Y-16752984D01*
X12710420Y-16752984D02*
X12729468Y-16762508D01*
X12729468Y-16762508D02*
X12738991Y-16772031D01*
X12738991Y-16772031D02*
X12748515Y-16791079D01*
X12748515Y-16791079D02*
X12748515Y-16810127D01*
X12748515Y-16810127D02*
X12738991Y-16838698D01*
X12738991Y-16838698D02*
X12624706Y-16952984D01*
X12624706Y-16952984D02*
X12748515Y-16952984D01*
X12986610Y-16952984D02*
X12986610Y-16752984D01*
X13072325Y-16952984D02*
X13072325Y-16848222D01*
X13072325Y-16848222D02*
X13062801Y-16829174D01*
X13062801Y-16829174D02*
X13043753Y-16819650D01*
X13043753Y-16819650D02*
X13015182Y-16819650D01*
X13015182Y-16819650D02*
X12996134Y-16829174D01*
X12996134Y-16829174D02*
X12986610Y-16838698D01*
X13196134Y-16952984D02*
X13177087Y-16943460D01*
X13177087Y-16943460D02*
X13167563Y-16933936D01*
X13167563Y-16933936D02*
X13158039Y-16914889D01*
X13158039Y-16914889D02*
X13158039Y-16857746D01*
X13158039Y-16857746D02*
X13167563Y-16838698D01*
X13167563Y-16838698D02*
X13177087Y-16829174D01*
X13177087Y-16829174D02*
X13196134Y-16819650D01*
X13196134Y-16819650D02*
X13224706Y-16819650D01*
X13224706Y-16819650D02*
X13243753Y-16829174D01*
X13243753Y-16829174D02*
X13253277Y-16838698D01*
X13253277Y-16838698D02*
X13262801Y-16857746D01*
X13262801Y-16857746D02*
X13262801Y-16914889D01*
X13262801Y-16914889D02*
X13253277Y-16933936D01*
X13253277Y-16933936D02*
X13243753Y-16943460D01*
X13243753Y-16943460D02*
X13224706Y-16952984D01*
X13224706Y-16952984D02*
X13196134Y-16952984D01*
X13377087Y-16952984D02*
X13358039Y-16943460D01*
X13358039Y-16943460D02*
X13348515Y-16924412D01*
X13348515Y-16924412D02*
X13348515Y-16752984D01*
X13529468Y-16943460D02*
X13510420Y-16952984D01*
X13510420Y-16952984D02*
X13472325Y-16952984D01*
X13472325Y-16952984D02*
X13453277Y-16943460D01*
X13453277Y-16943460D02*
X13443753Y-16924412D01*
X13443753Y-16924412D02*
X13443753Y-16848222D01*
X13443753Y-16848222D02*
X13453277Y-16829174D01*
X13453277Y-16829174D02*
X13472325Y-16819650D01*
X13472325Y-16819650D02*
X13510420Y-16819650D01*
X13510420Y-16819650D02*
X13529468Y-16829174D01*
X13529468Y-16829174D02*
X13538991Y-16848222D01*
X13538991Y-16848222D02*
X13538991Y-16867270D01*
X13538991Y-16867270D02*
X13443753Y-16886317D01*
X13615182Y-16943460D02*
X13634230Y-16952984D01*
X13634230Y-16952984D02*
X13672325Y-16952984D01*
X13672325Y-16952984D02*
X13691372Y-16943460D01*
X13691372Y-16943460D02*
X13700896Y-16924412D01*
X13700896Y-16924412D02*
X13700896Y-16914889D01*
X13700896Y-16914889D02*
X13691372Y-16895841D01*
X13691372Y-16895841D02*
X13672325Y-16886317D01*
X13672325Y-16886317D02*
X13643753Y-16886317D01*
X13643753Y-16886317D02*
X13624706Y-16876793D01*
X13624706Y-16876793D02*
X13615182Y-16857746D01*
X13615182Y-16857746D02*
X13615182Y-16848222D01*
X13615182Y-16848222D02*
X13624706Y-16829174D01*
X13624706Y-16829174D02*
X13643753Y-16819650D01*
X13643753Y-16819650D02*
X13672325Y-16819650D01*
X13672325Y-16819650D02*
X13691372Y-16829174D01*
X13767563Y-17029174D02*
X13777087Y-17019650D01*
X13777087Y-17019650D02*
X13796134Y-16991079D01*
X13796134Y-16991079D02*
X13805658Y-16972031D01*
X13805658Y-16972031D02*
X13815182Y-16943460D01*
X13815182Y-16943460D02*
X13824706Y-16895841D01*
X13824706Y-16895841D02*
X13824706Y-16857746D01*
X13824706Y-16857746D02*
X13815182Y-16810127D01*
X13815182Y-16810127D02*
X13805658Y-16781555D01*
X13805658Y-16781555D02*
X13796134Y-16762508D01*
X13796134Y-16762508D02*
X13777087Y-16733936D01*
X13777087Y-16733936D02*
X13767563Y-16724412D01*
X14129468Y-17029174D02*
X14119944Y-17019650D01*
X14119944Y-17019650D02*
X14100896Y-16991079D01*
X14100896Y-16991079D02*
X14091372Y-16972031D01*
X14091372Y-16972031D02*
X14081849Y-16943460D01*
X14081849Y-16943460D02*
X14072325Y-16895841D01*
X14072325Y-16895841D02*
X14072325Y-16857746D01*
X14072325Y-16857746D02*
X14081849Y-16810127D01*
X14081849Y-16810127D02*
X14091372Y-16781555D01*
X14091372Y-16781555D02*
X14100896Y-16762508D01*
X14100896Y-16762508D02*
X14119944Y-16733936D01*
X14119944Y-16733936D02*
X14129468Y-16724412D01*
X14205658Y-16819650D02*
X14205658Y-16952984D01*
X14205658Y-16838698D02*
X14215182Y-16829174D01*
X14215182Y-16829174D02*
X14234230Y-16819650D01*
X14234230Y-16819650D02*
X14262801Y-16819650D01*
X14262801Y-16819650D02*
X14281849Y-16829174D01*
X14281849Y-16829174D02*
X14291372Y-16848222D01*
X14291372Y-16848222D02*
X14291372Y-16952984D01*
X14415182Y-16952984D02*
X14396134Y-16943460D01*
X14396134Y-16943460D02*
X14386611Y-16933936D01*
X14386611Y-16933936D02*
X14377087Y-16914889D01*
X14377087Y-16914889D02*
X14377087Y-16857746D01*
X14377087Y-16857746D02*
X14386611Y-16838698D01*
X14386611Y-16838698D02*
X14396134Y-16829174D01*
X14396134Y-16829174D02*
X14415182Y-16819650D01*
X14415182Y-16819650D02*
X14443753Y-16819650D01*
X14443753Y-16819650D02*
X14462801Y-16829174D01*
X14462801Y-16829174D02*
X14472325Y-16838698D01*
X14472325Y-16838698D02*
X14481849Y-16857746D01*
X14481849Y-16857746D02*
X14481849Y-16914889D01*
X14481849Y-16914889D02*
X14472325Y-16933936D01*
X14472325Y-16933936D02*
X14462801Y-16943460D01*
X14462801Y-16943460D02*
X14443753Y-16952984D01*
X14443753Y-16952984D02*
X14415182Y-16952984D01*
X14538992Y-16819650D02*
X14615182Y-16819650D01*
X14567563Y-16752984D02*
X14567563Y-16924412D01*
X14567563Y-16924412D02*
X14577087Y-16943460D01*
X14577087Y-16943460D02*
X14596134Y-16952984D01*
X14596134Y-16952984D02*
X14615182Y-16952984D01*
X14834230Y-16819650D02*
X14834230Y-17019650D01*
X14834230Y-16829174D02*
X14853277Y-16819650D01*
X14853277Y-16819650D02*
X14891373Y-16819650D01*
X14891373Y-16819650D02*
X14910420Y-16829174D01*
X14910420Y-16829174D02*
X14919944Y-16838698D01*
X14919944Y-16838698D02*
X14929468Y-16857746D01*
X14929468Y-16857746D02*
X14929468Y-16914889D01*
X14929468Y-16914889D02*
X14919944Y-16933936D01*
X14919944Y-16933936D02*
X14910420Y-16943460D01*
X14910420Y-16943460D02*
X14891373Y-16952984D01*
X14891373Y-16952984D02*
X14853277Y-16952984D01*
X14853277Y-16952984D02*
X14834230Y-16943460D01*
X15043753Y-16952984D02*
X15024706Y-16943460D01*
X15024706Y-16943460D02*
X15015182Y-16924412D01*
X15015182Y-16924412D02*
X15015182Y-16752984D01*
X15205658Y-16952984D02*
X15205658Y-16848222D01*
X15205658Y-16848222D02*
X15196134Y-16829174D01*
X15196134Y-16829174D02*
X15177087Y-16819650D01*
X15177087Y-16819650D02*
X15138992Y-16819650D01*
X15138992Y-16819650D02*
X15119944Y-16829174D01*
X15205658Y-16943460D02*
X15186611Y-16952984D01*
X15186611Y-16952984D02*
X15138992Y-16952984D01*
X15138992Y-16952984D02*
X15119944Y-16943460D01*
X15119944Y-16943460D02*
X15110420Y-16924412D01*
X15110420Y-16924412D02*
X15110420Y-16905365D01*
X15110420Y-16905365D02*
X15119944Y-16886317D01*
X15119944Y-16886317D02*
X15138992Y-16876793D01*
X15138992Y-16876793D02*
X15186611Y-16876793D01*
X15186611Y-16876793D02*
X15205658Y-16867270D01*
X15272325Y-16819650D02*
X15348515Y-16819650D01*
X15300896Y-16752984D02*
X15300896Y-16924412D01*
X15300896Y-16924412D02*
X15310420Y-16943460D01*
X15310420Y-16943460D02*
X15329468Y-16952984D01*
X15329468Y-16952984D02*
X15348515Y-16952984D01*
X15491373Y-16943460D02*
X15472325Y-16952984D01*
X15472325Y-16952984D02*
X15434230Y-16952984D01*
X15434230Y-16952984D02*
X15415182Y-16943460D01*
X15415182Y-16943460D02*
X15405658Y-16924412D01*
X15405658Y-16924412D02*
X15405658Y-16848222D01*
X15405658Y-16848222D02*
X15415182Y-16829174D01*
X15415182Y-16829174D02*
X15434230Y-16819650D01*
X15434230Y-16819650D02*
X15472325Y-16819650D01*
X15472325Y-16819650D02*
X15491373Y-16829174D01*
X15491373Y-16829174D02*
X15500896Y-16848222D01*
X15500896Y-16848222D02*
X15500896Y-16867270D01*
X15500896Y-16867270D02*
X15405658Y-16886317D01*
X15672325Y-16952984D02*
X15672325Y-16752984D01*
X15672325Y-16943460D02*
X15653277Y-16952984D01*
X15653277Y-16952984D02*
X15615182Y-16952984D01*
X15615182Y-16952984D02*
X15596134Y-16943460D01*
X15596134Y-16943460D02*
X15586611Y-16933936D01*
X15586611Y-16933936D02*
X15577087Y-16914889D01*
X15577087Y-16914889D02*
X15577087Y-16857746D01*
X15577087Y-16857746D02*
X15586611Y-16838698D01*
X15586611Y-16838698D02*
X15596134Y-16829174D01*
X15596134Y-16829174D02*
X15615182Y-16819650D01*
X15615182Y-16819650D02*
X15653277Y-16819650D01*
X15653277Y-16819650D02*
X15672325Y-16829174D01*
X15748515Y-17029174D02*
X15758039Y-17019650D01*
X15758039Y-17019650D02*
X15777087Y-16991079D01*
X15777087Y-16991079D02*
X15786611Y-16972031D01*
X15786611Y-16972031D02*
X15796134Y-16943460D01*
X15796134Y-16943460D02*
X15805658Y-16895841D01*
X15805658Y-16895841D02*
X15805658Y-16857746D01*
X15805658Y-16857746D02*
X15796134Y-16810127D01*
X15796134Y-16810127D02*
X15786611Y-16781555D01*
X15786611Y-16781555D02*
X15777087Y-16762508D01*
X15777087Y-16762508D02*
X15758039Y-16733936D01*
X15758039Y-16733936D02*
X15748515Y-16724412D01*
D13*
X8907410Y-17040410D02*
X8907410Y-17210590D01*
X8822320Y-17125500D02*
X8992500Y-17125500D01*
D11*
X9358039Y-17216984D02*
X9243753Y-17216984D01*
X9300896Y-17216984D02*
X9300896Y-17016984D01*
X9300896Y-17016984D02*
X9281848Y-17045555D01*
X9281848Y-17045555D02*
X9262801Y-17064603D01*
X9262801Y-17064603D02*
X9243753Y-17074127D01*
X9443753Y-17197936D02*
X9453277Y-17207460D01*
X9453277Y-17207460D02*
X9443753Y-17216984D01*
X9443753Y-17216984D02*
X9434229Y-17207460D01*
X9434229Y-17207460D02*
X9443753Y-17197936D01*
X9443753Y-17197936D02*
X9443753Y-17216984D01*
X9519944Y-17016984D02*
X9653277Y-17016984D01*
X9653277Y-17016984D02*
X9567563Y-17216984D01*
X9767563Y-17016984D02*
X9786610Y-17016984D01*
X9786610Y-17016984D02*
X9805658Y-17026508D01*
X9805658Y-17026508D02*
X9815182Y-17036031D01*
X9815182Y-17036031D02*
X9824705Y-17055079D01*
X9824705Y-17055079D02*
X9834229Y-17093174D01*
X9834229Y-17093174D02*
X9834229Y-17140793D01*
X9834229Y-17140793D02*
X9824705Y-17178889D01*
X9824705Y-17178889D02*
X9815182Y-17197936D01*
X9815182Y-17197936D02*
X9805658Y-17207460D01*
X9805658Y-17207460D02*
X9786610Y-17216984D01*
X9786610Y-17216984D02*
X9767563Y-17216984D01*
X9767563Y-17216984D02*
X9748515Y-17207460D01*
X9748515Y-17207460D02*
X9738991Y-17197936D01*
X9738991Y-17197936D02*
X9729467Y-17178889D01*
X9729467Y-17178889D02*
X9719944Y-17140793D01*
X9719944Y-17140793D02*
X9719944Y-17093174D01*
X9719944Y-17093174D02*
X9729467Y-17055079D01*
X9729467Y-17055079D02*
X9738991Y-17036031D01*
X9738991Y-17036031D02*
X9748515Y-17026508D01*
X9748515Y-17026508D02*
X9767563Y-17016984D01*
X9910420Y-17036031D02*
X9919944Y-17026508D01*
X9919944Y-17026508D02*
X9938991Y-17016984D01*
X9938991Y-17016984D02*
X9986610Y-17016984D01*
X9986610Y-17016984D02*
X10005658Y-17026508D01*
X10005658Y-17026508D02*
X10015182Y-17036031D01*
X10015182Y-17036031D02*
X10024705Y-17055079D01*
X10024705Y-17055079D02*
X10024705Y-17074127D01*
X10024705Y-17074127D02*
X10015182Y-17102698D01*
X10015182Y-17102698D02*
X9900896Y-17216984D01*
X9900896Y-17216984D02*
X10024705Y-17216984D01*
X10110420Y-17216984D02*
X10110420Y-17083650D01*
X10110420Y-17102698D02*
X10119944Y-17093174D01*
X10119944Y-17093174D02*
X10138991Y-17083650D01*
X10138991Y-17083650D02*
X10167563Y-17083650D01*
X10167563Y-17083650D02*
X10186610Y-17093174D01*
X10186610Y-17093174D02*
X10196134Y-17112222D01*
X10196134Y-17112222D02*
X10196134Y-17216984D01*
X10196134Y-17112222D02*
X10205658Y-17093174D01*
X10205658Y-17093174D02*
X10224705Y-17083650D01*
X10224705Y-17083650D02*
X10253277Y-17083650D01*
X10253277Y-17083650D02*
X10272325Y-17093174D01*
X10272325Y-17093174D02*
X10281848Y-17112222D01*
X10281848Y-17112222D02*
X10281848Y-17216984D01*
X10377086Y-17216984D02*
X10377086Y-17083650D01*
X10377086Y-17102698D02*
X10386610Y-17093174D01*
X10386610Y-17093174D02*
X10405658Y-17083650D01*
X10405658Y-17083650D02*
X10434229Y-17083650D01*
X10434229Y-17083650D02*
X10453277Y-17093174D01*
X10453277Y-17093174D02*
X10462801Y-17112222D01*
X10462801Y-17112222D02*
X10462801Y-17216984D01*
X10462801Y-17112222D02*
X10472325Y-17093174D01*
X10472325Y-17093174D02*
X10491372Y-17083650D01*
X10491372Y-17083650D02*
X10519944Y-17083650D01*
X10519944Y-17083650D02*
X10538991Y-17093174D01*
X10538991Y-17093174D02*
X10548515Y-17112222D01*
X10548515Y-17112222D02*
X10548515Y-17216984D01*
X10938991Y-17007460D02*
X10767563Y-17264603D01*
X11196134Y-17016984D02*
X11215182Y-17016984D01*
X11215182Y-17016984D02*
X11234229Y-17026508D01*
X11234229Y-17026508D02*
X11243753Y-17036031D01*
X11243753Y-17036031D02*
X11253277Y-17055079D01*
X11253277Y-17055079D02*
X11262801Y-17093174D01*
X11262801Y-17093174D02*
X11262801Y-17140793D01*
X11262801Y-17140793D02*
X11253277Y-17178889D01*
X11253277Y-17178889D02*
X11243753Y-17197936D01*
X11243753Y-17197936D02*
X11234229Y-17207460D01*
X11234229Y-17207460D02*
X11215182Y-17216984D01*
X11215182Y-17216984D02*
X11196134Y-17216984D01*
X11196134Y-17216984D02*
X11177087Y-17207460D01*
X11177087Y-17207460D02*
X11167563Y-17197936D01*
X11167563Y-17197936D02*
X11158039Y-17178889D01*
X11158039Y-17178889D02*
X11148515Y-17140793D01*
X11148515Y-17140793D02*
X11148515Y-17093174D01*
X11148515Y-17093174D02*
X11158039Y-17055079D01*
X11158039Y-17055079D02*
X11167563Y-17036031D01*
X11167563Y-17036031D02*
X11177087Y-17026508D01*
X11177087Y-17026508D02*
X11196134Y-17016984D01*
X11348515Y-17197936D02*
X11358039Y-17207460D01*
X11358039Y-17207460D02*
X11348515Y-17216984D01*
X11348515Y-17216984D02*
X11338991Y-17207460D01*
X11338991Y-17207460D02*
X11348515Y-17197936D01*
X11348515Y-17197936D02*
X11348515Y-17216984D01*
X11481848Y-17016984D02*
X11500896Y-17016984D01*
X11500896Y-17016984D02*
X11519944Y-17026508D01*
X11519944Y-17026508D02*
X11529467Y-17036031D01*
X11529467Y-17036031D02*
X11538991Y-17055079D01*
X11538991Y-17055079D02*
X11548515Y-17093174D01*
X11548515Y-17093174D02*
X11548515Y-17140793D01*
X11548515Y-17140793D02*
X11538991Y-17178889D01*
X11538991Y-17178889D02*
X11529467Y-17197936D01*
X11529467Y-17197936D02*
X11519944Y-17207460D01*
X11519944Y-17207460D02*
X11500896Y-17216984D01*
X11500896Y-17216984D02*
X11481848Y-17216984D01*
X11481848Y-17216984D02*
X11462801Y-17207460D01*
X11462801Y-17207460D02*
X11453277Y-17197936D01*
X11453277Y-17197936D02*
X11443753Y-17178889D01*
X11443753Y-17178889D02*
X11434229Y-17140793D01*
X11434229Y-17140793D02*
X11434229Y-17093174D01*
X11434229Y-17093174D02*
X11443753Y-17055079D01*
X11443753Y-17055079D02*
X11453277Y-17036031D01*
X11453277Y-17036031D02*
X11462801Y-17026508D01*
X11462801Y-17026508D02*
X11481848Y-17016984D01*
X11719944Y-17016984D02*
X11681848Y-17016984D01*
X11681848Y-17016984D02*
X11662801Y-17026508D01*
X11662801Y-17026508D02*
X11653277Y-17036031D01*
X11653277Y-17036031D02*
X11634229Y-17064603D01*
X11634229Y-17064603D02*
X11624706Y-17102698D01*
X11624706Y-17102698D02*
X11624706Y-17178889D01*
X11624706Y-17178889D02*
X11634229Y-17197936D01*
X11634229Y-17197936D02*
X11643753Y-17207460D01*
X11643753Y-17207460D02*
X11662801Y-17216984D01*
X11662801Y-17216984D02*
X11700896Y-17216984D01*
X11700896Y-17216984D02*
X11719944Y-17207460D01*
X11719944Y-17207460D02*
X11729467Y-17197936D01*
X11729467Y-17197936D02*
X11738991Y-17178889D01*
X11738991Y-17178889D02*
X11738991Y-17131270D01*
X11738991Y-17131270D02*
X11729467Y-17112222D01*
X11729467Y-17112222D02*
X11719944Y-17102698D01*
X11719944Y-17102698D02*
X11700896Y-17093174D01*
X11700896Y-17093174D02*
X11662801Y-17093174D01*
X11662801Y-17093174D02*
X11643753Y-17102698D01*
X11643753Y-17102698D02*
X11634229Y-17112222D01*
X11634229Y-17112222D02*
X11624706Y-17131270D01*
X11805658Y-17016984D02*
X11938991Y-17016984D01*
X11938991Y-17016984D02*
X11853277Y-17216984D01*
X12053277Y-17016984D02*
X12072325Y-17016984D01*
X12072325Y-17016984D02*
X12091372Y-17026508D01*
X12091372Y-17026508D02*
X12100896Y-17036031D01*
X12100896Y-17036031D02*
X12110420Y-17055079D01*
X12110420Y-17055079D02*
X12119944Y-17093174D01*
X12119944Y-17093174D02*
X12119944Y-17140793D01*
X12119944Y-17140793D02*
X12110420Y-17178889D01*
X12110420Y-17178889D02*
X12100896Y-17197936D01*
X12100896Y-17197936D02*
X12091372Y-17207460D01*
X12091372Y-17207460D02*
X12072325Y-17216984D01*
X12072325Y-17216984D02*
X12053277Y-17216984D01*
X12053277Y-17216984D02*
X12034229Y-17207460D01*
X12034229Y-17207460D02*
X12024706Y-17197936D01*
X12024706Y-17197936D02*
X12015182Y-17178889D01*
X12015182Y-17178889D02*
X12005658Y-17140793D01*
X12005658Y-17140793D02*
X12005658Y-17093174D01*
X12005658Y-17093174D02*
X12015182Y-17055079D01*
X12015182Y-17055079D02*
X12024706Y-17036031D01*
X12024706Y-17036031D02*
X12034229Y-17026508D01*
X12034229Y-17026508D02*
X12053277Y-17016984D01*
X12196134Y-17016984D02*
X12196134Y-17055079D01*
X12272325Y-17016984D02*
X12272325Y-17055079D01*
X12567563Y-17293174D02*
X12558039Y-17283650D01*
X12558039Y-17283650D02*
X12538991Y-17255079D01*
X12538991Y-17255079D02*
X12529468Y-17236031D01*
X12529468Y-17236031D02*
X12519944Y-17207460D01*
X12519944Y-17207460D02*
X12510420Y-17159841D01*
X12510420Y-17159841D02*
X12510420Y-17121746D01*
X12510420Y-17121746D02*
X12519944Y-17074127D01*
X12519944Y-17074127D02*
X12529468Y-17045555D01*
X12529468Y-17045555D02*
X12538991Y-17026508D01*
X12538991Y-17026508D02*
X12558039Y-16997936D01*
X12558039Y-16997936D02*
X12567563Y-16988412D01*
X12729468Y-17083650D02*
X12729468Y-17216984D01*
X12681848Y-17007460D02*
X12634229Y-17150317D01*
X12634229Y-17150317D02*
X12758039Y-17150317D01*
X12919944Y-17016984D02*
X12881848Y-17016984D01*
X12881848Y-17016984D02*
X12862801Y-17026508D01*
X12862801Y-17026508D02*
X12853277Y-17036031D01*
X12853277Y-17036031D02*
X12834229Y-17064603D01*
X12834229Y-17064603D02*
X12824706Y-17102698D01*
X12824706Y-17102698D02*
X12824706Y-17178889D01*
X12824706Y-17178889D02*
X12834229Y-17197936D01*
X12834229Y-17197936D02*
X12843753Y-17207460D01*
X12843753Y-17207460D02*
X12862801Y-17216984D01*
X12862801Y-17216984D02*
X12900896Y-17216984D01*
X12900896Y-17216984D02*
X12919944Y-17207460D01*
X12919944Y-17207460D02*
X12929468Y-17197936D01*
X12929468Y-17197936D02*
X12938991Y-17178889D01*
X12938991Y-17178889D02*
X12938991Y-17131270D01*
X12938991Y-17131270D02*
X12929468Y-17112222D01*
X12929468Y-17112222D02*
X12919944Y-17102698D01*
X12919944Y-17102698D02*
X12900896Y-17093174D01*
X12900896Y-17093174D02*
X12862801Y-17093174D01*
X12862801Y-17093174D02*
X12843753Y-17102698D01*
X12843753Y-17102698D02*
X12834229Y-17112222D01*
X12834229Y-17112222D02*
X12824706Y-17131270D01*
X13177087Y-17216984D02*
X13177087Y-17016984D01*
X13262801Y-17216984D02*
X13262801Y-17112222D01*
X13262801Y-17112222D02*
X13253277Y-17093174D01*
X13253277Y-17093174D02*
X13234230Y-17083650D01*
X13234230Y-17083650D02*
X13205658Y-17083650D01*
X13205658Y-17083650D02*
X13186610Y-17093174D01*
X13186610Y-17093174D02*
X13177087Y-17102698D01*
X13386610Y-17216984D02*
X13367563Y-17207460D01*
X13367563Y-17207460D02*
X13358039Y-17197936D01*
X13358039Y-17197936D02*
X13348515Y-17178889D01*
X13348515Y-17178889D02*
X13348515Y-17121746D01*
X13348515Y-17121746D02*
X13358039Y-17102698D01*
X13358039Y-17102698D02*
X13367563Y-17093174D01*
X13367563Y-17093174D02*
X13386610Y-17083650D01*
X13386610Y-17083650D02*
X13415182Y-17083650D01*
X13415182Y-17083650D02*
X13434230Y-17093174D01*
X13434230Y-17093174D02*
X13443753Y-17102698D01*
X13443753Y-17102698D02*
X13453277Y-17121746D01*
X13453277Y-17121746D02*
X13453277Y-17178889D01*
X13453277Y-17178889D02*
X13443753Y-17197936D01*
X13443753Y-17197936D02*
X13434230Y-17207460D01*
X13434230Y-17207460D02*
X13415182Y-17216984D01*
X13415182Y-17216984D02*
X13386610Y-17216984D01*
X13567563Y-17216984D02*
X13548515Y-17207460D01*
X13548515Y-17207460D02*
X13538991Y-17188412D01*
X13538991Y-17188412D02*
X13538991Y-17016984D01*
X13719944Y-17207460D02*
X13700896Y-17216984D01*
X13700896Y-17216984D02*
X13662801Y-17216984D01*
X13662801Y-17216984D02*
X13643753Y-17207460D01*
X13643753Y-17207460D02*
X13634230Y-17188412D01*
X13634230Y-17188412D02*
X13634230Y-17112222D01*
X13634230Y-17112222D02*
X13643753Y-17093174D01*
X13643753Y-17093174D02*
X13662801Y-17083650D01*
X13662801Y-17083650D02*
X13700896Y-17083650D01*
X13700896Y-17083650D02*
X13719944Y-17093174D01*
X13719944Y-17093174D02*
X13729468Y-17112222D01*
X13729468Y-17112222D02*
X13729468Y-17131270D01*
X13729468Y-17131270D02*
X13634230Y-17150317D01*
X13805658Y-17207460D02*
X13824706Y-17216984D01*
X13824706Y-17216984D02*
X13862801Y-17216984D01*
X13862801Y-17216984D02*
X13881849Y-17207460D01*
X13881849Y-17207460D02*
X13891372Y-17188412D01*
X13891372Y-17188412D02*
X13891372Y-17178889D01*
X13891372Y-17178889D02*
X13881849Y-17159841D01*
X13881849Y-17159841D02*
X13862801Y-17150317D01*
X13862801Y-17150317D02*
X13834230Y-17150317D01*
X13834230Y-17150317D02*
X13815182Y-17140793D01*
X13815182Y-17140793D02*
X13805658Y-17121746D01*
X13805658Y-17121746D02*
X13805658Y-17112222D01*
X13805658Y-17112222D02*
X13815182Y-17093174D01*
X13815182Y-17093174D02*
X13834230Y-17083650D01*
X13834230Y-17083650D02*
X13862801Y-17083650D01*
X13862801Y-17083650D02*
X13881849Y-17093174D01*
X13958039Y-17293174D02*
X13967563Y-17283650D01*
X13967563Y-17283650D02*
X13986611Y-17255079D01*
X13986611Y-17255079D02*
X13996134Y-17236031D01*
X13996134Y-17236031D02*
X14005658Y-17207460D01*
X14005658Y-17207460D02*
X14015182Y-17159841D01*
X14015182Y-17159841D02*
X14015182Y-17121746D01*
X14015182Y-17121746D02*
X14005658Y-17074127D01*
X14005658Y-17074127D02*
X13996134Y-17045555D01*
X13996134Y-17045555D02*
X13986611Y-17026508D01*
X13986611Y-17026508D02*
X13967563Y-16997936D01*
X13967563Y-16997936D02*
X13958039Y-16988412D01*
X14319944Y-17293174D02*
X14310420Y-17283650D01*
X14310420Y-17283650D02*
X14291372Y-17255079D01*
X14291372Y-17255079D02*
X14281849Y-17236031D01*
X14281849Y-17236031D02*
X14272325Y-17207460D01*
X14272325Y-17207460D02*
X14262801Y-17159841D01*
X14262801Y-17159841D02*
X14262801Y-17121746D01*
X14262801Y-17121746D02*
X14272325Y-17074127D01*
X14272325Y-17074127D02*
X14281849Y-17045555D01*
X14281849Y-17045555D02*
X14291372Y-17026508D01*
X14291372Y-17026508D02*
X14310420Y-16997936D01*
X14310420Y-16997936D02*
X14319944Y-16988412D01*
X14396134Y-17083650D02*
X14396134Y-17216984D01*
X14396134Y-17102698D02*
X14405658Y-17093174D01*
X14405658Y-17093174D02*
X14424706Y-17083650D01*
X14424706Y-17083650D02*
X14453277Y-17083650D01*
X14453277Y-17083650D02*
X14472325Y-17093174D01*
X14472325Y-17093174D02*
X14481849Y-17112222D01*
X14481849Y-17112222D02*
X14481849Y-17216984D01*
X14605658Y-17216984D02*
X14586611Y-17207460D01*
X14586611Y-17207460D02*
X14577087Y-17197936D01*
X14577087Y-17197936D02*
X14567563Y-17178889D01*
X14567563Y-17178889D02*
X14567563Y-17121746D01*
X14567563Y-17121746D02*
X14577087Y-17102698D01*
X14577087Y-17102698D02*
X14586611Y-17093174D01*
X14586611Y-17093174D02*
X14605658Y-17083650D01*
X14605658Y-17083650D02*
X14634230Y-17083650D01*
X14634230Y-17083650D02*
X14653277Y-17093174D01*
X14653277Y-17093174D02*
X14662801Y-17102698D01*
X14662801Y-17102698D02*
X14672325Y-17121746D01*
X14672325Y-17121746D02*
X14672325Y-17178889D01*
X14672325Y-17178889D02*
X14662801Y-17197936D01*
X14662801Y-17197936D02*
X14653277Y-17207460D01*
X14653277Y-17207460D02*
X14634230Y-17216984D01*
X14634230Y-17216984D02*
X14605658Y-17216984D01*
X14729468Y-17083650D02*
X14805658Y-17083650D01*
X14758039Y-17016984D02*
X14758039Y-17188412D01*
X14758039Y-17188412D02*
X14767563Y-17207460D01*
X14767563Y-17207460D02*
X14786611Y-17216984D01*
X14786611Y-17216984D02*
X14805658Y-17216984D01*
X15024706Y-17083650D02*
X15024706Y-17283650D01*
X15024706Y-17093174D02*
X15043753Y-17083650D01*
X15043753Y-17083650D02*
X15081849Y-17083650D01*
X15081849Y-17083650D02*
X15100896Y-17093174D01*
X15100896Y-17093174D02*
X15110420Y-17102698D01*
X15110420Y-17102698D02*
X15119944Y-17121746D01*
X15119944Y-17121746D02*
X15119944Y-17178889D01*
X15119944Y-17178889D02*
X15110420Y-17197936D01*
X15110420Y-17197936D02*
X15100896Y-17207460D01*
X15100896Y-17207460D02*
X15081849Y-17216984D01*
X15081849Y-17216984D02*
X15043753Y-17216984D01*
X15043753Y-17216984D02*
X15024706Y-17207460D01*
X15234230Y-17216984D02*
X15215182Y-17207460D01*
X15215182Y-17207460D02*
X15205658Y-17188412D01*
X15205658Y-17188412D02*
X15205658Y-17016984D01*
X15396134Y-17216984D02*
X15396134Y-17112222D01*
X15396134Y-17112222D02*
X15386611Y-17093174D01*
X15386611Y-17093174D02*
X15367563Y-17083650D01*
X15367563Y-17083650D02*
X15329468Y-17083650D01*
X15329468Y-17083650D02*
X15310420Y-17093174D01*
X15396134Y-17207460D02*
X15377087Y-17216984D01*
X15377087Y-17216984D02*
X15329468Y-17216984D01*
X15329468Y-17216984D02*
X15310420Y-17207460D01*
X15310420Y-17207460D02*
X15300896Y-17188412D01*
X15300896Y-17188412D02*
X15300896Y-17169365D01*
X15300896Y-17169365D02*
X15310420Y-17150317D01*
X15310420Y-17150317D02*
X15329468Y-17140793D01*
X15329468Y-17140793D02*
X15377087Y-17140793D01*
X15377087Y-17140793D02*
X15396134Y-17131270D01*
X15462801Y-17083650D02*
X15538992Y-17083650D01*
X15491373Y-17016984D02*
X15491373Y-17188412D01*
X15491373Y-17188412D02*
X15500896Y-17207460D01*
X15500896Y-17207460D02*
X15519944Y-17216984D01*
X15519944Y-17216984D02*
X15538992Y-17216984D01*
X15681849Y-17207460D02*
X15662801Y-17216984D01*
X15662801Y-17216984D02*
X15624706Y-17216984D01*
X15624706Y-17216984D02*
X15605658Y-17207460D01*
X15605658Y-17207460D02*
X15596134Y-17188412D01*
X15596134Y-17188412D02*
X15596134Y-17112222D01*
X15596134Y-17112222D02*
X15605658Y-17093174D01*
X15605658Y-17093174D02*
X15624706Y-17083650D01*
X15624706Y-17083650D02*
X15662801Y-17083650D01*
X15662801Y-17083650D02*
X15681849Y-17093174D01*
X15681849Y-17093174D02*
X15691373Y-17112222D01*
X15691373Y-17112222D02*
X15691373Y-17131270D01*
X15691373Y-17131270D02*
X15596134Y-17150317D01*
X15862801Y-17216984D02*
X15862801Y-17016984D01*
X15862801Y-17207460D02*
X15843754Y-17216984D01*
X15843754Y-17216984D02*
X15805658Y-17216984D01*
X15805658Y-17216984D02*
X15786611Y-17207460D01*
X15786611Y-17207460D02*
X15777087Y-17197936D01*
X15777087Y-17197936D02*
X15767563Y-17178889D01*
X15767563Y-17178889D02*
X15767563Y-17121746D01*
X15767563Y-17121746D02*
X15777087Y-17102698D01*
X15777087Y-17102698D02*
X15786611Y-17093174D01*
X15786611Y-17093174D02*
X15805658Y-17083650D01*
X15805658Y-17083650D02*
X15843754Y-17083650D01*
X15843754Y-17083650D02*
X15862801Y-17093174D01*
X15938992Y-17293174D02*
X15948515Y-17283650D01*
X15948515Y-17283650D02*
X15967563Y-17255079D01*
X15967563Y-17255079D02*
X15977087Y-17236031D01*
X15977087Y-17236031D02*
X15986611Y-17207460D01*
X15986611Y-17207460D02*
X15996134Y-17159841D01*
X15996134Y-17159841D02*
X15996134Y-17121746D01*
X15996134Y-17121746D02*
X15986611Y-17074127D01*
X15986611Y-17074127D02*
X15977087Y-17045555D01*
X15977087Y-17045555D02*
X15967563Y-17026508D01*
X15967563Y-17026508D02*
X15948515Y-16997936D01*
X15948515Y-16997936D02*
X15938992Y-16988412D01*
X8963211Y-17486391D02*
X8963211Y-17344969D01*
X8821789Y-17344969D01*
X8821789Y-17486391D01*
X8963211Y-17486391D01*
X9234229Y-17307164D02*
X9358039Y-17307164D01*
X9358039Y-17307164D02*
X9291372Y-17383354D01*
X9291372Y-17383354D02*
X9319944Y-17383354D01*
X9319944Y-17383354D02*
X9338991Y-17392878D01*
X9338991Y-17392878D02*
X9348515Y-17402402D01*
X9348515Y-17402402D02*
X9358039Y-17421450D01*
X9358039Y-17421450D02*
X9358039Y-17469069D01*
X9358039Y-17469069D02*
X9348515Y-17488116D01*
X9348515Y-17488116D02*
X9338991Y-17497640D01*
X9338991Y-17497640D02*
X9319944Y-17507164D01*
X9319944Y-17507164D02*
X9262801Y-17507164D01*
X9262801Y-17507164D02*
X9243753Y-17497640D01*
X9243753Y-17497640D02*
X9234229Y-17488116D01*
X9443753Y-17488116D02*
X9453277Y-17497640D01*
X9453277Y-17497640D02*
X9443753Y-17507164D01*
X9443753Y-17507164D02*
X9434229Y-17497640D01*
X9434229Y-17497640D02*
X9443753Y-17488116D01*
X9443753Y-17488116D02*
X9443753Y-17507164D01*
X9577086Y-17307164D02*
X9596134Y-17307164D01*
X9596134Y-17307164D02*
X9615182Y-17316688D01*
X9615182Y-17316688D02*
X9624705Y-17326211D01*
X9624705Y-17326211D02*
X9634229Y-17345259D01*
X9634229Y-17345259D02*
X9643753Y-17383354D01*
X9643753Y-17383354D02*
X9643753Y-17430973D01*
X9643753Y-17430973D02*
X9634229Y-17469069D01*
X9634229Y-17469069D02*
X9624705Y-17488116D01*
X9624705Y-17488116D02*
X9615182Y-17497640D01*
X9615182Y-17497640D02*
X9596134Y-17507164D01*
X9596134Y-17507164D02*
X9577086Y-17507164D01*
X9577086Y-17507164D02*
X9558039Y-17497640D01*
X9558039Y-17497640D02*
X9548515Y-17488116D01*
X9548515Y-17488116D02*
X9538991Y-17469069D01*
X9538991Y-17469069D02*
X9529467Y-17430973D01*
X9529467Y-17430973D02*
X9529467Y-17383354D01*
X9529467Y-17383354D02*
X9538991Y-17345259D01*
X9538991Y-17345259D02*
X9548515Y-17326211D01*
X9548515Y-17326211D02*
X9558039Y-17316688D01*
X9558039Y-17316688D02*
X9577086Y-17307164D01*
X9767563Y-17307164D02*
X9786610Y-17307164D01*
X9786610Y-17307164D02*
X9805658Y-17316688D01*
X9805658Y-17316688D02*
X9815182Y-17326211D01*
X9815182Y-17326211D02*
X9824705Y-17345259D01*
X9824705Y-17345259D02*
X9834229Y-17383354D01*
X9834229Y-17383354D02*
X9834229Y-17430973D01*
X9834229Y-17430973D02*
X9824705Y-17469069D01*
X9824705Y-17469069D02*
X9815182Y-17488116D01*
X9815182Y-17488116D02*
X9805658Y-17497640D01*
X9805658Y-17497640D02*
X9786610Y-17507164D01*
X9786610Y-17507164D02*
X9767563Y-17507164D01*
X9767563Y-17507164D02*
X9748515Y-17497640D01*
X9748515Y-17497640D02*
X9738991Y-17488116D01*
X9738991Y-17488116D02*
X9729467Y-17469069D01*
X9729467Y-17469069D02*
X9719944Y-17430973D01*
X9719944Y-17430973D02*
X9719944Y-17383354D01*
X9719944Y-17383354D02*
X9729467Y-17345259D01*
X9729467Y-17345259D02*
X9738991Y-17326211D01*
X9738991Y-17326211D02*
X9748515Y-17316688D01*
X9748515Y-17316688D02*
X9767563Y-17307164D01*
X9958039Y-17307164D02*
X9977086Y-17307164D01*
X9977086Y-17307164D02*
X9996134Y-17316688D01*
X9996134Y-17316688D02*
X10005658Y-17326211D01*
X10005658Y-17326211D02*
X10015182Y-17345259D01*
X10015182Y-17345259D02*
X10024705Y-17383354D01*
X10024705Y-17383354D02*
X10024705Y-17430973D01*
X10024705Y-17430973D02*
X10015182Y-17469069D01*
X10015182Y-17469069D02*
X10005658Y-17488116D01*
X10005658Y-17488116D02*
X9996134Y-17497640D01*
X9996134Y-17497640D02*
X9977086Y-17507164D01*
X9977086Y-17507164D02*
X9958039Y-17507164D01*
X9958039Y-17507164D02*
X9938991Y-17497640D01*
X9938991Y-17497640D02*
X9929467Y-17488116D01*
X9929467Y-17488116D02*
X9919944Y-17469069D01*
X9919944Y-17469069D02*
X9910420Y-17430973D01*
X9910420Y-17430973D02*
X9910420Y-17383354D01*
X9910420Y-17383354D02*
X9919944Y-17345259D01*
X9919944Y-17345259D02*
X9929467Y-17326211D01*
X9929467Y-17326211D02*
X9938991Y-17316688D01*
X9938991Y-17316688D02*
X9958039Y-17307164D01*
X10110420Y-17507164D02*
X10110420Y-17373830D01*
X10110420Y-17392878D02*
X10119944Y-17383354D01*
X10119944Y-17383354D02*
X10138991Y-17373830D01*
X10138991Y-17373830D02*
X10167563Y-17373830D01*
X10167563Y-17373830D02*
X10186610Y-17383354D01*
X10186610Y-17383354D02*
X10196134Y-17402402D01*
X10196134Y-17402402D02*
X10196134Y-17507164D01*
X10196134Y-17402402D02*
X10205658Y-17383354D01*
X10205658Y-17383354D02*
X10224705Y-17373830D01*
X10224705Y-17373830D02*
X10253277Y-17373830D01*
X10253277Y-17373830D02*
X10272325Y-17383354D01*
X10272325Y-17383354D02*
X10281848Y-17402402D01*
X10281848Y-17402402D02*
X10281848Y-17507164D01*
X10377086Y-17507164D02*
X10377086Y-17373830D01*
X10377086Y-17392878D02*
X10386610Y-17383354D01*
X10386610Y-17383354D02*
X10405658Y-17373830D01*
X10405658Y-17373830D02*
X10434229Y-17373830D01*
X10434229Y-17373830D02*
X10453277Y-17383354D01*
X10453277Y-17383354D02*
X10462801Y-17402402D01*
X10462801Y-17402402D02*
X10462801Y-17507164D01*
X10462801Y-17402402D02*
X10472325Y-17383354D01*
X10472325Y-17383354D02*
X10491372Y-17373830D01*
X10491372Y-17373830D02*
X10519944Y-17373830D01*
X10519944Y-17373830D02*
X10538991Y-17383354D01*
X10538991Y-17383354D02*
X10548515Y-17402402D01*
X10548515Y-17402402D02*
X10548515Y-17507164D01*
X10938991Y-17297640D02*
X10767563Y-17554783D01*
X11196134Y-17307164D02*
X11215182Y-17307164D01*
X11215182Y-17307164D02*
X11234229Y-17316688D01*
X11234229Y-17316688D02*
X11243753Y-17326211D01*
X11243753Y-17326211D02*
X11253277Y-17345259D01*
X11253277Y-17345259D02*
X11262801Y-17383354D01*
X11262801Y-17383354D02*
X11262801Y-17430973D01*
X11262801Y-17430973D02*
X11253277Y-17469069D01*
X11253277Y-17469069D02*
X11243753Y-17488116D01*
X11243753Y-17488116D02*
X11234229Y-17497640D01*
X11234229Y-17497640D02*
X11215182Y-17507164D01*
X11215182Y-17507164D02*
X11196134Y-17507164D01*
X11196134Y-17507164D02*
X11177087Y-17497640D01*
X11177087Y-17497640D02*
X11167563Y-17488116D01*
X11167563Y-17488116D02*
X11158039Y-17469069D01*
X11158039Y-17469069D02*
X11148515Y-17430973D01*
X11148515Y-17430973D02*
X11148515Y-17383354D01*
X11148515Y-17383354D02*
X11158039Y-17345259D01*
X11158039Y-17345259D02*
X11167563Y-17326211D01*
X11167563Y-17326211D02*
X11177087Y-17316688D01*
X11177087Y-17316688D02*
X11196134Y-17307164D01*
X11348515Y-17488116D02*
X11358039Y-17497640D01*
X11358039Y-17497640D02*
X11348515Y-17507164D01*
X11348515Y-17507164D02*
X11338991Y-17497640D01*
X11338991Y-17497640D02*
X11348515Y-17488116D01*
X11348515Y-17488116D02*
X11348515Y-17507164D01*
X11548515Y-17507164D02*
X11434229Y-17507164D01*
X11491372Y-17507164D02*
X11491372Y-17307164D01*
X11491372Y-17307164D02*
X11472325Y-17335735D01*
X11472325Y-17335735D02*
X11453277Y-17354783D01*
X11453277Y-17354783D02*
X11434229Y-17364307D01*
X11738991Y-17507164D02*
X11624706Y-17507164D01*
X11681848Y-17507164D02*
X11681848Y-17307164D01*
X11681848Y-17307164D02*
X11662801Y-17335735D01*
X11662801Y-17335735D02*
X11643753Y-17354783D01*
X11643753Y-17354783D02*
X11624706Y-17364307D01*
X11853277Y-17392878D02*
X11834229Y-17383354D01*
X11834229Y-17383354D02*
X11824706Y-17373830D01*
X11824706Y-17373830D02*
X11815182Y-17354783D01*
X11815182Y-17354783D02*
X11815182Y-17345259D01*
X11815182Y-17345259D02*
X11824706Y-17326211D01*
X11824706Y-17326211D02*
X11834229Y-17316688D01*
X11834229Y-17316688D02*
X11853277Y-17307164D01*
X11853277Y-17307164D02*
X11891372Y-17307164D01*
X11891372Y-17307164D02*
X11910420Y-17316688D01*
X11910420Y-17316688D02*
X11919944Y-17326211D01*
X11919944Y-17326211D02*
X11929467Y-17345259D01*
X11929467Y-17345259D02*
X11929467Y-17354783D01*
X11929467Y-17354783D02*
X11919944Y-17373830D01*
X11919944Y-17373830D02*
X11910420Y-17383354D01*
X11910420Y-17383354D02*
X11891372Y-17392878D01*
X11891372Y-17392878D02*
X11853277Y-17392878D01*
X11853277Y-17392878D02*
X11834229Y-17402402D01*
X11834229Y-17402402D02*
X11824706Y-17411926D01*
X11824706Y-17411926D02*
X11815182Y-17430973D01*
X11815182Y-17430973D02*
X11815182Y-17469069D01*
X11815182Y-17469069D02*
X11824706Y-17488116D01*
X11824706Y-17488116D02*
X11834229Y-17497640D01*
X11834229Y-17497640D02*
X11853277Y-17507164D01*
X11853277Y-17507164D02*
X11891372Y-17507164D01*
X11891372Y-17507164D02*
X11910420Y-17497640D01*
X11910420Y-17497640D02*
X11919944Y-17488116D01*
X11919944Y-17488116D02*
X11929467Y-17469069D01*
X11929467Y-17469069D02*
X11929467Y-17430973D01*
X11929467Y-17430973D02*
X11919944Y-17411926D01*
X11919944Y-17411926D02*
X11910420Y-17402402D01*
X11910420Y-17402402D02*
X11891372Y-17392878D01*
X12119944Y-17507164D02*
X12005658Y-17507164D01*
X12062801Y-17507164D02*
X12062801Y-17307164D01*
X12062801Y-17307164D02*
X12043753Y-17335735D01*
X12043753Y-17335735D02*
X12024706Y-17354783D01*
X12024706Y-17354783D02*
X12005658Y-17364307D01*
X12196134Y-17307164D02*
X12196134Y-17345259D01*
X12272325Y-17307164D02*
X12272325Y-17345259D01*
X12567563Y-17583354D02*
X12558039Y-17573830D01*
X12558039Y-17573830D02*
X12538991Y-17545259D01*
X12538991Y-17545259D02*
X12529468Y-17526211D01*
X12529468Y-17526211D02*
X12519944Y-17497640D01*
X12519944Y-17497640D02*
X12510420Y-17450021D01*
X12510420Y-17450021D02*
X12510420Y-17411926D01*
X12510420Y-17411926D02*
X12519944Y-17364307D01*
X12519944Y-17364307D02*
X12529468Y-17335735D01*
X12529468Y-17335735D02*
X12538991Y-17316688D01*
X12538991Y-17316688D02*
X12558039Y-17288116D01*
X12558039Y-17288116D02*
X12567563Y-17278592D01*
X12729468Y-17373830D02*
X12729468Y-17507164D01*
X12681848Y-17297640D02*
X12634229Y-17440497D01*
X12634229Y-17440497D02*
X12758039Y-17440497D01*
X12919944Y-17307164D02*
X12881848Y-17307164D01*
X12881848Y-17307164D02*
X12862801Y-17316688D01*
X12862801Y-17316688D02*
X12853277Y-17326211D01*
X12853277Y-17326211D02*
X12834229Y-17354783D01*
X12834229Y-17354783D02*
X12824706Y-17392878D01*
X12824706Y-17392878D02*
X12824706Y-17469069D01*
X12824706Y-17469069D02*
X12834229Y-17488116D01*
X12834229Y-17488116D02*
X12843753Y-17497640D01*
X12843753Y-17497640D02*
X12862801Y-17507164D01*
X12862801Y-17507164D02*
X12900896Y-17507164D01*
X12900896Y-17507164D02*
X12919944Y-17497640D01*
X12919944Y-17497640D02*
X12929468Y-17488116D01*
X12929468Y-17488116D02*
X12938991Y-17469069D01*
X12938991Y-17469069D02*
X12938991Y-17421450D01*
X12938991Y-17421450D02*
X12929468Y-17402402D01*
X12929468Y-17402402D02*
X12919944Y-17392878D01*
X12919944Y-17392878D02*
X12900896Y-17383354D01*
X12900896Y-17383354D02*
X12862801Y-17383354D01*
X12862801Y-17383354D02*
X12843753Y-17392878D01*
X12843753Y-17392878D02*
X12834229Y-17402402D01*
X12834229Y-17402402D02*
X12824706Y-17421450D01*
X13177087Y-17507164D02*
X13177087Y-17307164D01*
X13262801Y-17507164D02*
X13262801Y-17402402D01*
X13262801Y-17402402D02*
X13253277Y-17383354D01*
X13253277Y-17383354D02*
X13234230Y-17373830D01*
X13234230Y-17373830D02*
X13205658Y-17373830D01*
X13205658Y-17373830D02*
X13186610Y-17383354D01*
X13186610Y-17383354D02*
X13177087Y-17392878D01*
X13386610Y-17507164D02*
X13367563Y-17497640D01*
X13367563Y-17497640D02*
X13358039Y-17488116D01*
X13358039Y-17488116D02*
X13348515Y-17469069D01*
X13348515Y-17469069D02*
X13348515Y-17411926D01*
X13348515Y-17411926D02*
X13358039Y-17392878D01*
X13358039Y-17392878D02*
X13367563Y-17383354D01*
X13367563Y-17383354D02*
X13386610Y-17373830D01*
X13386610Y-17373830D02*
X13415182Y-17373830D01*
X13415182Y-17373830D02*
X13434230Y-17383354D01*
X13434230Y-17383354D02*
X13443753Y-17392878D01*
X13443753Y-17392878D02*
X13453277Y-17411926D01*
X13453277Y-17411926D02*
X13453277Y-17469069D01*
X13453277Y-17469069D02*
X13443753Y-17488116D01*
X13443753Y-17488116D02*
X13434230Y-17497640D01*
X13434230Y-17497640D02*
X13415182Y-17507164D01*
X13415182Y-17507164D02*
X13386610Y-17507164D01*
X13567563Y-17507164D02*
X13548515Y-17497640D01*
X13548515Y-17497640D02*
X13538991Y-17478592D01*
X13538991Y-17478592D02*
X13538991Y-17307164D01*
X13719944Y-17497640D02*
X13700896Y-17507164D01*
X13700896Y-17507164D02*
X13662801Y-17507164D01*
X13662801Y-17507164D02*
X13643753Y-17497640D01*
X13643753Y-17497640D02*
X13634230Y-17478592D01*
X13634230Y-17478592D02*
X13634230Y-17402402D01*
X13634230Y-17402402D02*
X13643753Y-17383354D01*
X13643753Y-17383354D02*
X13662801Y-17373830D01*
X13662801Y-17373830D02*
X13700896Y-17373830D01*
X13700896Y-17373830D02*
X13719944Y-17383354D01*
X13719944Y-17383354D02*
X13729468Y-17402402D01*
X13729468Y-17402402D02*
X13729468Y-17421450D01*
X13729468Y-17421450D02*
X13634230Y-17440497D01*
X13805658Y-17497640D02*
X13824706Y-17507164D01*
X13824706Y-17507164D02*
X13862801Y-17507164D01*
X13862801Y-17507164D02*
X13881849Y-17497640D01*
X13881849Y-17497640D02*
X13891372Y-17478592D01*
X13891372Y-17478592D02*
X13891372Y-17469069D01*
X13891372Y-17469069D02*
X13881849Y-17450021D01*
X13881849Y-17450021D02*
X13862801Y-17440497D01*
X13862801Y-17440497D02*
X13834230Y-17440497D01*
X13834230Y-17440497D02*
X13815182Y-17430973D01*
X13815182Y-17430973D02*
X13805658Y-17411926D01*
X13805658Y-17411926D02*
X13805658Y-17402402D01*
X13805658Y-17402402D02*
X13815182Y-17383354D01*
X13815182Y-17383354D02*
X13834230Y-17373830D01*
X13834230Y-17373830D02*
X13862801Y-17373830D01*
X13862801Y-17373830D02*
X13881849Y-17383354D01*
X13958039Y-17583354D02*
X13967563Y-17573830D01*
X13967563Y-17573830D02*
X13986611Y-17545259D01*
X13986611Y-17545259D02*
X13996134Y-17526211D01*
X13996134Y-17526211D02*
X14005658Y-17497640D01*
X14005658Y-17497640D02*
X14015182Y-17450021D01*
X14015182Y-17450021D02*
X14015182Y-17411926D01*
X14015182Y-17411926D02*
X14005658Y-17364307D01*
X14005658Y-17364307D02*
X13996134Y-17335735D01*
X13996134Y-17335735D02*
X13986611Y-17316688D01*
X13986611Y-17316688D02*
X13967563Y-17288116D01*
X13967563Y-17288116D02*
X13958039Y-17278592D01*
X14319944Y-17583354D02*
X14310420Y-17573830D01*
X14310420Y-17573830D02*
X14291372Y-17545259D01*
X14291372Y-17545259D02*
X14281849Y-17526211D01*
X14281849Y-17526211D02*
X14272325Y-17497640D01*
X14272325Y-17497640D02*
X14262801Y-17450021D01*
X14262801Y-17450021D02*
X14262801Y-17411926D01*
X14262801Y-17411926D02*
X14272325Y-17364307D01*
X14272325Y-17364307D02*
X14281849Y-17335735D01*
X14281849Y-17335735D02*
X14291372Y-17316688D01*
X14291372Y-17316688D02*
X14310420Y-17288116D01*
X14310420Y-17288116D02*
X14319944Y-17278592D01*
X14396134Y-17373830D02*
X14396134Y-17507164D01*
X14396134Y-17392878D02*
X14405658Y-17383354D01*
X14405658Y-17383354D02*
X14424706Y-17373830D01*
X14424706Y-17373830D02*
X14453277Y-17373830D01*
X14453277Y-17373830D02*
X14472325Y-17383354D01*
X14472325Y-17383354D02*
X14481849Y-17402402D01*
X14481849Y-17402402D02*
X14481849Y-17507164D01*
X14605658Y-17507164D02*
X14586611Y-17497640D01*
X14586611Y-17497640D02*
X14577087Y-17488116D01*
X14577087Y-17488116D02*
X14567563Y-17469069D01*
X14567563Y-17469069D02*
X14567563Y-17411926D01*
X14567563Y-17411926D02*
X14577087Y-17392878D01*
X14577087Y-17392878D02*
X14586611Y-17383354D01*
X14586611Y-17383354D02*
X14605658Y-17373830D01*
X14605658Y-17373830D02*
X14634230Y-17373830D01*
X14634230Y-17373830D02*
X14653277Y-17383354D01*
X14653277Y-17383354D02*
X14662801Y-17392878D01*
X14662801Y-17392878D02*
X14672325Y-17411926D01*
X14672325Y-17411926D02*
X14672325Y-17469069D01*
X14672325Y-17469069D02*
X14662801Y-17488116D01*
X14662801Y-17488116D02*
X14653277Y-17497640D01*
X14653277Y-17497640D02*
X14634230Y-17507164D01*
X14634230Y-17507164D02*
X14605658Y-17507164D01*
X14729468Y-17373830D02*
X14805658Y-17373830D01*
X14758039Y-17307164D02*
X14758039Y-17478592D01*
X14758039Y-17478592D02*
X14767563Y-17497640D01*
X14767563Y-17497640D02*
X14786611Y-17507164D01*
X14786611Y-17507164D02*
X14805658Y-17507164D01*
X15024706Y-17373830D02*
X15024706Y-17573830D01*
X15024706Y-17383354D02*
X15043753Y-17373830D01*
X15043753Y-17373830D02*
X15081849Y-17373830D01*
X15081849Y-17373830D02*
X15100896Y-17383354D01*
X15100896Y-17383354D02*
X15110420Y-17392878D01*
X15110420Y-17392878D02*
X15119944Y-17411926D01*
X15119944Y-17411926D02*
X15119944Y-17469069D01*
X15119944Y-17469069D02*
X15110420Y-17488116D01*
X15110420Y-17488116D02*
X15100896Y-17497640D01*
X15100896Y-17497640D02*
X15081849Y-17507164D01*
X15081849Y-17507164D02*
X15043753Y-17507164D01*
X15043753Y-17507164D02*
X15024706Y-17497640D01*
X15234230Y-17507164D02*
X15215182Y-17497640D01*
X15215182Y-17497640D02*
X15205658Y-17478592D01*
X15205658Y-17478592D02*
X15205658Y-17307164D01*
X15396134Y-17507164D02*
X15396134Y-17402402D01*
X15396134Y-17402402D02*
X15386611Y-17383354D01*
X15386611Y-17383354D02*
X15367563Y-17373830D01*
X15367563Y-17373830D02*
X15329468Y-17373830D01*
X15329468Y-17373830D02*
X15310420Y-17383354D01*
X15396134Y-17497640D02*
X15377087Y-17507164D01*
X15377087Y-17507164D02*
X15329468Y-17507164D01*
X15329468Y-17507164D02*
X15310420Y-17497640D01*
X15310420Y-17497640D02*
X15300896Y-17478592D01*
X15300896Y-17478592D02*
X15300896Y-17459545D01*
X15300896Y-17459545D02*
X15310420Y-17440497D01*
X15310420Y-17440497D02*
X15329468Y-17430973D01*
X15329468Y-17430973D02*
X15377087Y-17430973D01*
X15377087Y-17430973D02*
X15396134Y-17421450D01*
X15462801Y-17373830D02*
X15538992Y-17373830D01*
X15491373Y-17307164D02*
X15491373Y-17478592D01*
X15491373Y-17478592D02*
X15500896Y-17497640D01*
X15500896Y-17497640D02*
X15519944Y-17507164D01*
X15519944Y-17507164D02*
X15538992Y-17507164D01*
X15681849Y-17497640D02*
X15662801Y-17507164D01*
X15662801Y-17507164D02*
X15624706Y-17507164D01*
X15624706Y-17507164D02*
X15605658Y-17497640D01*
X15605658Y-17497640D02*
X15596134Y-17478592D01*
X15596134Y-17478592D02*
X15596134Y-17402402D01*
X15596134Y-17402402D02*
X15605658Y-17383354D01*
X15605658Y-17383354D02*
X15624706Y-17373830D01*
X15624706Y-17373830D02*
X15662801Y-17373830D01*
X15662801Y-17373830D02*
X15681849Y-17383354D01*
X15681849Y-17383354D02*
X15691373Y-17402402D01*
X15691373Y-17402402D02*
X15691373Y-17421450D01*
X15691373Y-17421450D02*
X15596134Y-17440497D01*
X15862801Y-17507164D02*
X15862801Y-17307164D01*
X15862801Y-17497640D02*
X15843754Y-17507164D01*
X15843754Y-17507164D02*
X15805658Y-17507164D01*
X15805658Y-17507164D02*
X15786611Y-17497640D01*
X15786611Y-17497640D02*
X15777087Y-17488116D01*
X15777087Y-17488116D02*
X15767563Y-17469069D01*
X15767563Y-17469069D02*
X15767563Y-17411926D01*
X15767563Y-17411926D02*
X15777087Y-17392878D01*
X15777087Y-17392878D02*
X15786611Y-17383354D01*
X15786611Y-17383354D02*
X15805658Y-17373830D01*
X15805658Y-17373830D02*
X15843754Y-17373830D01*
X15843754Y-17373830D02*
X15862801Y-17383354D01*
X15938992Y-17583354D02*
X15948515Y-17573830D01*
X15948515Y-17573830D02*
X15967563Y-17545259D01*
X15967563Y-17545259D02*
X15977087Y-17526211D01*
X15977087Y-17526211D02*
X15986611Y-17497640D01*
X15986611Y-17497640D02*
X15996134Y-17450021D01*
X15996134Y-17450021D02*
X15996134Y-17411926D01*
X15996134Y-17411926D02*
X15986611Y-17364307D01*
X15986611Y-17364307D02*
X15977087Y-17335735D01*
X15977087Y-17335735D02*
X15967563Y-17316688D01*
X15967563Y-17316688D02*
X15948515Y-17288116D01*
X15948515Y-17288116D02*
X15938992Y-17278592D01*
X8892500Y-17835680D02*
X8992500Y-17735680D01*
X8892500Y-17635680D01*
X8792500Y-17735680D01*
X8892500Y-17835680D01*
X9234229Y-17627164D02*
X9358039Y-17627164D01*
X9358039Y-17627164D02*
X9291372Y-17703354D01*
X9291372Y-17703354D02*
X9319944Y-17703354D01*
X9319944Y-17703354D02*
X9338991Y-17712878D01*
X9338991Y-17712878D02*
X9348515Y-17722402D01*
X9348515Y-17722402D02*
X9358039Y-17741450D01*
X9358039Y-17741450D02*
X9358039Y-17789069D01*
X9358039Y-17789069D02*
X9348515Y-17808116D01*
X9348515Y-17808116D02*
X9338991Y-17817640D01*
X9338991Y-17817640D02*
X9319944Y-17827164D01*
X9319944Y-17827164D02*
X9262801Y-17827164D01*
X9262801Y-17827164D02*
X9243753Y-17817640D01*
X9243753Y-17817640D02*
X9234229Y-17808116D01*
X9443753Y-17808116D02*
X9453277Y-17817640D01*
X9453277Y-17817640D02*
X9443753Y-17827164D01*
X9443753Y-17827164D02*
X9434229Y-17817640D01*
X9434229Y-17817640D02*
X9443753Y-17808116D01*
X9443753Y-17808116D02*
X9443753Y-17827164D01*
X9624705Y-17693830D02*
X9624705Y-17827164D01*
X9577086Y-17617640D02*
X9529467Y-17760497D01*
X9529467Y-17760497D02*
X9653277Y-17760497D01*
X9719944Y-17646211D02*
X9729467Y-17636688D01*
X9729467Y-17636688D02*
X9748515Y-17627164D01*
X9748515Y-17627164D02*
X9796134Y-17627164D01*
X9796134Y-17627164D02*
X9815182Y-17636688D01*
X9815182Y-17636688D02*
X9824705Y-17646211D01*
X9824705Y-17646211D02*
X9834229Y-17665259D01*
X9834229Y-17665259D02*
X9834229Y-17684307D01*
X9834229Y-17684307D02*
X9824705Y-17712878D01*
X9824705Y-17712878D02*
X9710420Y-17827164D01*
X9710420Y-17827164D02*
X9834229Y-17827164D01*
X9929467Y-17827164D02*
X9967563Y-17827164D01*
X9967563Y-17827164D02*
X9986610Y-17817640D01*
X9986610Y-17817640D02*
X9996134Y-17808116D01*
X9996134Y-17808116D02*
X10015182Y-17779545D01*
X10015182Y-17779545D02*
X10024705Y-17741450D01*
X10024705Y-17741450D02*
X10024705Y-17665259D01*
X10024705Y-17665259D02*
X10015182Y-17646211D01*
X10015182Y-17646211D02*
X10005658Y-17636688D01*
X10005658Y-17636688D02*
X9986610Y-17627164D01*
X9986610Y-17627164D02*
X9948515Y-17627164D01*
X9948515Y-17627164D02*
X9929467Y-17636688D01*
X9929467Y-17636688D02*
X9919944Y-17646211D01*
X9919944Y-17646211D02*
X9910420Y-17665259D01*
X9910420Y-17665259D02*
X9910420Y-17712878D01*
X9910420Y-17712878D02*
X9919944Y-17731926D01*
X9919944Y-17731926D02*
X9929467Y-17741450D01*
X9929467Y-17741450D02*
X9948515Y-17750973D01*
X9948515Y-17750973D02*
X9986610Y-17750973D01*
X9986610Y-17750973D02*
X10005658Y-17741450D01*
X10005658Y-17741450D02*
X10015182Y-17731926D01*
X10015182Y-17731926D02*
X10024705Y-17712878D01*
X10110420Y-17827164D02*
X10110420Y-17693830D01*
X10110420Y-17712878D02*
X10119944Y-17703354D01*
X10119944Y-17703354D02*
X10138991Y-17693830D01*
X10138991Y-17693830D02*
X10167563Y-17693830D01*
X10167563Y-17693830D02*
X10186610Y-17703354D01*
X10186610Y-17703354D02*
X10196134Y-17722402D01*
X10196134Y-17722402D02*
X10196134Y-17827164D01*
X10196134Y-17722402D02*
X10205658Y-17703354D01*
X10205658Y-17703354D02*
X10224705Y-17693830D01*
X10224705Y-17693830D02*
X10253277Y-17693830D01*
X10253277Y-17693830D02*
X10272325Y-17703354D01*
X10272325Y-17703354D02*
X10281848Y-17722402D01*
X10281848Y-17722402D02*
X10281848Y-17827164D01*
X10377086Y-17827164D02*
X10377086Y-17693830D01*
X10377086Y-17712878D02*
X10386610Y-17703354D01*
X10386610Y-17703354D02*
X10405658Y-17693830D01*
X10405658Y-17693830D02*
X10434229Y-17693830D01*
X10434229Y-17693830D02*
X10453277Y-17703354D01*
X10453277Y-17703354D02*
X10462801Y-17722402D01*
X10462801Y-17722402D02*
X10462801Y-17827164D01*
X10462801Y-17722402D02*
X10472325Y-17703354D01*
X10472325Y-17703354D02*
X10491372Y-17693830D01*
X10491372Y-17693830D02*
X10519944Y-17693830D01*
X10519944Y-17693830D02*
X10538991Y-17703354D01*
X10538991Y-17703354D02*
X10548515Y-17722402D01*
X10548515Y-17722402D02*
X10548515Y-17827164D01*
X10938991Y-17617640D02*
X10767563Y-17874783D01*
X11196134Y-17627164D02*
X11215182Y-17627164D01*
X11215182Y-17627164D02*
X11234229Y-17636688D01*
X11234229Y-17636688D02*
X11243753Y-17646211D01*
X11243753Y-17646211D02*
X11253277Y-17665259D01*
X11253277Y-17665259D02*
X11262801Y-17703354D01*
X11262801Y-17703354D02*
X11262801Y-17750973D01*
X11262801Y-17750973D02*
X11253277Y-17789069D01*
X11253277Y-17789069D02*
X11243753Y-17808116D01*
X11243753Y-17808116D02*
X11234229Y-17817640D01*
X11234229Y-17817640D02*
X11215182Y-17827164D01*
X11215182Y-17827164D02*
X11196134Y-17827164D01*
X11196134Y-17827164D02*
X11177087Y-17817640D01*
X11177087Y-17817640D02*
X11167563Y-17808116D01*
X11167563Y-17808116D02*
X11158039Y-17789069D01*
X11158039Y-17789069D02*
X11148515Y-17750973D01*
X11148515Y-17750973D02*
X11148515Y-17703354D01*
X11148515Y-17703354D02*
X11158039Y-17665259D01*
X11158039Y-17665259D02*
X11167563Y-17646211D01*
X11167563Y-17646211D02*
X11177087Y-17636688D01*
X11177087Y-17636688D02*
X11196134Y-17627164D01*
X11348515Y-17808116D02*
X11358039Y-17817640D01*
X11358039Y-17817640D02*
X11348515Y-17827164D01*
X11348515Y-17827164D02*
X11338991Y-17817640D01*
X11338991Y-17817640D02*
X11348515Y-17808116D01*
X11348515Y-17808116D02*
X11348515Y-17827164D01*
X11548515Y-17827164D02*
X11434229Y-17827164D01*
X11491372Y-17827164D02*
X11491372Y-17627164D01*
X11491372Y-17627164D02*
X11472325Y-17655735D01*
X11472325Y-17655735D02*
X11453277Y-17674783D01*
X11453277Y-17674783D02*
X11434229Y-17684307D01*
X11615182Y-17627164D02*
X11738991Y-17627164D01*
X11738991Y-17627164D02*
X11672325Y-17703354D01*
X11672325Y-17703354D02*
X11700896Y-17703354D01*
X11700896Y-17703354D02*
X11719944Y-17712878D01*
X11719944Y-17712878D02*
X11729467Y-17722402D01*
X11729467Y-17722402D02*
X11738991Y-17741450D01*
X11738991Y-17741450D02*
X11738991Y-17789069D01*
X11738991Y-17789069D02*
X11729467Y-17808116D01*
X11729467Y-17808116D02*
X11719944Y-17817640D01*
X11719944Y-17817640D02*
X11700896Y-17827164D01*
X11700896Y-17827164D02*
X11643753Y-17827164D01*
X11643753Y-17827164D02*
X11624706Y-17817640D01*
X11624706Y-17817640D02*
X11615182Y-17808116D01*
X11919944Y-17627164D02*
X11824706Y-17627164D01*
X11824706Y-17627164D02*
X11815182Y-17722402D01*
X11815182Y-17722402D02*
X11824706Y-17712878D01*
X11824706Y-17712878D02*
X11843753Y-17703354D01*
X11843753Y-17703354D02*
X11891372Y-17703354D01*
X11891372Y-17703354D02*
X11910420Y-17712878D01*
X11910420Y-17712878D02*
X11919944Y-17722402D01*
X11919944Y-17722402D02*
X11929467Y-17741450D01*
X11929467Y-17741450D02*
X11929467Y-17789069D01*
X11929467Y-17789069D02*
X11919944Y-17808116D01*
X11919944Y-17808116D02*
X11910420Y-17817640D01*
X11910420Y-17817640D02*
X11891372Y-17827164D01*
X11891372Y-17827164D02*
X11843753Y-17827164D01*
X11843753Y-17827164D02*
X11824706Y-17817640D01*
X11824706Y-17817640D02*
X11815182Y-17808116D01*
X12053277Y-17627164D02*
X12072325Y-17627164D01*
X12072325Y-17627164D02*
X12091372Y-17636688D01*
X12091372Y-17636688D02*
X12100896Y-17646211D01*
X12100896Y-17646211D02*
X12110420Y-17665259D01*
X12110420Y-17665259D02*
X12119944Y-17703354D01*
X12119944Y-17703354D02*
X12119944Y-17750973D01*
X12119944Y-17750973D02*
X12110420Y-17789069D01*
X12110420Y-17789069D02*
X12100896Y-17808116D01*
X12100896Y-17808116D02*
X12091372Y-17817640D01*
X12091372Y-17817640D02*
X12072325Y-17827164D01*
X12072325Y-17827164D02*
X12053277Y-17827164D01*
X12053277Y-17827164D02*
X12034229Y-17817640D01*
X12034229Y-17817640D02*
X12024706Y-17808116D01*
X12024706Y-17808116D02*
X12015182Y-17789069D01*
X12015182Y-17789069D02*
X12005658Y-17750973D01*
X12005658Y-17750973D02*
X12005658Y-17703354D01*
X12005658Y-17703354D02*
X12015182Y-17665259D01*
X12015182Y-17665259D02*
X12024706Y-17646211D01*
X12024706Y-17646211D02*
X12034229Y-17636688D01*
X12034229Y-17636688D02*
X12053277Y-17627164D01*
X12196134Y-17627164D02*
X12196134Y-17665259D01*
X12272325Y-17627164D02*
X12272325Y-17665259D01*
X12567563Y-17903354D02*
X12558039Y-17893830D01*
X12558039Y-17893830D02*
X12538991Y-17865259D01*
X12538991Y-17865259D02*
X12529468Y-17846211D01*
X12529468Y-17846211D02*
X12519944Y-17817640D01*
X12519944Y-17817640D02*
X12510420Y-17770021D01*
X12510420Y-17770021D02*
X12510420Y-17731926D01*
X12510420Y-17731926D02*
X12519944Y-17684307D01*
X12519944Y-17684307D02*
X12529468Y-17655735D01*
X12529468Y-17655735D02*
X12538991Y-17636688D01*
X12538991Y-17636688D02*
X12558039Y-17608116D01*
X12558039Y-17608116D02*
X12567563Y-17598592D01*
X12634229Y-17646211D02*
X12643753Y-17636688D01*
X12643753Y-17636688D02*
X12662801Y-17627164D01*
X12662801Y-17627164D02*
X12710420Y-17627164D01*
X12710420Y-17627164D02*
X12729468Y-17636688D01*
X12729468Y-17636688D02*
X12738991Y-17646211D01*
X12738991Y-17646211D02*
X12748515Y-17665259D01*
X12748515Y-17665259D02*
X12748515Y-17684307D01*
X12748515Y-17684307D02*
X12738991Y-17712878D01*
X12738991Y-17712878D02*
X12624706Y-17827164D01*
X12624706Y-17827164D02*
X12748515Y-17827164D01*
X12815182Y-17627164D02*
X12938991Y-17627164D01*
X12938991Y-17627164D02*
X12872325Y-17703354D01*
X12872325Y-17703354D02*
X12900896Y-17703354D01*
X12900896Y-17703354D02*
X12919944Y-17712878D01*
X12919944Y-17712878D02*
X12929468Y-17722402D01*
X12929468Y-17722402D02*
X12938991Y-17741450D01*
X12938991Y-17741450D02*
X12938991Y-17789069D01*
X12938991Y-17789069D02*
X12929468Y-17808116D01*
X12929468Y-17808116D02*
X12919944Y-17817640D01*
X12919944Y-17817640D02*
X12900896Y-17827164D01*
X12900896Y-17827164D02*
X12843753Y-17827164D01*
X12843753Y-17827164D02*
X12824706Y-17817640D01*
X12824706Y-17817640D02*
X12815182Y-17808116D01*
X13177087Y-17827164D02*
X13177087Y-17627164D01*
X13262801Y-17827164D02*
X13262801Y-17722402D01*
X13262801Y-17722402D02*
X13253277Y-17703354D01*
X13253277Y-17703354D02*
X13234230Y-17693830D01*
X13234230Y-17693830D02*
X13205658Y-17693830D01*
X13205658Y-17693830D02*
X13186610Y-17703354D01*
X13186610Y-17703354D02*
X13177087Y-17712878D01*
X13386610Y-17827164D02*
X13367563Y-17817640D01*
X13367563Y-17817640D02*
X13358039Y-17808116D01*
X13358039Y-17808116D02*
X13348515Y-17789069D01*
X13348515Y-17789069D02*
X13348515Y-17731926D01*
X13348515Y-17731926D02*
X13358039Y-17712878D01*
X13358039Y-17712878D02*
X13367563Y-17703354D01*
X13367563Y-17703354D02*
X13386610Y-17693830D01*
X13386610Y-17693830D02*
X13415182Y-17693830D01*
X13415182Y-17693830D02*
X13434230Y-17703354D01*
X13434230Y-17703354D02*
X13443753Y-17712878D01*
X13443753Y-17712878D02*
X13453277Y-17731926D01*
X13453277Y-17731926D02*
X13453277Y-17789069D01*
X13453277Y-17789069D02*
X13443753Y-17808116D01*
X13443753Y-17808116D02*
X13434230Y-17817640D01*
X13434230Y-17817640D02*
X13415182Y-17827164D01*
X13415182Y-17827164D02*
X13386610Y-17827164D01*
X13567563Y-17827164D02*
X13548515Y-17817640D01*
X13548515Y-17817640D02*
X13538991Y-17798592D01*
X13538991Y-17798592D02*
X13538991Y-17627164D01*
X13719944Y-17817640D02*
X13700896Y-17827164D01*
X13700896Y-17827164D02*
X13662801Y-17827164D01*
X13662801Y-17827164D02*
X13643753Y-17817640D01*
X13643753Y-17817640D02*
X13634230Y-17798592D01*
X13634230Y-17798592D02*
X13634230Y-17722402D01*
X13634230Y-17722402D02*
X13643753Y-17703354D01*
X13643753Y-17703354D02*
X13662801Y-17693830D01*
X13662801Y-17693830D02*
X13700896Y-17693830D01*
X13700896Y-17693830D02*
X13719944Y-17703354D01*
X13719944Y-17703354D02*
X13729468Y-17722402D01*
X13729468Y-17722402D02*
X13729468Y-17741450D01*
X13729468Y-17741450D02*
X13634230Y-17760497D01*
X13805658Y-17817640D02*
X13824706Y-17827164D01*
X13824706Y-17827164D02*
X13862801Y-17827164D01*
X13862801Y-17827164D02*
X13881849Y-17817640D01*
X13881849Y-17817640D02*
X13891372Y-17798592D01*
X13891372Y-17798592D02*
X13891372Y-17789069D01*
X13891372Y-17789069D02*
X13881849Y-17770021D01*
X13881849Y-17770021D02*
X13862801Y-17760497D01*
X13862801Y-17760497D02*
X13834230Y-17760497D01*
X13834230Y-17760497D02*
X13815182Y-17750973D01*
X13815182Y-17750973D02*
X13805658Y-17731926D01*
X13805658Y-17731926D02*
X13805658Y-17722402D01*
X13805658Y-17722402D02*
X13815182Y-17703354D01*
X13815182Y-17703354D02*
X13834230Y-17693830D01*
X13834230Y-17693830D02*
X13862801Y-17693830D01*
X13862801Y-17693830D02*
X13881849Y-17703354D01*
X13958039Y-17903354D02*
X13967563Y-17893830D01*
X13967563Y-17893830D02*
X13986611Y-17865259D01*
X13986611Y-17865259D02*
X13996134Y-17846211D01*
X13996134Y-17846211D02*
X14005658Y-17817640D01*
X14005658Y-17817640D02*
X14015182Y-17770021D01*
X14015182Y-17770021D02*
X14015182Y-17731926D01*
X14015182Y-17731926D02*
X14005658Y-17684307D01*
X14005658Y-17684307D02*
X13996134Y-17655735D01*
X13996134Y-17655735D02*
X13986611Y-17636688D01*
X13986611Y-17636688D02*
X13967563Y-17608116D01*
X13967563Y-17608116D02*
X13958039Y-17598592D01*
X14319944Y-17903354D02*
X14310420Y-17893830D01*
X14310420Y-17893830D02*
X14291372Y-17865259D01*
X14291372Y-17865259D02*
X14281849Y-17846211D01*
X14281849Y-17846211D02*
X14272325Y-17817640D01*
X14272325Y-17817640D02*
X14262801Y-17770021D01*
X14262801Y-17770021D02*
X14262801Y-17731926D01*
X14262801Y-17731926D02*
X14272325Y-17684307D01*
X14272325Y-17684307D02*
X14281849Y-17655735D01*
X14281849Y-17655735D02*
X14291372Y-17636688D01*
X14291372Y-17636688D02*
X14310420Y-17608116D01*
X14310420Y-17608116D02*
X14319944Y-17598592D01*
X14396134Y-17693830D02*
X14396134Y-17827164D01*
X14396134Y-17712878D02*
X14405658Y-17703354D01*
X14405658Y-17703354D02*
X14424706Y-17693830D01*
X14424706Y-17693830D02*
X14453277Y-17693830D01*
X14453277Y-17693830D02*
X14472325Y-17703354D01*
X14472325Y-17703354D02*
X14481849Y-17722402D01*
X14481849Y-17722402D02*
X14481849Y-17827164D01*
X14605658Y-17827164D02*
X14586611Y-17817640D01*
X14586611Y-17817640D02*
X14577087Y-17808116D01*
X14577087Y-17808116D02*
X14567563Y-17789069D01*
X14567563Y-17789069D02*
X14567563Y-17731926D01*
X14567563Y-17731926D02*
X14577087Y-17712878D01*
X14577087Y-17712878D02*
X14586611Y-17703354D01*
X14586611Y-17703354D02*
X14605658Y-17693830D01*
X14605658Y-17693830D02*
X14634230Y-17693830D01*
X14634230Y-17693830D02*
X14653277Y-17703354D01*
X14653277Y-17703354D02*
X14662801Y-17712878D01*
X14662801Y-17712878D02*
X14672325Y-17731926D01*
X14672325Y-17731926D02*
X14672325Y-17789069D01*
X14672325Y-17789069D02*
X14662801Y-17808116D01*
X14662801Y-17808116D02*
X14653277Y-17817640D01*
X14653277Y-17817640D02*
X14634230Y-17827164D01*
X14634230Y-17827164D02*
X14605658Y-17827164D01*
X14729468Y-17693830D02*
X14805658Y-17693830D01*
X14758039Y-17627164D02*
X14758039Y-17798592D01*
X14758039Y-17798592D02*
X14767563Y-17817640D01*
X14767563Y-17817640D02*
X14786611Y-17827164D01*
X14786611Y-17827164D02*
X14805658Y-17827164D01*
X15024706Y-17693830D02*
X15024706Y-17893830D01*
X15024706Y-17703354D02*
X15043753Y-17693830D01*
X15043753Y-17693830D02*
X15081849Y-17693830D01*
X15081849Y-17693830D02*
X15100896Y-17703354D01*
X15100896Y-17703354D02*
X15110420Y-17712878D01*
X15110420Y-17712878D02*
X15119944Y-17731926D01*
X15119944Y-17731926D02*
X15119944Y-17789069D01*
X15119944Y-17789069D02*
X15110420Y-17808116D01*
X15110420Y-17808116D02*
X15100896Y-17817640D01*
X15100896Y-17817640D02*
X15081849Y-17827164D01*
X15081849Y-17827164D02*
X15043753Y-17827164D01*
X15043753Y-17827164D02*
X15024706Y-17817640D01*
X15234230Y-17827164D02*
X15215182Y-17817640D01*
X15215182Y-17817640D02*
X15205658Y-17798592D01*
X15205658Y-17798592D02*
X15205658Y-17627164D01*
X15396134Y-17827164D02*
X15396134Y-17722402D01*
X15396134Y-17722402D02*
X15386611Y-17703354D01*
X15386611Y-17703354D02*
X15367563Y-17693830D01*
X15367563Y-17693830D02*
X15329468Y-17693830D01*
X15329468Y-17693830D02*
X15310420Y-17703354D01*
X15396134Y-17817640D02*
X15377087Y-17827164D01*
X15377087Y-17827164D02*
X15329468Y-17827164D01*
X15329468Y-17827164D02*
X15310420Y-17817640D01*
X15310420Y-17817640D02*
X15300896Y-17798592D01*
X15300896Y-17798592D02*
X15300896Y-17779545D01*
X15300896Y-17779545D02*
X15310420Y-17760497D01*
X15310420Y-17760497D02*
X15329468Y-17750973D01*
X15329468Y-17750973D02*
X15377087Y-17750973D01*
X15377087Y-17750973D02*
X15396134Y-17741450D01*
X15462801Y-17693830D02*
X15538992Y-17693830D01*
X15491373Y-17627164D02*
X15491373Y-17798592D01*
X15491373Y-17798592D02*
X15500896Y-17817640D01*
X15500896Y-17817640D02*
X15519944Y-17827164D01*
X15519944Y-17827164D02*
X15538992Y-17827164D01*
X15681849Y-17817640D02*
X15662801Y-17827164D01*
X15662801Y-17827164D02*
X15624706Y-17827164D01*
X15624706Y-17827164D02*
X15605658Y-17817640D01*
X15605658Y-17817640D02*
X15596134Y-17798592D01*
X15596134Y-17798592D02*
X15596134Y-17722402D01*
X15596134Y-17722402D02*
X15605658Y-17703354D01*
X15605658Y-17703354D02*
X15624706Y-17693830D01*
X15624706Y-17693830D02*
X15662801Y-17693830D01*
X15662801Y-17693830D02*
X15681849Y-17703354D01*
X15681849Y-17703354D02*
X15691373Y-17722402D01*
X15691373Y-17722402D02*
X15691373Y-17741450D01*
X15691373Y-17741450D02*
X15596134Y-17760497D01*
X15862801Y-17827164D02*
X15862801Y-17627164D01*
X15862801Y-17817640D02*
X15843754Y-17827164D01*
X15843754Y-17827164D02*
X15805658Y-17827164D01*
X15805658Y-17827164D02*
X15786611Y-17817640D01*
X15786611Y-17817640D02*
X15777087Y-17808116D01*
X15777087Y-17808116D02*
X15767563Y-17789069D01*
X15767563Y-17789069D02*
X15767563Y-17731926D01*
X15767563Y-17731926D02*
X15777087Y-17712878D01*
X15777087Y-17712878D02*
X15786611Y-17703354D01*
X15786611Y-17703354D02*
X15805658Y-17693830D01*
X15805658Y-17693830D02*
X15843754Y-17693830D01*
X15843754Y-17693830D02*
X15862801Y-17703354D01*
X15938992Y-17903354D02*
X15948515Y-17893830D01*
X15948515Y-17893830D02*
X15967563Y-17865259D01*
X15967563Y-17865259D02*
X15977087Y-17846211D01*
X15977087Y-17846211D02*
X15986611Y-17817640D01*
X15986611Y-17817640D02*
X15996134Y-17770021D01*
X15996134Y-17770021D02*
X15996134Y-17731926D01*
X15996134Y-17731926D02*
X15986611Y-17684307D01*
X15986611Y-17684307D02*
X15977087Y-17655735D01*
X15977087Y-17655735D02*
X15967563Y-17636688D01*
X15967563Y-17636688D02*
X15948515Y-17608116D01*
X15948515Y-17608116D02*
X15938992Y-17598592D01*
X8792500Y-17955680D02*
X8992500Y-18155680D01*
X8992500Y-17955680D02*
X8792500Y-18155680D01*
X8992500Y-18055680D02*
G75*
G02*
X8792500Y-18055680I-100000J0D01*
G01*
X8792500Y-18055680D02*
G75*
G02*
X8992500Y-18055680I100000J0D01*
G01*
X9338991Y-18013830D02*
X9338991Y-18147164D01*
X9291372Y-17937640D02*
X9243753Y-18080497D01*
X9243753Y-18080497D02*
X9367563Y-18080497D01*
X9443753Y-18128116D02*
X9453277Y-18137640D01*
X9453277Y-18137640D02*
X9443753Y-18147164D01*
X9443753Y-18147164D02*
X9434229Y-18137640D01*
X9434229Y-18137640D02*
X9443753Y-18128116D01*
X9443753Y-18128116D02*
X9443753Y-18147164D01*
X9577086Y-17947164D02*
X9596134Y-17947164D01*
X9596134Y-17947164D02*
X9615182Y-17956688D01*
X9615182Y-17956688D02*
X9624705Y-17966211D01*
X9624705Y-17966211D02*
X9634229Y-17985259D01*
X9634229Y-17985259D02*
X9643753Y-18023354D01*
X9643753Y-18023354D02*
X9643753Y-18070973D01*
X9643753Y-18070973D02*
X9634229Y-18109069D01*
X9634229Y-18109069D02*
X9624705Y-18128116D01*
X9624705Y-18128116D02*
X9615182Y-18137640D01*
X9615182Y-18137640D02*
X9596134Y-18147164D01*
X9596134Y-18147164D02*
X9577086Y-18147164D01*
X9577086Y-18147164D02*
X9558039Y-18137640D01*
X9558039Y-18137640D02*
X9548515Y-18128116D01*
X9548515Y-18128116D02*
X9538991Y-18109069D01*
X9538991Y-18109069D02*
X9529467Y-18070973D01*
X9529467Y-18070973D02*
X9529467Y-18023354D01*
X9529467Y-18023354D02*
X9538991Y-17985259D01*
X9538991Y-17985259D02*
X9548515Y-17966211D01*
X9548515Y-17966211D02*
X9558039Y-17956688D01*
X9558039Y-17956688D02*
X9577086Y-17947164D01*
X9767563Y-17947164D02*
X9786610Y-17947164D01*
X9786610Y-17947164D02*
X9805658Y-17956688D01*
X9805658Y-17956688D02*
X9815182Y-17966211D01*
X9815182Y-17966211D02*
X9824705Y-17985259D01*
X9824705Y-17985259D02*
X9834229Y-18023354D01*
X9834229Y-18023354D02*
X9834229Y-18070973D01*
X9834229Y-18070973D02*
X9824705Y-18109069D01*
X9824705Y-18109069D02*
X9815182Y-18128116D01*
X9815182Y-18128116D02*
X9805658Y-18137640D01*
X9805658Y-18137640D02*
X9786610Y-18147164D01*
X9786610Y-18147164D02*
X9767563Y-18147164D01*
X9767563Y-18147164D02*
X9748515Y-18137640D01*
X9748515Y-18137640D02*
X9738991Y-18128116D01*
X9738991Y-18128116D02*
X9729467Y-18109069D01*
X9729467Y-18109069D02*
X9719944Y-18070973D01*
X9719944Y-18070973D02*
X9719944Y-18023354D01*
X9719944Y-18023354D02*
X9729467Y-17985259D01*
X9729467Y-17985259D02*
X9738991Y-17966211D01*
X9738991Y-17966211D02*
X9748515Y-17956688D01*
X9748515Y-17956688D02*
X9767563Y-17947164D01*
X9958039Y-17947164D02*
X9977086Y-17947164D01*
X9977086Y-17947164D02*
X9996134Y-17956688D01*
X9996134Y-17956688D02*
X10005658Y-17966211D01*
X10005658Y-17966211D02*
X10015182Y-17985259D01*
X10015182Y-17985259D02*
X10024705Y-18023354D01*
X10024705Y-18023354D02*
X10024705Y-18070973D01*
X10024705Y-18070973D02*
X10015182Y-18109069D01*
X10015182Y-18109069D02*
X10005658Y-18128116D01*
X10005658Y-18128116D02*
X9996134Y-18137640D01*
X9996134Y-18137640D02*
X9977086Y-18147164D01*
X9977086Y-18147164D02*
X9958039Y-18147164D01*
X9958039Y-18147164D02*
X9938991Y-18137640D01*
X9938991Y-18137640D02*
X9929467Y-18128116D01*
X9929467Y-18128116D02*
X9919944Y-18109069D01*
X9919944Y-18109069D02*
X9910420Y-18070973D01*
X9910420Y-18070973D02*
X9910420Y-18023354D01*
X9910420Y-18023354D02*
X9919944Y-17985259D01*
X9919944Y-17985259D02*
X9929467Y-17966211D01*
X9929467Y-17966211D02*
X9938991Y-17956688D01*
X9938991Y-17956688D02*
X9958039Y-17947164D01*
X10110420Y-18147164D02*
X10110420Y-18013830D01*
X10110420Y-18032878D02*
X10119944Y-18023354D01*
X10119944Y-18023354D02*
X10138991Y-18013830D01*
X10138991Y-18013830D02*
X10167563Y-18013830D01*
X10167563Y-18013830D02*
X10186610Y-18023354D01*
X10186610Y-18023354D02*
X10196134Y-18042402D01*
X10196134Y-18042402D02*
X10196134Y-18147164D01*
X10196134Y-18042402D02*
X10205658Y-18023354D01*
X10205658Y-18023354D02*
X10224705Y-18013830D01*
X10224705Y-18013830D02*
X10253277Y-18013830D01*
X10253277Y-18013830D02*
X10272325Y-18023354D01*
X10272325Y-18023354D02*
X10281848Y-18042402D01*
X10281848Y-18042402D02*
X10281848Y-18147164D01*
X10377086Y-18147164D02*
X10377086Y-18013830D01*
X10377086Y-18032878D02*
X10386610Y-18023354D01*
X10386610Y-18023354D02*
X10405658Y-18013830D01*
X10405658Y-18013830D02*
X10434229Y-18013830D01*
X10434229Y-18013830D02*
X10453277Y-18023354D01*
X10453277Y-18023354D02*
X10462801Y-18042402D01*
X10462801Y-18042402D02*
X10462801Y-18147164D01*
X10462801Y-18042402D02*
X10472325Y-18023354D01*
X10472325Y-18023354D02*
X10491372Y-18013830D01*
X10491372Y-18013830D02*
X10519944Y-18013830D01*
X10519944Y-18013830D02*
X10538991Y-18023354D01*
X10538991Y-18023354D02*
X10548515Y-18042402D01*
X10548515Y-18042402D02*
X10548515Y-18147164D01*
X10938991Y-17937640D02*
X10767563Y-18194783D01*
X11196134Y-17947164D02*
X11215182Y-17947164D01*
X11215182Y-17947164D02*
X11234229Y-17956688D01*
X11234229Y-17956688D02*
X11243753Y-17966211D01*
X11243753Y-17966211D02*
X11253277Y-17985259D01*
X11253277Y-17985259D02*
X11262801Y-18023354D01*
X11262801Y-18023354D02*
X11262801Y-18070973D01*
X11262801Y-18070973D02*
X11253277Y-18109069D01*
X11253277Y-18109069D02*
X11243753Y-18128116D01*
X11243753Y-18128116D02*
X11234229Y-18137640D01*
X11234229Y-18137640D02*
X11215182Y-18147164D01*
X11215182Y-18147164D02*
X11196134Y-18147164D01*
X11196134Y-18147164D02*
X11177087Y-18137640D01*
X11177087Y-18137640D02*
X11167563Y-18128116D01*
X11167563Y-18128116D02*
X11158039Y-18109069D01*
X11158039Y-18109069D02*
X11148515Y-18070973D01*
X11148515Y-18070973D02*
X11148515Y-18023354D01*
X11148515Y-18023354D02*
X11158039Y-17985259D01*
X11158039Y-17985259D02*
X11167563Y-17966211D01*
X11167563Y-17966211D02*
X11177087Y-17956688D01*
X11177087Y-17956688D02*
X11196134Y-17947164D01*
X11348515Y-18128116D02*
X11358039Y-18137640D01*
X11358039Y-18137640D02*
X11348515Y-18147164D01*
X11348515Y-18147164D02*
X11338991Y-18137640D01*
X11338991Y-18137640D02*
X11348515Y-18128116D01*
X11348515Y-18128116D02*
X11348515Y-18147164D01*
X11548515Y-18147164D02*
X11434229Y-18147164D01*
X11491372Y-18147164D02*
X11491372Y-17947164D01*
X11491372Y-17947164D02*
X11472325Y-17975735D01*
X11472325Y-17975735D02*
X11453277Y-17994783D01*
X11453277Y-17994783D02*
X11434229Y-18004307D01*
X11729467Y-17947164D02*
X11634229Y-17947164D01*
X11634229Y-17947164D02*
X11624706Y-18042402D01*
X11624706Y-18042402D02*
X11634229Y-18032878D01*
X11634229Y-18032878D02*
X11653277Y-18023354D01*
X11653277Y-18023354D02*
X11700896Y-18023354D01*
X11700896Y-18023354D02*
X11719944Y-18032878D01*
X11719944Y-18032878D02*
X11729467Y-18042402D01*
X11729467Y-18042402D02*
X11738991Y-18061450D01*
X11738991Y-18061450D02*
X11738991Y-18109069D01*
X11738991Y-18109069D02*
X11729467Y-18128116D01*
X11729467Y-18128116D02*
X11719944Y-18137640D01*
X11719944Y-18137640D02*
X11700896Y-18147164D01*
X11700896Y-18147164D02*
X11653277Y-18147164D01*
X11653277Y-18147164D02*
X11634229Y-18137640D01*
X11634229Y-18137640D02*
X11624706Y-18128116D01*
X11805658Y-17947164D02*
X11938991Y-17947164D01*
X11938991Y-17947164D02*
X11853277Y-18147164D01*
X12110420Y-17947164D02*
X12015182Y-17947164D01*
X12015182Y-17947164D02*
X12005658Y-18042402D01*
X12005658Y-18042402D02*
X12015182Y-18032878D01*
X12015182Y-18032878D02*
X12034229Y-18023354D01*
X12034229Y-18023354D02*
X12081848Y-18023354D01*
X12081848Y-18023354D02*
X12100896Y-18032878D01*
X12100896Y-18032878D02*
X12110420Y-18042402D01*
X12110420Y-18042402D02*
X12119944Y-18061450D01*
X12119944Y-18061450D02*
X12119944Y-18109069D01*
X12119944Y-18109069D02*
X12110420Y-18128116D01*
X12110420Y-18128116D02*
X12100896Y-18137640D01*
X12100896Y-18137640D02*
X12081848Y-18147164D01*
X12081848Y-18147164D02*
X12034229Y-18147164D01*
X12034229Y-18147164D02*
X12015182Y-18137640D01*
X12015182Y-18137640D02*
X12005658Y-18128116D01*
X12196134Y-17947164D02*
X12196134Y-17985259D01*
X12272325Y-17947164D02*
X12272325Y-17985259D01*
X12567563Y-18223354D02*
X12558039Y-18213830D01*
X12558039Y-18213830D02*
X12538991Y-18185259D01*
X12538991Y-18185259D02*
X12529468Y-18166211D01*
X12529468Y-18166211D02*
X12519944Y-18137640D01*
X12519944Y-18137640D02*
X12510420Y-18090021D01*
X12510420Y-18090021D02*
X12510420Y-18051926D01*
X12510420Y-18051926D02*
X12519944Y-18004307D01*
X12519944Y-18004307D02*
X12529468Y-17975735D01*
X12529468Y-17975735D02*
X12538991Y-17956688D01*
X12538991Y-17956688D02*
X12558039Y-17928116D01*
X12558039Y-17928116D02*
X12567563Y-17918592D01*
X12738991Y-17947164D02*
X12643753Y-17947164D01*
X12643753Y-17947164D02*
X12634229Y-18042402D01*
X12634229Y-18042402D02*
X12643753Y-18032878D01*
X12643753Y-18032878D02*
X12662801Y-18023354D01*
X12662801Y-18023354D02*
X12710420Y-18023354D01*
X12710420Y-18023354D02*
X12729468Y-18032878D01*
X12729468Y-18032878D02*
X12738991Y-18042402D01*
X12738991Y-18042402D02*
X12748515Y-18061450D01*
X12748515Y-18061450D02*
X12748515Y-18109069D01*
X12748515Y-18109069D02*
X12738991Y-18128116D01*
X12738991Y-18128116D02*
X12729468Y-18137640D01*
X12729468Y-18137640D02*
X12710420Y-18147164D01*
X12710420Y-18147164D02*
X12662801Y-18147164D01*
X12662801Y-18147164D02*
X12643753Y-18137640D01*
X12643753Y-18137640D02*
X12634229Y-18128116D01*
X12986610Y-18147164D02*
X12986610Y-17947164D01*
X13072325Y-18147164D02*
X13072325Y-18042402D01*
X13072325Y-18042402D02*
X13062801Y-18023354D01*
X13062801Y-18023354D02*
X13043753Y-18013830D01*
X13043753Y-18013830D02*
X13015182Y-18013830D01*
X13015182Y-18013830D02*
X12996134Y-18023354D01*
X12996134Y-18023354D02*
X12986610Y-18032878D01*
X13196134Y-18147164D02*
X13177087Y-18137640D01*
X13177087Y-18137640D02*
X13167563Y-18128116D01*
X13167563Y-18128116D02*
X13158039Y-18109069D01*
X13158039Y-18109069D02*
X13158039Y-18051926D01*
X13158039Y-18051926D02*
X13167563Y-18032878D01*
X13167563Y-18032878D02*
X13177087Y-18023354D01*
X13177087Y-18023354D02*
X13196134Y-18013830D01*
X13196134Y-18013830D02*
X13224706Y-18013830D01*
X13224706Y-18013830D02*
X13243753Y-18023354D01*
X13243753Y-18023354D02*
X13253277Y-18032878D01*
X13253277Y-18032878D02*
X13262801Y-18051926D01*
X13262801Y-18051926D02*
X13262801Y-18109069D01*
X13262801Y-18109069D02*
X13253277Y-18128116D01*
X13253277Y-18128116D02*
X13243753Y-18137640D01*
X13243753Y-18137640D02*
X13224706Y-18147164D01*
X13224706Y-18147164D02*
X13196134Y-18147164D01*
X13377087Y-18147164D02*
X13358039Y-18137640D01*
X13358039Y-18137640D02*
X13348515Y-18118592D01*
X13348515Y-18118592D02*
X13348515Y-17947164D01*
X13529468Y-18137640D02*
X13510420Y-18147164D01*
X13510420Y-18147164D02*
X13472325Y-18147164D01*
X13472325Y-18147164D02*
X13453277Y-18137640D01*
X13453277Y-18137640D02*
X13443753Y-18118592D01*
X13443753Y-18118592D02*
X13443753Y-18042402D01*
X13443753Y-18042402D02*
X13453277Y-18023354D01*
X13453277Y-18023354D02*
X13472325Y-18013830D01*
X13472325Y-18013830D02*
X13510420Y-18013830D01*
X13510420Y-18013830D02*
X13529468Y-18023354D01*
X13529468Y-18023354D02*
X13538991Y-18042402D01*
X13538991Y-18042402D02*
X13538991Y-18061450D01*
X13538991Y-18061450D02*
X13443753Y-18080497D01*
X13615182Y-18137640D02*
X13634230Y-18147164D01*
X13634230Y-18147164D02*
X13672325Y-18147164D01*
X13672325Y-18147164D02*
X13691372Y-18137640D01*
X13691372Y-18137640D02*
X13700896Y-18118592D01*
X13700896Y-18118592D02*
X13700896Y-18109069D01*
X13700896Y-18109069D02*
X13691372Y-18090021D01*
X13691372Y-18090021D02*
X13672325Y-18080497D01*
X13672325Y-18080497D02*
X13643753Y-18080497D01*
X13643753Y-18080497D02*
X13624706Y-18070973D01*
X13624706Y-18070973D02*
X13615182Y-18051926D01*
X13615182Y-18051926D02*
X13615182Y-18042402D01*
X13615182Y-18042402D02*
X13624706Y-18023354D01*
X13624706Y-18023354D02*
X13643753Y-18013830D01*
X13643753Y-18013830D02*
X13672325Y-18013830D01*
X13672325Y-18013830D02*
X13691372Y-18023354D01*
X13767563Y-18223354D02*
X13777087Y-18213830D01*
X13777087Y-18213830D02*
X13796134Y-18185259D01*
X13796134Y-18185259D02*
X13805658Y-18166211D01*
X13805658Y-18166211D02*
X13815182Y-18137640D01*
X13815182Y-18137640D02*
X13824706Y-18090021D01*
X13824706Y-18090021D02*
X13824706Y-18051926D01*
X13824706Y-18051926D02*
X13815182Y-18004307D01*
X13815182Y-18004307D02*
X13805658Y-17975735D01*
X13805658Y-17975735D02*
X13796134Y-17956688D01*
X13796134Y-17956688D02*
X13777087Y-17928116D01*
X13777087Y-17928116D02*
X13767563Y-17918592D01*
X14129468Y-18223354D02*
X14119944Y-18213830D01*
X14119944Y-18213830D02*
X14100896Y-18185259D01*
X14100896Y-18185259D02*
X14091372Y-18166211D01*
X14091372Y-18166211D02*
X14081849Y-18137640D01*
X14081849Y-18137640D02*
X14072325Y-18090021D01*
X14072325Y-18090021D02*
X14072325Y-18051926D01*
X14072325Y-18051926D02*
X14081849Y-18004307D01*
X14081849Y-18004307D02*
X14091372Y-17975735D01*
X14091372Y-17975735D02*
X14100896Y-17956688D01*
X14100896Y-17956688D02*
X14119944Y-17928116D01*
X14119944Y-17928116D02*
X14129468Y-17918592D01*
X14205658Y-18013830D02*
X14205658Y-18147164D01*
X14205658Y-18032878D02*
X14215182Y-18023354D01*
X14215182Y-18023354D02*
X14234230Y-18013830D01*
X14234230Y-18013830D02*
X14262801Y-18013830D01*
X14262801Y-18013830D02*
X14281849Y-18023354D01*
X14281849Y-18023354D02*
X14291372Y-18042402D01*
X14291372Y-18042402D02*
X14291372Y-18147164D01*
X14415182Y-18147164D02*
X14396134Y-18137640D01*
X14396134Y-18137640D02*
X14386611Y-18128116D01*
X14386611Y-18128116D02*
X14377087Y-18109069D01*
X14377087Y-18109069D02*
X14377087Y-18051926D01*
X14377087Y-18051926D02*
X14386611Y-18032878D01*
X14386611Y-18032878D02*
X14396134Y-18023354D01*
X14396134Y-18023354D02*
X14415182Y-18013830D01*
X14415182Y-18013830D02*
X14443753Y-18013830D01*
X14443753Y-18013830D02*
X14462801Y-18023354D01*
X14462801Y-18023354D02*
X14472325Y-18032878D01*
X14472325Y-18032878D02*
X14481849Y-18051926D01*
X14481849Y-18051926D02*
X14481849Y-18109069D01*
X14481849Y-18109069D02*
X14472325Y-18128116D01*
X14472325Y-18128116D02*
X14462801Y-18137640D01*
X14462801Y-18137640D02*
X14443753Y-18147164D01*
X14443753Y-18147164D02*
X14415182Y-18147164D01*
X14538992Y-18013830D02*
X14615182Y-18013830D01*
X14567563Y-17947164D02*
X14567563Y-18118592D01*
X14567563Y-18118592D02*
X14577087Y-18137640D01*
X14577087Y-18137640D02*
X14596134Y-18147164D01*
X14596134Y-18147164D02*
X14615182Y-18147164D01*
X14834230Y-18013830D02*
X14834230Y-18213830D01*
X14834230Y-18023354D02*
X14853277Y-18013830D01*
X14853277Y-18013830D02*
X14891373Y-18013830D01*
X14891373Y-18013830D02*
X14910420Y-18023354D01*
X14910420Y-18023354D02*
X14919944Y-18032878D01*
X14919944Y-18032878D02*
X14929468Y-18051926D01*
X14929468Y-18051926D02*
X14929468Y-18109069D01*
X14929468Y-18109069D02*
X14919944Y-18128116D01*
X14919944Y-18128116D02*
X14910420Y-18137640D01*
X14910420Y-18137640D02*
X14891373Y-18147164D01*
X14891373Y-18147164D02*
X14853277Y-18147164D01*
X14853277Y-18147164D02*
X14834230Y-18137640D01*
X15043753Y-18147164D02*
X15024706Y-18137640D01*
X15024706Y-18137640D02*
X15015182Y-18118592D01*
X15015182Y-18118592D02*
X15015182Y-17947164D01*
X15205658Y-18147164D02*
X15205658Y-18042402D01*
X15205658Y-18042402D02*
X15196134Y-18023354D01*
X15196134Y-18023354D02*
X15177087Y-18013830D01*
X15177087Y-18013830D02*
X15138992Y-18013830D01*
X15138992Y-18013830D02*
X15119944Y-18023354D01*
X15205658Y-18137640D02*
X15186611Y-18147164D01*
X15186611Y-18147164D02*
X15138992Y-18147164D01*
X15138992Y-18147164D02*
X15119944Y-18137640D01*
X15119944Y-18137640D02*
X15110420Y-18118592D01*
X15110420Y-18118592D02*
X15110420Y-18099545D01*
X15110420Y-18099545D02*
X15119944Y-18080497D01*
X15119944Y-18080497D02*
X15138992Y-18070973D01*
X15138992Y-18070973D02*
X15186611Y-18070973D01*
X15186611Y-18070973D02*
X15205658Y-18061450D01*
X15272325Y-18013830D02*
X15348515Y-18013830D01*
X15300896Y-17947164D02*
X15300896Y-18118592D01*
X15300896Y-18118592D02*
X15310420Y-18137640D01*
X15310420Y-18137640D02*
X15329468Y-18147164D01*
X15329468Y-18147164D02*
X15348515Y-18147164D01*
X15491373Y-18137640D02*
X15472325Y-18147164D01*
X15472325Y-18147164D02*
X15434230Y-18147164D01*
X15434230Y-18147164D02*
X15415182Y-18137640D01*
X15415182Y-18137640D02*
X15405658Y-18118592D01*
X15405658Y-18118592D02*
X15405658Y-18042402D01*
X15405658Y-18042402D02*
X15415182Y-18023354D01*
X15415182Y-18023354D02*
X15434230Y-18013830D01*
X15434230Y-18013830D02*
X15472325Y-18013830D01*
X15472325Y-18013830D02*
X15491373Y-18023354D01*
X15491373Y-18023354D02*
X15500896Y-18042402D01*
X15500896Y-18042402D02*
X15500896Y-18061450D01*
X15500896Y-18061450D02*
X15405658Y-18080497D01*
X15672325Y-18147164D02*
X15672325Y-17947164D01*
X15672325Y-18137640D02*
X15653277Y-18147164D01*
X15653277Y-18147164D02*
X15615182Y-18147164D01*
X15615182Y-18147164D02*
X15596134Y-18137640D01*
X15596134Y-18137640D02*
X15586611Y-18128116D01*
X15586611Y-18128116D02*
X15577087Y-18109069D01*
X15577087Y-18109069D02*
X15577087Y-18051926D01*
X15577087Y-18051926D02*
X15586611Y-18032878D01*
X15586611Y-18032878D02*
X15596134Y-18023354D01*
X15596134Y-18023354D02*
X15615182Y-18013830D01*
X15615182Y-18013830D02*
X15653277Y-18013830D01*
X15653277Y-18013830D02*
X15672325Y-18023354D01*
X15748515Y-18223354D02*
X15758039Y-18213830D01*
X15758039Y-18213830D02*
X15777087Y-18185259D01*
X15777087Y-18185259D02*
X15786611Y-18166211D01*
X15786611Y-18166211D02*
X15796134Y-18137640D01*
X15796134Y-18137640D02*
X15805658Y-18090021D01*
X15805658Y-18090021D02*
X15805658Y-18051926D01*
X15805658Y-18051926D02*
X15796134Y-18004307D01*
X15796134Y-18004307D02*
X15786611Y-17975735D01*
X15786611Y-17975735D02*
X15777087Y-17956688D01*
X15777087Y-17956688D02*
X15758039Y-17928116D01*
X15758039Y-17928116D02*
X15748515Y-17918592D01*
M02*
