M48
; DRILL file {KiCad 8.0.7} date 2025-01-04T23:43:41-0700
; FORMAT={-:-/ absolute / inch / decimal}
; #@! TF.CreationDate,2025-01-04T23:43:41-07:00
; #@! TF.GenerationSoftware,Kicad,Pcbnew,8.0.7
; #@! TF.FileFunction,Plated,1,2,PTH
FMAT,2
INCH
; #@! TA.AperFunction,Plated,PTH,ViaDrill
T1C0.0157
; #@! TA.AperFunction,Plated,PTH,ComponentDrill
T2C0.0295
; #@! TA.AperFunction,Plated,PTH,ComponentDrill
T3C0.0390
; #@! TA.AperFunction,Plated,PTH,ComponentDrill
T4C0.0430
%
G90
G05
T1
X6.5157Y-3.7008
X6.752Y-3.0906
X6.7913Y-3.0118
X6.8898Y-3.4055
X7.2047Y-3.8189
X7.3425Y-4.0551
X7.4409Y-4.2323
X7.5197Y-4.9016
X7.7362Y-4.5276
X7.7559Y-3.4055
X7.9921Y-3.2421
X8.0118Y-3.8189
X8.0118Y-4.5669
X8.0512Y-3.6417
X8.1093Y-5.3354
X8.1107Y-4.2722
X8.1299Y-4.9606
X8.248Y-4.7047
T2
X6.2992Y-3.2677
X6.2992Y-3.3465
T3
X4.2638Y-3.6098
X4.2638Y-3.9098
X4.2638Y-4.3579
X4.2638Y-4.6579
X4.2638Y-5.1059
X4.2638Y-5.4059
X4.2638Y-5.8539
X4.2638Y-6.1539
X5.0512Y-3.6098
X5.0512Y-3.9098
X5.0512Y-4.3579
X5.0512Y-4.6579
X5.0512Y-5.1059
X5.0512Y-5.4059
X5.0512Y-5.8539
X5.0512Y-6.1539
X5.8386Y-3.0587
X5.8386Y-3.3587
X5.8386Y-3.8067
X5.8386Y-4.1067
X5.8386Y-4.5547
X5.8386Y-4.8547
X5.8386Y-5.3028
X5.8386Y-5.6028
X6.626Y-2.7437
X6.626Y-3.0437
X6.626Y-3.4917
X6.626Y-3.7917
X6.626Y-4.2398
X6.626Y-4.5398
X6.626Y-4.9878
X6.626Y-5.2878
X7.4134Y-3.0587
X7.4134Y-3.3587
X7.4134Y-3.8067
X7.4134Y-4.1067
X7.4134Y-4.5547
X7.4134Y-4.8547
X8.0039Y-5.3028
X8.0039Y-5.6028
X8.2008Y-3.0587
X8.2008Y-3.3587
X8.2008Y-3.8067
X8.2008Y-4.1067
X8.2008Y-4.5547
X8.2008Y-4.8547
T4
X7.0091Y-2.9283
X7.0091Y-3.5283
X7.1091Y-2.9283
X7.1091Y-3.5283
X7.2091Y-2.9283
X7.2091Y-3.0283
X7.2091Y-3.1283
X7.2091Y-3.2283
X7.2091Y-3.5283
X7.3091Y-2.9283
X7.3091Y-3.5283
X7.4091Y-2.9283
X7.4091Y-3.5283
X7.5091Y-2.9283
X7.5091Y-3.5283
X7.6091Y-2.9283
X7.6091Y-3.5283
X7.7091Y-2.9283
X7.7091Y-3.5283
X7.8091Y-2.9283
X7.8091Y-3.5283
X7.9091Y-2.9283
X7.9091Y-3.5283
X8.0091Y-2.9283
X8.0091Y-3.5283
X8.1091Y-2.9283
X8.1091Y-3.5283
M30
