%TF.GenerationSoftware,KiCad,Pcbnew,8.0.7*%
%TF.CreationDate,2025-01-04T23:43:43-07:00*%
%TF.ProjectId,left,6c656674-2e6b-4696-9361-645f70636258,v1.0.0*%
%TF.SameCoordinates,Original*%
%TF.FileFunction,Copper,L1,Top*%
%TF.FilePolarity,Positive*%
%FSLAX46Y46*%
G04 Gerber Fmt 4.6, Leading zero omitted, Abs format (unit mm)*
G04 Created by KiCad (PCBNEW 8.0.7) date 2025-01-04 23:43:43*
%MOMM*%
%LPD*%
G01*
G04 APERTURE LIST*
%TA.AperFunction,SMDPad,CuDef*%
%ADD10R,1.200000X0.900000*%
%TD*%
%TA.AperFunction,ComponentPad*%
%ADD11R,1.778000X1.778000*%
%TD*%
%TA.AperFunction,ComponentPad*%
%ADD12C,1.905000*%
%TD*%
%TA.AperFunction,ComponentPad*%
%ADD13C,1.752600*%
%TD*%
%TA.AperFunction,WasherPad*%
%ADD14C,1.000000*%
%TD*%
%TA.AperFunction,ComponentPad*%
%ADD15R,1.700000X1.200000*%
%TD*%
%TA.AperFunction,ComponentPad*%
%ADD16O,1.700000X1.200000*%
%TD*%
%TA.AperFunction,ViaPad*%
%ADD17C,0.800000*%
%TD*%
%TA.AperFunction,Conductor*%
%ADD18C,0.250000*%
%TD*%
G04 APERTURE END LIST*
D10*
%TO.P,D1,1*%
%TO.N,P029*%
X108300000Y-154150000D03*
%TO.P,D1,2*%
%TO.N,shift_utility*%
X108300000Y-150850000D03*
D11*
%TO.P,D1,1*%
%TO.N,P029*%
X108300000Y-156310000D03*
D12*
%TO.P,D1,2*%
%TO.N,shift_utility*%
X108300000Y-148690000D03*
%TD*%
D10*
%TO.P,D2,1*%
%TO.N,P002*%
X108300000Y-135150000D03*
%TO.P,D2,2*%
%TO.N,shift_down*%
X108300000Y-131850000D03*
D11*
%TO.P,D2,1*%
%TO.N,P002*%
X108300000Y-137310000D03*
D12*
%TO.P,D2,2*%
%TO.N,shift_down*%
X108300000Y-129690000D03*
%TD*%
D10*
%TO.P,D3,1*%
%TO.N,P115*%
X108300000Y-116150000D03*
%TO.P,D3,2*%
%TO.N,shift_home*%
X108300000Y-112850000D03*
D11*
%TO.P,D3,1*%
%TO.N,P115*%
X108300000Y-118310000D03*
D12*
%TO.P,D3,2*%
%TO.N,shift_home*%
X108300000Y-110690000D03*
%TD*%
D10*
%TO.P,D4,1*%
%TO.N,P113*%
X108300000Y-97150000D03*
%TO.P,D4,2*%
%TO.N,shift_up*%
X108300000Y-93850000D03*
D11*
%TO.P,D4,1*%
%TO.N,P113*%
X108300000Y-99310000D03*
D12*
%TO.P,D4,2*%
%TO.N,shift_up*%
X108300000Y-91690000D03*
%TD*%
D10*
%TO.P,D5,1*%
%TO.N,P029*%
X128300000Y-154150000D03*
%TO.P,D5,2*%
%TO.N,a_utility*%
X128300000Y-150850000D03*
D11*
%TO.P,D5,1*%
%TO.N,P029*%
X128300000Y-156310000D03*
D12*
%TO.P,D5,2*%
%TO.N,a_utility*%
X128300000Y-148690000D03*
%TD*%
D10*
%TO.P,D6,1*%
%TO.N,P002*%
X128300000Y-135150000D03*
%TO.P,D6,2*%
%TO.N,a_down*%
X128300000Y-131850000D03*
D11*
%TO.P,D6,1*%
%TO.N,P002*%
X128300000Y-137310000D03*
D12*
%TO.P,D6,2*%
%TO.N,a_down*%
X128300000Y-129690000D03*
%TD*%
D10*
%TO.P,D7,1*%
%TO.N,P115*%
X128300000Y-116150000D03*
%TO.P,D7,2*%
%TO.N,a_home*%
X128300000Y-112850000D03*
D11*
%TO.P,D7,1*%
%TO.N,P115*%
X128300000Y-118310000D03*
D12*
%TO.P,D7,2*%
%TO.N,a_home*%
X128300000Y-110690000D03*
%TD*%
D10*
%TO.P,D8,1*%
%TO.N,P113*%
X128300000Y-97150000D03*
%TO.P,D8,2*%
%TO.N,a_up*%
X128300000Y-93850000D03*
D11*
%TO.P,D8,1*%
%TO.N,P113*%
X128300000Y-99310000D03*
D12*
%TO.P,D8,2*%
%TO.N,a_up*%
X128300000Y-91690000D03*
%TD*%
D10*
%TO.P,D9,1*%
%TO.N,P029*%
X148300000Y-140150000D03*
%TO.P,D9,2*%
%TO.N,s_utility*%
X148300000Y-136850000D03*
D11*
%TO.P,D9,1*%
%TO.N,P029*%
X148300000Y-142310000D03*
D12*
%TO.P,D9,2*%
%TO.N,s_utility*%
X148300000Y-134690000D03*
%TD*%
D10*
%TO.P,D10,1*%
%TO.N,P002*%
X148300000Y-121150000D03*
%TO.P,D10,2*%
%TO.N,s_down*%
X148300000Y-117850000D03*
D11*
%TO.P,D10,1*%
%TO.N,P002*%
X148300000Y-123310000D03*
D12*
%TO.P,D10,2*%
%TO.N,s_down*%
X148300000Y-115690000D03*
%TD*%
D10*
%TO.P,D11,1*%
%TO.N,P115*%
X148300000Y-102150000D03*
%TO.P,D11,2*%
%TO.N,s_home*%
X148300000Y-98850000D03*
D11*
%TO.P,D11,1*%
%TO.N,P115*%
X148300000Y-104310000D03*
D12*
%TO.P,D11,2*%
%TO.N,s_home*%
X148300000Y-96690000D03*
%TD*%
D10*
%TO.P,D12,1*%
%TO.N,P113*%
X148300000Y-83150000D03*
%TO.P,D12,2*%
%TO.N,s_up*%
X148300000Y-79850000D03*
D11*
%TO.P,D12,1*%
%TO.N,P113*%
X148300000Y-85310000D03*
D12*
%TO.P,D12,2*%
%TO.N,s_up*%
X148300000Y-77690000D03*
%TD*%
D10*
%TO.P,D13,1*%
%TO.N,P029*%
X168300000Y-132150000D03*
%TO.P,D13,2*%
%TO.N,d_utility*%
X168300000Y-128850000D03*
D11*
%TO.P,D13,1*%
%TO.N,P029*%
X168300000Y-134310000D03*
D12*
%TO.P,D13,2*%
%TO.N,d_utility*%
X168300000Y-126690000D03*
%TD*%
D10*
%TO.P,D14,1*%
%TO.N,P002*%
X168300000Y-113150000D03*
%TO.P,D14,2*%
%TO.N,d_down*%
X168300000Y-109850000D03*
D11*
%TO.P,D14,1*%
%TO.N,P002*%
X168300000Y-115310000D03*
D12*
%TO.P,D14,2*%
%TO.N,d_down*%
X168300000Y-107690000D03*
%TD*%
D10*
%TO.P,D15,1*%
%TO.N,P115*%
X168300000Y-94150000D03*
%TO.P,D15,2*%
%TO.N,d_home*%
X168300000Y-90850000D03*
D11*
%TO.P,D15,1*%
%TO.N,P115*%
X168300000Y-96310000D03*
D12*
%TO.P,D15,2*%
%TO.N,d_home*%
X168300000Y-88690000D03*
%TD*%
D10*
%TO.P,D16,1*%
%TO.N,P113*%
X168300000Y-75150000D03*
%TO.P,D16,2*%
%TO.N,d_up*%
X168300000Y-71850000D03*
D11*
%TO.P,D16,1*%
%TO.N,P113*%
X168300000Y-77310000D03*
D12*
%TO.P,D16,2*%
%TO.N,d_up*%
X168300000Y-69690000D03*
%TD*%
D10*
%TO.P,D17,1*%
%TO.N,P002*%
X188300000Y-121150000D03*
%TO.P,D17,2*%
%TO.N,f_down*%
X188300000Y-117850000D03*
D11*
%TO.P,D17,1*%
%TO.N,P002*%
X188300000Y-123310000D03*
D12*
%TO.P,D17,2*%
%TO.N,f_down*%
X188300000Y-115690000D03*
%TD*%
D10*
%TO.P,D18,1*%
%TO.N,P115*%
X188300000Y-102150000D03*
%TO.P,D18,2*%
%TO.N,f_home*%
X188300000Y-98850000D03*
D11*
%TO.P,D18,1*%
%TO.N,P115*%
X188300000Y-104310000D03*
D12*
%TO.P,D18,2*%
%TO.N,f_home*%
X188300000Y-96690000D03*
%TD*%
D10*
%TO.P,D19,1*%
%TO.N,P113*%
X188300000Y-83150000D03*
%TO.P,D19,2*%
%TO.N,f_up*%
X188300000Y-79850000D03*
D11*
%TO.P,D19,1*%
%TO.N,P113*%
X188300000Y-85310000D03*
D12*
%TO.P,D19,2*%
%TO.N,f_up*%
X188300000Y-77690000D03*
%TD*%
D10*
%TO.P,D20,1*%
%TO.N,P002*%
X208300000Y-121150000D03*
%TO.P,D20,2*%
%TO.N,g_down*%
X208300000Y-117850000D03*
D11*
%TO.P,D20,1*%
%TO.N,P002*%
X208300000Y-123310000D03*
D12*
%TO.P,D20,2*%
%TO.N,g_down*%
X208300000Y-115690000D03*
%TD*%
D10*
%TO.P,D21,1*%
%TO.N,P115*%
X208300000Y-102150000D03*
%TO.P,D21,2*%
%TO.N,g_home*%
X208300000Y-98850000D03*
D11*
%TO.P,D21,1*%
%TO.N,P115*%
X208300000Y-104310000D03*
D12*
%TO.P,D21,2*%
%TO.N,g_home*%
X208300000Y-96690000D03*
%TD*%
D10*
%TO.P,D22,1*%
%TO.N,P113*%
X208300000Y-83150000D03*
%TO.P,D22,2*%
%TO.N,g_up*%
X208300000Y-79850000D03*
D11*
%TO.P,D22,1*%
%TO.N,P113*%
X208300000Y-85310000D03*
D12*
%TO.P,D22,2*%
%TO.N,g_up*%
X208300000Y-77690000D03*
%TD*%
D10*
%TO.P,D23,1*%
%TO.N,P029*%
X203300000Y-140150000D03*
%TO.P,D23,2*%
%TO.N,g_anchor*%
X203300000Y-136850000D03*
D11*
%TO.P,D23,1*%
%TO.N,P029*%
X203300000Y-142310000D03*
D12*
%TO.P,D23,2*%
%TO.N,g_anchor*%
X203300000Y-134690000D03*
%TD*%
D13*
%TO.P,MCU1,1*%
%TO.N,P006*%
X205970000Y-74380000D03*
%TO.P,MCU1,2*%
%TO.N,P008*%
X203430000Y-74380000D03*
%TO.P,MCU1,3*%
%TO.N,GND*%
X200890000Y-74380000D03*
%TO.P,MCU1,4*%
X198350000Y-74380000D03*
%TO.P,MCU1,5*%
%TO.N,P017*%
X195810000Y-74380000D03*
%TO.P,MCU1,6*%
%TO.N,P020*%
X193270000Y-74380000D03*
%TO.P,MCU1,7*%
%TO.N,P022*%
X190730000Y-74380000D03*
%TO.P,MCU1,8*%
%TO.N,P024*%
X188190000Y-74380000D03*
%TO.P,MCU1,9*%
%TO.N,P100*%
X185650000Y-74380000D03*
%TO.P,MCU1,10*%
%TO.N,P011*%
X183110000Y-74380000D03*
%TO.P,MCU1,11*%
%TO.N,P104*%
X180570000Y-74380000D03*
%TO.P,MCU1,12*%
%TO.N,P106*%
X178030000Y-74380000D03*
%TO.P,MCU1,13*%
%TO.N,P009*%
X178030000Y-89620000D03*
%TO.P,MCU1,14*%
%TO.N,P010*%
X180570000Y-89620000D03*
%TO.P,MCU1,15*%
%TO.N,P111*%
X183110000Y-89620000D03*
%TO.P,MCU1,16*%
%TO.N,P113*%
X185650000Y-89620000D03*
%TO.P,MCU1,17*%
%TO.N,P115*%
X188190000Y-89620000D03*
%TO.P,MCU1,18*%
%TO.N,P002*%
X190730000Y-89620000D03*
%TO.P,MCU1,19*%
%TO.N,P029*%
X193270000Y-89620000D03*
%TO.P,MCU1,20*%
%TO.N,P031*%
X195810000Y-89620000D03*
%TO.P,MCU1,21*%
%TO.N,VCC*%
X198350000Y-89620000D03*
%TO.P,MCU1,22*%
%TO.N,RST*%
X200890000Y-89620000D03*
%TO.P,MCU1,23*%
%TO.N,GND*%
X203430000Y-89620000D03*
%TO.P,MCU1,24*%
%TO.N,RAW*%
X205970000Y-89620000D03*
%TO.P,MCU1,31*%
%TO.N,P101*%
X183110000Y-76920000D03*
%TO.P,MCU1,32*%
%TO.N,P102*%
X183110000Y-79460000D03*
%TO.P,MCU1,33*%
%TO.N,P107*%
X183110000Y-82000000D03*
%TD*%
D14*
%TO.P,T1,*%
%TO.N,*%
X208000000Y-132500000D03*
X208000000Y-129500000D03*
%TD*%
D15*
%TO.P,JST1,1*%
%TO.N,pos*%
X160000000Y-85000000D03*
D16*
%TO.P,JST1,2*%
%TO.N,GND*%
X160000000Y-83000000D03*
%TD*%
D17*
%TO.N,RAW*%
X203500000Y-97000000D03*
X206012653Y-108512653D03*
X209500000Y-119500000D03*
X204500000Y-92500000D03*
%TO.N,pos*%
X206500000Y-126000000D03*
X196500000Y-115000000D03*
X186500000Y-103000000D03*
X203500000Y-116000000D03*
X175000000Y-86500000D03*
X183000000Y-97000000D03*
X189000000Y-107500000D03*
%TO.N,RST*%
X191000000Y-124500000D03*
X205976387Y-135518365D03*
%TO.N,GND*%
X165500000Y-94000000D03*
X197000000Y-86500000D03*
X203000000Y-82350000D03*
X172500000Y-76500000D03*
X171500000Y-78500000D03*
%TD*%
D18*
%TO.N,RAW*%
X204000000Y-93000000D02*
X204500000Y-92500000D01*
X204000000Y-96500000D02*
X204000000Y-93000000D01*
X203500000Y-97000000D02*
X204000000Y-96500000D01*
X209577500Y-112077500D02*
X206012653Y-108512653D01*
X209500000Y-119500000D02*
X209577500Y-119422500D01*
X209577500Y-119422500D02*
X209577500Y-112077500D01*
%TO.N,pos*%
X206000000Y-126500000D02*
X206500000Y-126000000D01*
X206000000Y-129000000D02*
X206000000Y-126500000D01*
X209514000Y-120664000D02*
X209514000Y-125486000D01*
X209225000Y-120375000D02*
X209514000Y-120664000D01*
X207141316Y-120375000D02*
X209225000Y-120375000D01*
X203500000Y-116733684D02*
X207141316Y-120375000D01*
X189000000Y-107500000D02*
X196500000Y-115000000D01*
X203500000Y-116000000D02*
X203500000Y-116733684D01*
X186500000Y-102050000D02*
X186500000Y-103000000D01*
X183000000Y-98550000D02*
X186500000Y-102050000D01*
X183000000Y-97000000D02*
X183000000Y-98550000D01*
X209514000Y-125486000D02*
X206000000Y-129000000D01*
X173000000Y-84500000D02*
X175000000Y-86500000D01*
X171800305Y-77775000D02*
X173000000Y-78974695D01*
X171199695Y-77775000D02*
X171800305Y-77775000D01*
X167542893Y-81431802D02*
X171199695Y-77775000D01*
X158825000Y-82616852D02*
X160010050Y-81431802D01*
X160010050Y-81431802D02*
X167542893Y-81431802D01*
X158825000Y-83825000D02*
X158825000Y-82616852D01*
X173000000Y-78974695D02*
X173000000Y-84500000D01*
X160000000Y-85000000D02*
X158825000Y-83825000D01*
%TO.N,RST*%
X194958022Y-124500000D02*
X191000000Y-124500000D01*
X205976387Y-135518365D02*
X194958022Y-124500000D01*
%TO.N,GND*%
X162089500Y-85089500D02*
X162089500Y-90589500D01*
X160000000Y-83000000D02*
X162089500Y-85089500D01*
X162089500Y-90589500D02*
X165500000Y-94000000D01*
X202228700Y-88418700D02*
X203430000Y-89620000D01*
X198918700Y-88418700D02*
X202228700Y-88418700D01*
X197000000Y-86500000D02*
X198918700Y-88418700D01*
X203000000Y-76490000D02*
X203000000Y-82350000D01*
X200890000Y-74380000D02*
X203000000Y-76490000D01*
X198350000Y-74380000D02*
X200890000Y-74380000D01*
X197011300Y-75718700D02*
X198350000Y-74380000D01*
X172500000Y-76500000D02*
X173281300Y-75718700D01*
X173281300Y-75718700D02*
X197011300Y-75718700D01*
X167000000Y-83000000D02*
X171500000Y-78500000D01*
X160000000Y-83000000D02*
X167000000Y-83000000D01*
%TO.N,P029*%
X191225000Y-87575000D02*
X193270000Y-89620000D01*
X170995532Y-87575000D02*
X191225000Y-87575000D01*
X169575000Y-91175000D02*
X169575000Y-88995532D01*
X157325000Y-103425000D02*
X169575000Y-91175000D01*
X149725000Y-103425000D02*
X157325000Y-103425000D01*
X149225000Y-102925000D02*
X149725000Y-103425000D01*
X169575000Y-88995532D02*
X170995532Y-87575000D01*
X147075000Y-102925000D02*
X149225000Y-102925000D01*
X144175000Y-105825000D02*
X147075000Y-102925000D01*
X109540416Y-115225900D02*
X118941316Y-105825000D01*
X104274100Y-115225900D02*
X109540416Y-115225900D01*
X104274100Y-152284100D02*
X104274100Y-115225900D01*
X118941316Y-105825000D02*
X144175000Y-105825000D01*
X108300000Y-156310000D02*
X104274100Y-152284100D01*
%TO.N,P002*%
X191931300Y-90821300D02*
X190730000Y-89620000D01*
X204237958Y-90821300D02*
X191931300Y-90821300D01*
X209577500Y-96160842D02*
X204237958Y-90821300D01*
X209577500Y-105460500D02*
X209577500Y-96160842D01*
X209514000Y-105524000D02*
X209577500Y-105460500D01*
X207976000Y-105524000D02*
X209514000Y-105524000D01*
X195274100Y-118225900D02*
X207976000Y-105524000D01*
X193384100Y-118225900D02*
X195274100Y-118225900D01*
X188300000Y-123310000D02*
X193384100Y-118225900D01*
%TO.N,P115*%
X189577500Y-91007500D02*
X188190000Y-89620000D01*
X189577500Y-103032500D02*
X189577500Y-91007500D01*
X188300000Y-104310000D02*
X189577500Y-103032500D01*
%TO.N,P113*%
X199223350Y-83075000D02*
X206065000Y-83075000D01*
X196988350Y-85310000D02*
X199223350Y-83075000D01*
X188300000Y-85310000D02*
X196988350Y-85310000D01*
X206065000Y-83075000D02*
X208300000Y-85310000D01*
X182321605Y-81089500D02*
X182612405Y-80798700D01*
X179134501Y-81089500D02*
X182321605Y-81089500D01*
X183788700Y-80798700D02*
X188300000Y-85310000D01*
X175355001Y-77310000D02*
X179134501Y-81089500D01*
X168300000Y-77310000D02*
X175355001Y-77310000D01*
X182612405Y-80798700D02*
X183788700Y-80798700D01*
X154291650Y-85310000D02*
X162291650Y-77310000D01*
X148300000Y-85310000D02*
X154291650Y-85310000D01*
X162291650Y-77310000D02*
X168300000Y-77310000D01*
X142300000Y-85310000D02*
X148300000Y-85310000D01*
X128300000Y-99310000D02*
X142300000Y-85310000D01*
X126785000Y-100825000D02*
X128300000Y-99310000D01*
X108300000Y-99310000D02*
X109815000Y-100825000D01*
X109815000Y-100825000D02*
X126785000Y-100825000D01*
%TO.N,P115*%
X206065000Y-102075000D02*
X208300000Y-104310000D01*
X196988350Y-104310000D02*
X199223350Y-102075000D01*
X188300000Y-104310000D02*
X196988350Y-104310000D01*
X199223350Y-102075000D02*
X206065000Y-102075000D01*
X183011650Y-104310000D02*
X188300000Y-104310000D01*
X175011650Y-96310000D02*
X183011650Y-104310000D01*
X168300000Y-96310000D02*
X175011650Y-96310000D01*
X160300000Y-104310000D02*
X168300000Y-96310000D01*
X148300000Y-104310000D02*
X160300000Y-104310000D01*
X148300000Y-104933684D02*
X148300000Y-104310000D01*
X128300000Y-118310000D02*
X134923684Y-118310000D01*
X134923684Y-118310000D02*
X148300000Y-104933684D01*
X109815000Y-119825000D02*
X126785000Y-119825000D01*
X108300000Y-118310000D02*
X109815000Y-119825000D01*
X126785000Y-119825000D02*
X128300000Y-118310000D01*
%TO.N,P002*%
X206065000Y-121075000D02*
X208300000Y-123310000D01*
X196988350Y-123310000D02*
X199223350Y-121075000D01*
X199223350Y-121075000D02*
X206065000Y-121075000D01*
X188300000Y-123310000D02*
X196988350Y-123310000D01*
X188300000Y-122345001D02*
X188300000Y-123310000D01*
X180865499Y-114910500D02*
X188300000Y-122345001D01*
X168699500Y-114910500D02*
X180865499Y-114910500D01*
X168300000Y-115310000D02*
X168699500Y-114910500D01*
X160300000Y-123310000D02*
X168300000Y-115310000D01*
X148300000Y-123310000D02*
X160300000Y-123310000D01*
X142300000Y-123310000D02*
X148300000Y-123310000D01*
X128300000Y-137310000D02*
X142300000Y-123310000D01*
X109815000Y-138825000D02*
X126785000Y-138825000D01*
X126785000Y-138825000D02*
X128300000Y-137310000D01*
X108300000Y-137310000D02*
X109815000Y-138825000D01*
%TO.N,P029*%
X198355001Y-142310000D02*
X203300000Y-142310000D01*
X190355001Y-134310000D02*
X198355001Y-142310000D01*
X168300000Y-134310000D02*
X190355001Y-134310000D01*
X160300000Y-142310000D02*
X168300000Y-134310000D01*
X148300000Y-142310000D02*
X160300000Y-142310000D01*
X146785000Y-143825000D02*
X148300000Y-142310000D01*
X129800000Y-145417157D02*
X131392157Y-143825000D01*
X131392157Y-143825000D02*
X146785000Y-143825000D01*
X128300000Y-156310000D02*
X129800000Y-154810000D01*
X129800000Y-154810000D02*
X129800000Y-145417157D01*
X109815000Y-157825000D02*
X126785000Y-157825000D01*
X108300000Y-156310000D02*
X109815000Y-157825000D01*
X126785000Y-157825000D02*
X128300000Y-156310000D01*
%TD*%
M02*
