%TF.GenerationSoftware,KiCad,Pcbnew,8.0.7*%
%TF.CreationDate,2025-01-04T23:43:43-07:00*%
%TF.ProjectId,left,6c656674-2e6b-4696-9361-645f70636258,v1.0.0*%
%TF.SameCoordinates,Original*%
%TF.FileFunction,Legend,Bot*%
%TF.FilePolarity,Positive*%
%FSLAX46Y46*%
G04 Gerber Fmt 4.6, Leading zero omitted, Abs format (unit mm)*
G04 Created by KiCad (PCBNEW 8.0.7) date 2025-01-04 23:43:43*
%MOMM*%
%LPD*%
G01*
G04 APERTURE LIST*
%ADD10C,0.150000*%
%ADD11C,0.100000*%
%ADD12C,0.381000*%
%ADD13C,0.120000*%
%ADD14C,1.752600*%
G04 APERTURE END LIST*
D10*
X206332295Y-86921334D02*
X205951342Y-86654667D01*
X206332295Y-86464191D02*
X205532295Y-86464191D01*
X205532295Y-86464191D02*
X205532295Y-86768953D01*
X205532295Y-86768953D02*
X205570390Y-86845143D01*
X205570390Y-86845143D02*
X205608485Y-86883238D01*
X205608485Y-86883238D02*
X205684676Y-86921334D01*
X205684676Y-86921334D02*
X205798961Y-86921334D01*
X205798961Y-86921334D02*
X205875152Y-86883238D01*
X205875152Y-86883238D02*
X205913247Y-86845143D01*
X205913247Y-86845143D02*
X205951342Y-86768953D01*
X205951342Y-86768953D02*
X205951342Y-86464191D01*
X206103723Y-87226095D02*
X206103723Y-87607048D01*
X206332295Y-87149905D02*
X205532295Y-87416572D01*
X205532295Y-87416572D02*
X206332295Y-87683238D01*
X205532295Y-87873714D02*
X206332295Y-88064190D01*
X206332295Y-88064190D02*
X205760866Y-88216571D01*
X205760866Y-88216571D02*
X206332295Y-88368952D01*
X206332295Y-88368952D02*
X205532295Y-88559429D01*
X203030390Y-86845143D02*
X202992295Y-86768953D01*
X202992295Y-86768953D02*
X202992295Y-86654667D01*
X202992295Y-86654667D02*
X203030390Y-86540381D01*
X203030390Y-86540381D02*
X203106580Y-86464191D01*
X203106580Y-86464191D02*
X203182771Y-86426096D01*
X203182771Y-86426096D02*
X203335152Y-86388000D01*
X203335152Y-86388000D02*
X203449438Y-86388000D01*
X203449438Y-86388000D02*
X203601819Y-86426096D01*
X203601819Y-86426096D02*
X203678009Y-86464191D01*
X203678009Y-86464191D02*
X203754200Y-86540381D01*
X203754200Y-86540381D02*
X203792295Y-86654667D01*
X203792295Y-86654667D02*
X203792295Y-86730858D01*
X203792295Y-86730858D02*
X203754200Y-86845143D01*
X203754200Y-86845143D02*
X203716104Y-86883239D01*
X203716104Y-86883239D02*
X203449438Y-86883239D01*
X203449438Y-86883239D02*
X203449438Y-86730858D01*
X203792295Y-87226096D02*
X202992295Y-87226096D01*
X202992295Y-87226096D02*
X203792295Y-87683239D01*
X203792295Y-87683239D02*
X202992295Y-87683239D01*
X203792295Y-88064191D02*
X202992295Y-88064191D01*
X202992295Y-88064191D02*
X202992295Y-88254667D01*
X202992295Y-88254667D02*
X203030390Y-88368953D01*
X203030390Y-88368953D02*
X203106580Y-88445143D01*
X203106580Y-88445143D02*
X203182771Y-88483238D01*
X203182771Y-88483238D02*
X203335152Y-88521334D01*
X203335152Y-88521334D02*
X203449438Y-88521334D01*
X203449438Y-88521334D02*
X203601819Y-88483238D01*
X203601819Y-88483238D02*
X203678009Y-88445143D01*
X203678009Y-88445143D02*
X203754200Y-88368953D01*
X203754200Y-88368953D02*
X203792295Y-88254667D01*
X203792295Y-88254667D02*
X203792295Y-88064191D01*
X201252295Y-87149905D02*
X200871342Y-86883238D01*
X201252295Y-86692762D02*
X200452295Y-86692762D01*
X200452295Y-86692762D02*
X200452295Y-86997524D01*
X200452295Y-86997524D02*
X200490390Y-87073714D01*
X200490390Y-87073714D02*
X200528485Y-87111809D01*
X200528485Y-87111809D02*
X200604676Y-87149905D01*
X200604676Y-87149905D02*
X200718961Y-87149905D01*
X200718961Y-87149905D02*
X200795152Y-87111809D01*
X200795152Y-87111809D02*
X200833247Y-87073714D01*
X200833247Y-87073714D02*
X200871342Y-86997524D01*
X200871342Y-86997524D02*
X200871342Y-86692762D01*
X201214200Y-87454666D02*
X201252295Y-87568952D01*
X201252295Y-87568952D02*
X201252295Y-87759428D01*
X201252295Y-87759428D02*
X201214200Y-87835619D01*
X201214200Y-87835619D02*
X201176104Y-87873714D01*
X201176104Y-87873714D02*
X201099914Y-87911809D01*
X201099914Y-87911809D02*
X201023723Y-87911809D01*
X201023723Y-87911809D02*
X200947533Y-87873714D01*
X200947533Y-87873714D02*
X200909438Y-87835619D01*
X200909438Y-87835619D02*
X200871342Y-87759428D01*
X200871342Y-87759428D02*
X200833247Y-87607047D01*
X200833247Y-87607047D02*
X200795152Y-87530857D01*
X200795152Y-87530857D02*
X200757057Y-87492762D01*
X200757057Y-87492762D02*
X200680866Y-87454666D01*
X200680866Y-87454666D02*
X200604676Y-87454666D01*
X200604676Y-87454666D02*
X200528485Y-87492762D01*
X200528485Y-87492762D02*
X200490390Y-87530857D01*
X200490390Y-87530857D02*
X200452295Y-87607047D01*
X200452295Y-87607047D02*
X200452295Y-87797524D01*
X200452295Y-87797524D02*
X200490390Y-87911809D01*
X200452295Y-88140381D02*
X200452295Y-88597524D01*
X201252295Y-88368952D02*
X200452295Y-88368952D01*
X197912295Y-86470524D02*
X198712295Y-86737191D01*
X198712295Y-86737191D02*
X197912295Y-87003857D01*
X198636104Y-87727667D02*
X198674200Y-87689571D01*
X198674200Y-87689571D02*
X198712295Y-87575286D01*
X198712295Y-87575286D02*
X198712295Y-87499095D01*
X198712295Y-87499095D02*
X198674200Y-87384809D01*
X198674200Y-87384809D02*
X198598009Y-87308619D01*
X198598009Y-87308619D02*
X198521819Y-87270524D01*
X198521819Y-87270524D02*
X198369438Y-87232428D01*
X198369438Y-87232428D02*
X198255152Y-87232428D01*
X198255152Y-87232428D02*
X198102771Y-87270524D01*
X198102771Y-87270524D02*
X198026580Y-87308619D01*
X198026580Y-87308619D02*
X197950390Y-87384809D01*
X197950390Y-87384809D02*
X197912295Y-87499095D01*
X197912295Y-87499095D02*
X197912295Y-87575286D01*
X197912295Y-87575286D02*
X197950390Y-87689571D01*
X197950390Y-87689571D02*
X197988485Y-87727667D01*
X198636104Y-88527667D02*
X198674200Y-88489571D01*
X198674200Y-88489571D02*
X198712295Y-88375286D01*
X198712295Y-88375286D02*
X198712295Y-88299095D01*
X198712295Y-88299095D02*
X198674200Y-88184809D01*
X198674200Y-88184809D02*
X198598009Y-88108619D01*
X198598009Y-88108619D02*
X198521819Y-88070524D01*
X198521819Y-88070524D02*
X198369438Y-88032428D01*
X198369438Y-88032428D02*
X198255152Y-88032428D01*
X198255152Y-88032428D02*
X198102771Y-88070524D01*
X198102771Y-88070524D02*
X198026580Y-88108619D01*
X198026580Y-88108619D02*
X197950390Y-88184809D01*
X197950390Y-88184809D02*
X197912295Y-88299095D01*
X197912295Y-88299095D02*
X197912295Y-88375286D01*
X197912295Y-88375286D02*
X197950390Y-88489571D01*
X197950390Y-88489571D02*
X197988485Y-88527667D01*
X195372295Y-86737191D02*
X195372295Y-86813381D01*
X195372295Y-86813381D02*
X195410390Y-86889572D01*
X195410390Y-86889572D02*
X195448485Y-86927667D01*
X195448485Y-86927667D02*
X195524676Y-86965762D01*
X195524676Y-86965762D02*
X195677057Y-87003857D01*
X195677057Y-87003857D02*
X195867533Y-87003857D01*
X195867533Y-87003857D02*
X196019914Y-86965762D01*
X196019914Y-86965762D02*
X196096104Y-86927667D01*
X196096104Y-86927667D02*
X196134200Y-86889572D01*
X196134200Y-86889572D02*
X196172295Y-86813381D01*
X196172295Y-86813381D02*
X196172295Y-86737191D01*
X196172295Y-86737191D02*
X196134200Y-86661000D01*
X196134200Y-86661000D02*
X196096104Y-86622905D01*
X196096104Y-86622905D02*
X196019914Y-86584810D01*
X196019914Y-86584810D02*
X195867533Y-86546714D01*
X195867533Y-86546714D02*
X195677057Y-86546714D01*
X195677057Y-86546714D02*
X195524676Y-86584810D01*
X195524676Y-86584810D02*
X195448485Y-86622905D01*
X195448485Y-86622905D02*
X195410390Y-86661000D01*
X195410390Y-86661000D02*
X195372295Y-86737191D01*
X195372295Y-87270524D02*
X195372295Y-87765762D01*
X195372295Y-87765762D02*
X195677057Y-87499096D01*
X195677057Y-87499096D02*
X195677057Y-87613381D01*
X195677057Y-87613381D02*
X195715152Y-87689572D01*
X195715152Y-87689572D02*
X195753247Y-87727667D01*
X195753247Y-87727667D02*
X195829438Y-87765762D01*
X195829438Y-87765762D02*
X196019914Y-87765762D01*
X196019914Y-87765762D02*
X196096104Y-87727667D01*
X196096104Y-87727667D02*
X196134200Y-87689572D01*
X196134200Y-87689572D02*
X196172295Y-87613381D01*
X196172295Y-87613381D02*
X196172295Y-87384810D01*
X196172295Y-87384810D02*
X196134200Y-87308619D01*
X196134200Y-87308619D02*
X196096104Y-87270524D01*
X196172295Y-88527667D02*
X196172295Y-88070524D01*
X196172295Y-88299096D02*
X195372295Y-88299096D01*
X195372295Y-88299096D02*
X195486580Y-88222905D01*
X195486580Y-88222905D02*
X195562771Y-88146715D01*
X195562771Y-88146715D02*
X195600866Y-88070524D01*
X192832295Y-86737191D02*
X192832295Y-86813381D01*
X192832295Y-86813381D02*
X192870390Y-86889572D01*
X192870390Y-86889572D02*
X192908485Y-86927667D01*
X192908485Y-86927667D02*
X192984676Y-86965762D01*
X192984676Y-86965762D02*
X193137057Y-87003857D01*
X193137057Y-87003857D02*
X193327533Y-87003857D01*
X193327533Y-87003857D02*
X193479914Y-86965762D01*
X193479914Y-86965762D02*
X193556104Y-86927667D01*
X193556104Y-86927667D02*
X193594200Y-86889572D01*
X193594200Y-86889572D02*
X193632295Y-86813381D01*
X193632295Y-86813381D02*
X193632295Y-86737191D01*
X193632295Y-86737191D02*
X193594200Y-86661000D01*
X193594200Y-86661000D02*
X193556104Y-86622905D01*
X193556104Y-86622905D02*
X193479914Y-86584810D01*
X193479914Y-86584810D02*
X193327533Y-86546714D01*
X193327533Y-86546714D02*
X193137057Y-86546714D01*
X193137057Y-86546714D02*
X192984676Y-86584810D01*
X192984676Y-86584810D02*
X192908485Y-86622905D01*
X192908485Y-86622905D02*
X192870390Y-86661000D01*
X192870390Y-86661000D02*
X192832295Y-86737191D01*
X192908485Y-87308619D02*
X192870390Y-87346715D01*
X192870390Y-87346715D02*
X192832295Y-87422905D01*
X192832295Y-87422905D02*
X192832295Y-87613381D01*
X192832295Y-87613381D02*
X192870390Y-87689572D01*
X192870390Y-87689572D02*
X192908485Y-87727667D01*
X192908485Y-87727667D02*
X192984676Y-87765762D01*
X192984676Y-87765762D02*
X193060866Y-87765762D01*
X193060866Y-87765762D02*
X193175152Y-87727667D01*
X193175152Y-87727667D02*
X193632295Y-87270524D01*
X193632295Y-87270524D02*
X193632295Y-87765762D01*
X193632295Y-88146715D02*
X193632295Y-88299096D01*
X193632295Y-88299096D02*
X193594200Y-88375286D01*
X193594200Y-88375286D02*
X193556104Y-88413382D01*
X193556104Y-88413382D02*
X193441819Y-88489572D01*
X193441819Y-88489572D02*
X193289438Y-88527667D01*
X193289438Y-88527667D02*
X192984676Y-88527667D01*
X192984676Y-88527667D02*
X192908485Y-88489572D01*
X192908485Y-88489572D02*
X192870390Y-88451477D01*
X192870390Y-88451477D02*
X192832295Y-88375286D01*
X192832295Y-88375286D02*
X192832295Y-88222905D01*
X192832295Y-88222905D02*
X192870390Y-88146715D01*
X192870390Y-88146715D02*
X192908485Y-88108620D01*
X192908485Y-88108620D02*
X192984676Y-88070524D01*
X192984676Y-88070524D02*
X193175152Y-88070524D01*
X193175152Y-88070524D02*
X193251342Y-88108620D01*
X193251342Y-88108620D02*
X193289438Y-88146715D01*
X193289438Y-88146715D02*
X193327533Y-88222905D01*
X193327533Y-88222905D02*
X193327533Y-88375286D01*
X193327533Y-88375286D02*
X193289438Y-88451477D01*
X193289438Y-88451477D02*
X193251342Y-88489572D01*
X193251342Y-88489572D02*
X193175152Y-88527667D01*
X190292295Y-86737191D02*
X190292295Y-86813381D01*
X190292295Y-86813381D02*
X190330390Y-86889572D01*
X190330390Y-86889572D02*
X190368485Y-86927667D01*
X190368485Y-86927667D02*
X190444676Y-86965762D01*
X190444676Y-86965762D02*
X190597057Y-87003857D01*
X190597057Y-87003857D02*
X190787533Y-87003857D01*
X190787533Y-87003857D02*
X190939914Y-86965762D01*
X190939914Y-86965762D02*
X191016104Y-86927667D01*
X191016104Y-86927667D02*
X191054200Y-86889572D01*
X191054200Y-86889572D02*
X191092295Y-86813381D01*
X191092295Y-86813381D02*
X191092295Y-86737191D01*
X191092295Y-86737191D02*
X191054200Y-86661000D01*
X191054200Y-86661000D02*
X191016104Y-86622905D01*
X191016104Y-86622905D02*
X190939914Y-86584810D01*
X190939914Y-86584810D02*
X190787533Y-86546714D01*
X190787533Y-86546714D02*
X190597057Y-86546714D01*
X190597057Y-86546714D02*
X190444676Y-86584810D01*
X190444676Y-86584810D02*
X190368485Y-86622905D01*
X190368485Y-86622905D02*
X190330390Y-86661000D01*
X190330390Y-86661000D02*
X190292295Y-86737191D01*
X190292295Y-87499096D02*
X190292295Y-87575286D01*
X190292295Y-87575286D02*
X190330390Y-87651477D01*
X190330390Y-87651477D02*
X190368485Y-87689572D01*
X190368485Y-87689572D02*
X190444676Y-87727667D01*
X190444676Y-87727667D02*
X190597057Y-87765762D01*
X190597057Y-87765762D02*
X190787533Y-87765762D01*
X190787533Y-87765762D02*
X190939914Y-87727667D01*
X190939914Y-87727667D02*
X191016104Y-87689572D01*
X191016104Y-87689572D02*
X191054200Y-87651477D01*
X191054200Y-87651477D02*
X191092295Y-87575286D01*
X191092295Y-87575286D02*
X191092295Y-87499096D01*
X191092295Y-87499096D02*
X191054200Y-87422905D01*
X191054200Y-87422905D02*
X191016104Y-87384810D01*
X191016104Y-87384810D02*
X190939914Y-87346715D01*
X190939914Y-87346715D02*
X190787533Y-87308619D01*
X190787533Y-87308619D02*
X190597057Y-87308619D01*
X190597057Y-87308619D02*
X190444676Y-87346715D01*
X190444676Y-87346715D02*
X190368485Y-87384810D01*
X190368485Y-87384810D02*
X190330390Y-87422905D01*
X190330390Y-87422905D02*
X190292295Y-87499096D01*
X190368485Y-88070524D02*
X190330390Y-88108620D01*
X190330390Y-88108620D02*
X190292295Y-88184810D01*
X190292295Y-88184810D02*
X190292295Y-88375286D01*
X190292295Y-88375286D02*
X190330390Y-88451477D01*
X190330390Y-88451477D02*
X190368485Y-88489572D01*
X190368485Y-88489572D02*
X190444676Y-88527667D01*
X190444676Y-88527667D02*
X190520866Y-88527667D01*
X190520866Y-88527667D02*
X190635152Y-88489572D01*
X190635152Y-88489572D02*
X191092295Y-88032429D01*
X191092295Y-88032429D02*
X191092295Y-88527667D01*
X188552295Y-87003857D02*
X188552295Y-86546714D01*
X188552295Y-86775286D02*
X187752295Y-86775286D01*
X187752295Y-86775286D02*
X187866580Y-86699095D01*
X187866580Y-86699095D02*
X187942771Y-86622905D01*
X187942771Y-86622905D02*
X187980866Y-86546714D01*
X188552295Y-87765762D02*
X188552295Y-87308619D01*
X188552295Y-87537191D02*
X187752295Y-87537191D01*
X187752295Y-87537191D02*
X187866580Y-87461000D01*
X187866580Y-87461000D02*
X187942771Y-87384810D01*
X187942771Y-87384810D02*
X187980866Y-87308619D01*
X187752295Y-88489572D02*
X187752295Y-88108620D01*
X187752295Y-88108620D02*
X188133247Y-88070524D01*
X188133247Y-88070524D02*
X188095152Y-88108620D01*
X188095152Y-88108620D02*
X188057057Y-88184810D01*
X188057057Y-88184810D02*
X188057057Y-88375286D01*
X188057057Y-88375286D02*
X188095152Y-88451477D01*
X188095152Y-88451477D02*
X188133247Y-88489572D01*
X188133247Y-88489572D02*
X188209438Y-88527667D01*
X188209438Y-88527667D02*
X188399914Y-88527667D01*
X188399914Y-88527667D02*
X188476104Y-88489572D01*
X188476104Y-88489572D02*
X188514200Y-88451477D01*
X188514200Y-88451477D02*
X188552295Y-88375286D01*
X188552295Y-88375286D02*
X188552295Y-88184810D01*
X188552295Y-88184810D02*
X188514200Y-88108620D01*
X188514200Y-88108620D02*
X188476104Y-88070524D01*
X186012295Y-87003857D02*
X186012295Y-86546714D01*
X186012295Y-86775286D02*
X185212295Y-86775286D01*
X185212295Y-86775286D02*
X185326580Y-86699095D01*
X185326580Y-86699095D02*
X185402771Y-86622905D01*
X185402771Y-86622905D02*
X185440866Y-86546714D01*
X186012295Y-87765762D02*
X186012295Y-87308619D01*
X186012295Y-87537191D02*
X185212295Y-87537191D01*
X185212295Y-87537191D02*
X185326580Y-87461000D01*
X185326580Y-87461000D02*
X185402771Y-87384810D01*
X185402771Y-87384810D02*
X185440866Y-87308619D01*
X185212295Y-88032429D02*
X185212295Y-88527667D01*
X185212295Y-88527667D02*
X185517057Y-88261001D01*
X185517057Y-88261001D02*
X185517057Y-88375286D01*
X185517057Y-88375286D02*
X185555152Y-88451477D01*
X185555152Y-88451477D02*
X185593247Y-88489572D01*
X185593247Y-88489572D02*
X185669438Y-88527667D01*
X185669438Y-88527667D02*
X185859914Y-88527667D01*
X185859914Y-88527667D02*
X185936104Y-88489572D01*
X185936104Y-88489572D02*
X185974200Y-88451477D01*
X185974200Y-88451477D02*
X186012295Y-88375286D01*
X186012295Y-88375286D02*
X186012295Y-88146715D01*
X186012295Y-88146715D02*
X185974200Y-88070524D01*
X185974200Y-88070524D02*
X185936104Y-88032429D01*
X183472295Y-87003857D02*
X183472295Y-86546714D01*
X183472295Y-86775286D02*
X182672295Y-86775286D01*
X182672295Y-86775286D02*
X182786580Y-86699095D01*
X182786580Y-86699095D02*
X182862771Y-86622905D01*
X182862771Y-86622905D02*
X182900866Y-86546714D01*
X183472295Y-87765762D02*
X183472295Y-87308619D01*
X183472295Y-87537191D02*
X182672295Y-87537191D01*
X182672295Y-87537191D02*
X182786580Y-87461000D01*
X182786580Y-87461000D02*
X182862771Y-87384810D01*
X182862771Y-87384810D02*
X182900866Y-87308619D01*
X183472295Y-88527667D02*
X183472295Y-88070524D01*
X183472295Y-88299096D02*
X182672295Y-88299096D01*
X182672295Y-88299096D02*
X182786580Y-88222905D01*
X182786580Y-88222905D02*
X182862771Y-88146715D01*
X182862771Y-88146715D02*
X182900866Y-88070524D01*
X180132295Y-86737191D02*
X180132295Y-86813381D01*
X180132295Y-86813381D02*
X180170390Y-86889572D01*
X180170390Y-86889572D02*
X180208485Y-86927667D01*
X180208485Y-86927667D02*
X180284676Y-86965762D01*
X180284676Y-86965762D02*
X180437057Y-87003857D01*
X180437057Y-87003857D02*
X180627533Y-87003857D01*
X180627533Y-87003857D02*
X180779914Y-86965762D01*
X180779914Y-86965762D02*
X180856104Y-86927667D01*
X180856104Y-86927667D02*
X180894200Y-86889572D01*
X180894200Y-86889572D02*
X180932295Y-86813381D01*
X180932295Y-86813381D02*
X180932295Y-86737191D01*
X180932295Y-86737191D02*
X180894200Y-86661000D01*
X180894200Y-86661000D02*
X180856104Y-86622905D01*
X180856104Y-86622905D02*
X180779914Y-86584810D01*
X180779914Y-86584810D02*
X180627533Y-86546714D01*
X180627533Y-86546714D02*
X180437057Y-86546714D01*
X180437057Y-86546714D02*
X180284676Y-86584810D01*
X180284676Y-86584810D02*
X180208485Y-86622905D01*
X180208485Y-86622905D02*
X180170390Y-86661000D01*
X180170390Y-86661000D02*
X180132295Y-86737191D01*
X180932295Y-87765762D02*
X180932295Y-87308619D01*
X180932295Y-87537191D02*
X180132295Y-87537191D01*
X180132295Y-87537191D02*
X180246580Y-87461000D01*
X180246580Y-87461000D02*
X180322771Y-87384810D01*
X180322771Y-87384810D02*
X180360866Y-87308619D01*
X180132295Y-88261001D02*
X180132295Y-88337191D01*
X180132295Y-88337191D02*
X180170390Y-88413382D01*
X180170390Y-88413382D02*
X180208485Y-88451477D01*
X180208485Y-88451477D02*
X180284676Y-88489572D01*
X180284676Y-88489572D02*
X180437057Y-88527667D01*
X180437057Y-88527667D02*
X180627533Y-88527667D01*
X180627533Y-88527667D02*
X180779914Y-88489572D01*
X180779914Y-88489572D02*
X180856104Y-88451477D01*
X180856104Y-88451477D02*
X180894200Y-88413382D01*
X180894200Y-88413382D02*
X180932295Y-88337191D01*
X180932295Y-88337191D02*
X180932295Y-88261001D01*
X180932295Y-88261001D02*
X180894200Y-88184810D01*
X180894200Y-88184810D02*
X180856104Y-88146715D01*
X180856104Y-88146715D02*
X180779914Y-88108620D01*
X180779914Y-88108620D02*
X180627533Y-88070524D01*
X180627533Y-88070524D02*
X180437057Y-88070524D01*
X180437057Y-88070524D02*
X180284676Y-88108620D01*
X180284676Y-88108620D02*
X180208485Y-88146715D01*
X180208485Y-88146715D02*
X180170390Y-88184810D01*
X180170390Y-88184810D02*
X180132295Y-88261001D01*
X205532295Y-75662810D02*
X205532295Y-75739000D01*
X205532295Y-75739000D02*
X205570390Y-75815191D01*
X205570390Y-75815191D02*
X205608485Y-75853286D01*
X205608485Y-75853286D02*
X205684676Y-75891381D01*
X205684676Y-75891381D02*
X205837057Y-75929476D01*
X205837057Y-75929476D02*
X206027533Y-75929476D01*
X206027533Y-75929476D02*
X206179914Y-75891381D01*
X206179914Y-75891381D02*
X206256104Y-75853286D01*
X206256104Y-75853286D02*
X206294200Y-75815191D01*
X206294200Y-75815191D02*
X206332295Y-75739000D01*
X206332295Y-75739000D02*
X206332295Y-75662810D01*
X206332295Y-75662810D02*
X206294200Y-75586619D01*
X206294200Y-75586619D02*
X206256104Y-75548524D01*
X206256104Y-75548524D02*
X206179914Y-75510429D01*
X206179914Y-75510429D02*
X206027533Y-75472333D01*
X206027533Y-75472333D02*
X205837057Y-75472333D01*
X205837057Y-75472333D02*
X205684676Y-75510429D01*
X205684676Y-75510429D02*
X205608485Y-75548524D01*
X205608485Y-75548524D02*
X205570390Y-75586619D01*
X205570390Y-75586619D02*
X205532295Y-75662810D01*
X205532295Y-76424715D02*
X205532295Y-76500905D01*
X205532295Y-76500905D02*
X205570390Y-76577096D01*
X205570390Y-76577096D02*
X205608485Y-76615191D01*
X205608485Y-76615191D02*
X205684676Y-76653286D01*
X205684676Y-76653286D02*
X205837057Y-76691381D01*
X205837057Y-76691381D02*
X206027533Y-76691381D01*
X206027533Y-76691381D02*
X206179914Y-76653286D01*
X206179914Y-76653286D02*
X206256104Y-76615191D01*
X206256104Y-76615191D02*
X206294200Y-76577096D01*
X206294200Y-76577096D02*
X206332295Y-76500905D01*
X206332295Y-76500905D02*
X206332295Y-76424715D01*
X206332295Y-76424715D02*
X206294200Y-76348524D01*
X206294200Y-76348524D02*
X206256104Y-76310429D01*
X206256104Y-76310429D02*
X206179914Y-76272334D01*
X206179914Y-76272334D02*
X206027533Y-76234238D01*
X206027533Y-76234238D02*
X205837057Y-76234238D01*
X205837057Y-76234238D02*
X205684676Y-76272334D01*
X205684676Y-76272334D02*
X205608485Y-76310429D01*
X205608485Y-76310429D02*
X205570390Y-76348524D01*
X205570390Y-76348524D02*
X205532295Y-76424715D01*
X205532295Y-77377096D02*
X205532295Y-77224715D01*
X205532295Y-77224715D02*
X205570390Y-77148524D01*
X205570390Y-77148524D02*
X205608485Y-77110429D01*
X205608485Y-77110429D02*
X205722771Y-77034239D01*
X205722771Y-77034239D02*
X205875152Y-76996143D01*
X205875152Y-76996143D02*
X206179914Y-76996143D01*
X206179914Y-76996143D02*
X206256104Y-77034239D01*
X206256104Y-77034239D02*
X206294200Y-77072334D01*
X206294200Y-77072334D02*
X206332295Y-77148524D01*
X206332295Y-77148524D02*
X206332295Y-77300905D01*
X206332295Y-77300905D02*
X206294200Y-77377096D01*
X206294200Y-77377096D02*
X206256104Y-77415191D01*
X206256104Y-77415191D02*
X206179914Y-77453286D01*
X206179914Y-77453286D02*
X205989438Y-77453286D01*
X205989438Y-77453286D02*
X205913247Y-77415191D01*
X205913247Y-77415191D02*
X205875152Y-77377096D01*
X205875152Y-77377096D02*
X205837057Y-77300905D01*
X205837057Y-77300905D02*
X205837057Y-77148524D01*
X205837057Y-77148524D02*
X205875152Y-77072334D01*
X205875152Y-77072334D02*
X205913247Y-77034239D01*
X205913247Y-77034239D02*
X205989438Y-76996143D01*
X203062295Y-75662810D02*
X203062295Y-75739000D01*
X203062295Y-75739000D02*
X203100390Y-75815191D01*
X203100390Y-75815191D02*
X203138485Y-75853286D01*
X203138485Y-75853286D02*
X203214676Y-75891381D01*
X203214676Y-75891381D02*
X203367057Y-75929476D01*
X203367057Y-75929476D02*
X203557533Y-75929476D01*
X203557533Y-75929476D02*
X203709914Y-75891381D01*
X203709914Y-75891381D02*
X203786104Y-75853286D01*
X203786104Y-75853286D02*
X203824200Y-75815191D01*
X203824200Y-75815191D02*
X203862295Y-75739000D01*
X203862295Y-75739000D02*
X203862295Y-75662810D01*
X203862295Y-75662810D02*
X203824200Y-75586619D01*
X203824200Y-75586619D02*
X203786104Y-75548524D01*
X203786104Y-75548524D02*
X203709914Y-75510429D01*
X203709914Y-75510429D02*
X203557533Y-75472333D01*
X203557533Y-75472333D02*
X203367057Y-75472333D01*
X203367057Y-75472333D02*
X203214676Y-75510429D01*
X203214676Y-75510429D02*
X203138485Y-75548524D01*
X203138485Y-75548524D02*
X203100390Y-75586619D01*
X203100390Y-75586619D02*
X203062295Y-75662810D01*
X203062295Y-76424715D02*
X203062295Y-76500905D01*
X203062295Y-76500905D02*
X203100390Y-76577096D01*
X203100390Y-76577096D02*
X203138485Y-76615191D01*
X203138485Y-76615191D02*
X203214676Y-76653286D01*
X203214676Y-76653286D02*
X203367057Y-76691381D01*
X203367057Y-76691381D02*
X203557533Y-76691381D01*
X203557533Y-76691381D02*
X203709914Y-76653286D01*
X203709914Y-76653286D02*
X203786104Y-76615191D01*
X203786104Y-76615191D02*
X203824200Y-76577096D01*
X203824200Y-76577096D02*
X203862295Y-76500905D01*
X203862295Y-76500905D02*
X203862295Y-76424715D01*
X203862295Y-76424715D02*
X203824200Y-76348524D01*
X203824200Y-76348524D02*
X203786104Y-76310429D01*
X203786104Y-76310429D02*
X203709914Y-76272334D01*
X203709914Y-76272334D02*
X203557533Y-76234238D01*
X203557533Y-76234238D02*
X203367057Y-76234238D01*
X203367057Y-76234238D02*
X203214676Y-76272334D01*
X203214676Y-76272334D02*
X203138485Y-76310429D01*
X203138485Y-76310429D02*
X203100390Y-76348524D01*
X203100390Y-76348524D02*
X203062295Y-76424715D01*
X203405152Y-77148524D02*
X203367057Y-77072334D01*
X203367057Y-77072334D02*
X203328961Y-77034239D01*
X203328961Y-77034239D02*
X203252771Y-76996143D01*
X203252771Y-76996143D02*
X203214676Y-76996143D01*
X203214676Y-76996143D02*
X203138485Y-77034239D01*
X203138485Y-77034239D02*
X203100390Y-77072334D01*
X203100390Y-77072334D02*
X203062295Y-77148524D01*
X203062295Y-77148524D02*
X203062295Y-77300905D01*
X203062295Y-77300905D02*
X203100390Y-77377096D01*
X203100390Y-77377096D02*
X203138485Y-77415191D01*
X203138485Y-77415191D02*
X203214676Y-77453286D01*
X203214676Y-77453286D02*
X203252771Y-77453286D01*
X203252771Y-77453286D02*
X203328961Y-77415191D01*
X203328961Y-77415191D02*
X203367057Y-77377096D01*
X203367057Y-77377096D02*
X203405152Y-77300905D01*
X203405152Y-77300905D02*
X203405152Y-77148524D01*
X203405152Y-77148524D02*
X203443247Y-77072334D01*
X203443247Y-77072334D02*
X203481342Y-77034239D01*
X203481342Y-77034239D02*
X203557533Y-76996143D01*
X203557533Y-76996143D02*
X203709914Y-76996143D01*
X203709914Y-76996143D02*
X203786104Y-77034239D01*
X203786104Y-77034239D02*
X203824200Y-77072334D01*
X203824200Y-77072334D02*
X203862295Y-77148524D01*
X203862295Y-77148524D02*
X203862295Y-77300905D01*
X203862295Y-77300905D02*
X203824200Y-77377096D01*
X203824200Y-77377096D02*
X203786104Y-77415191D01*
X203786104Y-77415191D02*
X203709914Y-77453286D01*
X203709914Y-77453286D02*
X203557533Y-77453286D01*
X203557533Y-77453286D02*
X203481342Y-77415191D01*
X203481342Y-77415191D02*
X203443247Y-77377096D01*
X203443247Y-77377096D02*
X203405152Y-77300905D01*
X200490390Y-75929476D02*
X200452295Y-75853286D01*
X200452295Y-75853286D02*
X200452295Y-75739000D01*
X200452295Y-75739000D02*
X200490390Y-75624714D01*
X200490390Y-75624714D02*
X200566580Y-75548524D01*
X200566580Y-75548524D02*
X200642771Y-75510429D01*
X200642771Y-75510429D02*
X200795152Y-75472333D01*
X200795152Y-75472333D02*
X200909438Y-75472333D01*
X200909438Y-75472333D02*
X201061819Y-75510429D01*
X201061819Y-75510429D02*
X201138009Y-75548524D01*
X201138009Y-75548524D02*
X201214200Y-75624714D01*
X201214200Y-75624714D02*
X201252295Y-75739000D01*
X201252295Y-75739000D02*
X201252295Y-75815191D01*
X201252295Y-75815191D02*
X201214200Y-75929476D01*
X201214200Y-75929476D02*
X201176104Y-75967572D01*
X201176104Y-75967572D02*
X200909438Y-75967572D01*
X200909438Y-75967572D02*
X200909438Y-75815191D01*
X201252295Y-76310429D02*
X200452295Y-76310429D01*
X200452295Y-76310429D02*
X201252295Y-76767572D01*
X201252295Y-76767572D02*
X200452295Y-76767572D01*
X201252295Y-77148524D02*
X200452295Y-77148524D01*
X200452295Y-77148524D02*
X200452295Y-77339000D01*
X200452295Y-77339000D02*
X200490390Y-77453286D01*
X200490390Y-77453286D02*
X200566580Y-77529476D01*
X200566580Y-77529476D02*
X200642771Y-77567571D01*
X200642771Y-77567571D02*
X200795152Y-77605667D01*
X200795152Y-77605667D02*
X200909438Y-77605667D01*
X200909438Y-77605667D02*
X201061819Y-77567571D01*
X201061819Y-77567571D02*
X201138009Y-77529476D01*
X201138009Y-77529476D02*
X201214200Y-77453286D01*
X201214200Y-77453286D02*
X201252295Y-77339000D01*
X201252295Y-77339000D02*
X201252295Y-77148524D01*
X197950390Y-75929476D02*
X197912295Y-75853286D01*
X197912295Y-75853286D02*
X197912295Y-75739000D01*
X197912295Y-75739000D02*
X197950390Y-75624714D01*
X197950390Y-75624714D02*
X198026580Y-75548524D01*
X198026580Y-75548524D02*
X198102771Y-75510429D01*
X198102771Y-75510429D02*
X198255152Y-75472333D01*
X198255152Y-75472333D02*
X198369438Y-75472333D01*
X198369438Y-75472333D02*
X198521819Y-75510429D01*
X198521819Y-75510429D02*
X198598009Y-75548524D01*
X198598009Y-75548524D02*
X198674200Y-75624714D01*
X198674200Y-75624714D02*
X198712295Y-75739000D01*
X198712295Y-75739000D02*
X198712295Y-75815191D01*
X198712295Y-75815191D02*
X198674200Y-75929476D01*
X198674200Y-75929476D02*
X198636104Y-75967572D01*
X198636104Y-75967572D02*
X198369438Y-75967572D01*
X198369438Y-75967572D02*
X198369438Y-75815191D01*
X198712295Y-76310429D02*
X197912295Y-76310429D01*
X197912295Y-76310429D02*
X198712295Y-76767572D01*
X198712295Y-76767572D02*
X197912295Y-76767572D01*
X198712295Y-77148524D02*
X197912295Y-77148524D01*
X197912295Y-77148524D02*
X197912295Y-77339000D01*
X197912295Y-77339000D02*
X197950390Y-77453286D01*
X197950390Y-77453286D02*
X198026580Y-77529476D01*
X198026580Y-77529476D02*
X198102771Y-77567571D01*
X198102771Y-77567571D02*
X198255152Y-77605667D01*
X198255152Y-77605667D02*
X198369438Y-77605667D01*
X198369438Y-77605667D02*
X198521819Y-77567571D01*
X198521819Y-77567571D02*
X198598009Y-77529476D01*
X198598009Y-77529476D02*
X198674200Y-77453286D01*
X198674200Y-77453286D02*
X198712295Y-77339000D01*
X198712295Y-77339000D02*
X198712295Y-77148524D01*
X195362295Y-75662810D02*
X195362295Y-75739000D01*
X195362295Y-75739000D02*
X195400390Y-75815191D01*
X195400390Y-75815191D02*
X195438485Y-75853286D01*
X195438485Y-75853286D02*
X195514676Y-75891381D01*
X195514676Y-75891381D02*
X195667057Y-75929476D01*
X195667057Y-75929476D02*
X195857533Y-75929476D01*
X195857533Y-75929476D02*
X196009914Y-75891381D01*
X196009914Y-75891381D02*
X196086104Y-75853286D01*
X196086104Y-75853286D02*
X196124200Y-75815191D01*
X196124200Y-75815191D02*
X196162295Y-75739000D01*
X196162295Y-75739000D02*
X196162295Y-75662810D01*
X196162295Y-75662810D02*
X196124200Y-75586619D01*
X196124200Y-75586619D02*
X196086104Y-75548524D01*
X196086104Y-75548524D02*
X196009914Y-75510429D01*
X196009914Y-75510429D02*
X195857533Y-75472333D01*
X195857533Y-75472333D02*
X195667057Y-75472333D01*
X195667057Y-75472333D02*
X195514676Y-75510429D01*
X195514676Y-75510429D02*
X195438485Y-75548524D01*
X195438485Y-75548524D02*
X195400390Y-75586619D01*
X195400390Y-75586619D02*
X195362295Y-75662810D01*
X196162295Y-76691381D02*
X196162295Y-76234238D01*
X196162295Y-76462810D02*
X195362295Y-76462810D01*
X195362295Y-76462810D02*
X195476580Y-76386619D01*
X195476580Y-76386619D02*
X195552771Y-76310429D01*
X195552771Y-76310429D02*
X195590866Y-76234238D01*
X195362295Y-76958048D02*
X195362295Y-77491382D01*
X195362295Y-77491382D02*
X196162295Y-77148524D01*
X192762295Y-75662810D02*
X192762295Y-75739000D01*
X192762295Y-75739000D02*
X192800390Y-75815191D01*
X192800390Y-75815191D02*
X192838485Y-75853286D01*
X192838485Y-75853286D02*
X192914676Y-75891381D01*
X192914676Y-75891381D02*
X193067057Y-75929476D01*
X193067057Y-75929476D02*
X193257533Y-75929476D01*
X193257533Y-75929476D02*
X193409914Y-75891381D01*
X193409914Y-75891381D02*
X193486104Y-75853286D01*
X193486104Y-75853286D02*
X193524200Y-75815191D01*
X193524200Y-75815191D02*
X193562295Y-75739000D01*
X193562295Y-75739000D02*
X193562295Y-75662810D01*
X193562295Y-75662810D02*
X193524200Y-75586619D01*
X193524200Y-75586619D02*
X193486104Y-75548524D01*
X193486104Y-75548524D02*
X193409914Y-75510429D01*
X193409914Y-75510429D02*
X193257533Y-75472333D01*
X193257533Y-75472333D02*
X193067057Y-75472333D01*
X193067057Y-75472333D02*
X192914676Y-75510429D01*
X192914676Y-75510429D02*
X192838485Y-75548524D01*
X192838485Y-75548524D02*
X192800390Y-75586619D01*
X192800390Y-75586619D02*
X192762295Y-75662810D01*
X192838485Y-76234238D02*
X192800390Y-76272334D01*
X192800390Y-76272334D02*
X192762295Y-76348524D01*
X192762295Y-76348524D02*
X192762295Y-76539000D01*
X192762295Y-76539000D02*
X192800390Y-76615191D01*
X192800390Y-76615191D02*
X192838485Y-76653286D01*
X192838485Y-76653286D02*
X192914676Y-76691381D01*
X192914676Y-76691381D02*
X192990866Y-76691381D01*
X192990866Y-76691381D02*
X193105152Y-76653286D01*
X193105152Y-76653286D02*
X193562295Y-76196143D01*
X193562295Y-76196143D02*
X193562295Y-76691381D01*
X192762295Y-77186620D02*
X192762295Y-77262810D01*
X192762295Y-77262810D02*
X192800390Y-77339001D01*
X192800390Y-77339001D02*
X192838485Y-77377096D01*
X192838485Y-77377096D02*
X192914676Y-77415191D01*
X192914676Y-77415191D02*
X193067057Y-77453286D01*
X193067057Y-77453286D02*
X193257533Y-77453286D01*
X193257533Y-77453286D02*
X193409914Y-77415191D01*
X193409914Y-77415191D02*
X193486104Y-77377096D01*
X193486104Y-77377096D02*
X193524200Y-77339001D01*
X193524200Y-77339001D02*
X193562295Y-77262810D01*
X193562295Y-77262810D02*
X193562295Y-77186620D01*
X193562295Y-77186620D02*
X193524200Y-77110429D01*
X193524200Y-77110429D02*
X193486104Y-77072334D01*
X193486104Y-77072334D02*
X193409914Y-77034239D01*
X193409914Y-77034239D02*
X193257533Y-76996143D01*
X193257533Y-76996143D02*
X193067057Y-76996143D01*
X193067057Y-76996143D02*
X192914676Y-77034239D01*
X192914676Y-77034239D02*
X192838485Y-77072334D01*
X192838485Y-77072334D02*
X192800390Y-77110429D01*
X192800390Y-77110429D02*
X192762295Y-77186620D01*
X190262295Y-75662810D02*
X190262295Y-75739000D01*
X190262295Y-75739000D02*
X190300390Y-75815191D01*
X190300390Y-75815191D02*
X190338485Y-75853286D01*
X190338485Y-75853286D02*
X190414676Y-75891381D01*
X190414676Y-75891381D02*
X190567057Y-75929476D01*
X190567057Y-75929476D02*
X190757533Y-75929476D01*
X190757533Y-75929476D02*
X190909914Y-75891381D01*
X190909914Y-75891381D02*
X190986104Y-75853286D01*
X190986104Y-75853286D02*
X191024200Y-75815191D01*
X191024200Y-75815191D02*
X191062295Y-75739000D01*
X191062295Y-75739000D02*
X191062295Y-75662810D01*
X191062295Y-75662810D02*
X191024200Y-75586619D01*
X191024200Y-75586619D02*
X190986104Y-75548524D01*
X190986104Y-75548524D02*
X190909914Y-75510429D01*
X190909914Y-75510429D02*
X190757533Y-75472333D01*
X190757533Y-75472333D02*
X190567057Y-75472333D01*
X190567057Y-75472333D02*
X190414676Y-75510429D01*
X190414676Y-75510429D02*
X190338485Y-75548524D01*
X190338485Y-75548524D02*
X190300390Y-75586619D01*
X190300390Y-75586619D02*
X190262295Y-75662810D01*
X190338485Y-76234238D02*
X190300390Y-76272334D01*
X190300390Y-76272334D02*
X190262295Y-76348524D01*
X190262295Y-76348524D02*
X190262295Y-76539000D01*
X190262295Y-76539000D02*
X190300390Y-76615191D01*
X190300390Y-76615191D02*
X190338485Y-76653286D01*
X190338485Y-76653286D02*
X190414676Y-76691381D01*
X190414676Y-76691381D02*
X190490866Y-76691381D01*
X190490866Y-76691381D02*
X190605152Y-76653286D01*
X190605152Y-76653286D02*
X191062295Y-76196143D01*
X191062295Y-76196143D02*
X191062295Y-76691381D01*
X190338485Y-76996143D02*
X190300390Y-77034239D01*
X190300390Y-77034239D02*
X190262295Y-77110429D01*
X190262295Y-77110429D02*
X190262295Y-77300905D01*
X190262295Y-77300905D02*
X190300390Y-77377096D01*
X190300390Y-77377096D02*
X190338485Y-77415191D01*
X190338485Y-77415191D02*
X190414676Y-77453286D01*
X190414676Y-77453286D02*
X190490866Y-77453286D01*
X190490866Y-77453286D02*
X190605152Y-77415191D01*
X190605152Y-77415191D02*
X191062295Y-76958048D01*
X191062295Y-76958048D02*
X191062295Y-77453286D01*
X187752295Y-75662810D02*
X187752295Y-75739000D01*
X187752295Y-75739000D02*
X187790390Y-75815191D01*
X187790390Y-75815191D02*
X187828485Y-75853286D01*
X187828485Y-75853286D02*
X187904676Y-75891381D01*
X187904676Y-75891381D02*
X188057057Y-75929476D01*
X188057057Y-75929476D02*
X188247533Y-75929476D01*
X188247533Y-75929476D02*
X188399914Y-75891381D01*
X188399914Y-75891381D02*
X188476104Y-75853286D01*
X188476104Y-75853286D02*
X188514200Y-75815191D01*
X188514200Y-75815191D02*
X188552295Y-75739000D01*
X188552295Y-75739000D02*
X188552295Y-75662810D01*
X188552295Y-75662810D02*
X188514200Y-75586619D01*
X188514200Y-75586619D02*
X188476104Y-75548524D01*
X188476104Y-75548524D02*
X188399914Y-75510429D01*
X188399914Y-75510429D02*
X188247533Y-75472333D01*
X188247533Y-75472333D02*
X188057057Y-75472333D01*
X188057057Y-75472333D02*
X187904676Y-75510429D01*
X187904676Y-75510429D02*
X187828485Y-75548524D01*
X187828485Y-75548524D02*
X187790390Y-75586619D01*
X187790390Y-75586619D02*
X187752295Y-75662810D01*
X187828485Y-76234238D02*
X187790390Y-76272334D01*
X187790390Y-76272334D02*
X187752295Y-76348524D01*
X187752295Y-76348524D02*
X187752295Y-76539000D01*
X187752295Y-76539000D02*
X187790390Y-76615191D01*
X187790390Y-76615191D02*
X187828485Y-76653286D01*
X187828485Y-76653286D02*
X187904676Y-76691381D01*
X187904676Y-76691381D02*
X187980866Y-76691381D01*
X187980866Y-76691381D02*
X188095152Y-76653286D01*
X188095152Y-76653286D02*
X188552295Y-76196143D01*
X188552295Y-76196143D02*
X188552295Y-76691381D01*
X188018961Y-77377096D02*
X188552295Y-77377096D01*
X187714200Y-77186620D02*
X188285628Y-76996143D01*
X188285628Y-76996143D02*
X188285628Y-77491382D01*
X186012295Y-75929476D02*
X186012295Y-75472333D01*
X186012295Y-75700905D02*
X185212295Y-75700905D01*
X185212295Y-75700905D02*
X185326580Y-75624714D01*
X185326580Y-75624714D02*
X185402771Y-75548524D01*
X185402771Y-75548524D02*
X185440866Y-75472333D01*
X185212295Y-76424715D02*
X185212295Y-76500905D01*
X185212295Y-76500905D02*
X185250390Y-76577096D01*
X185250390Y-76577096D02*
X185288485Y-76615191D01*
X185288485Y-76615191D02*
X185364676Y-76653286D01*
X185364676Y-76653286D02*
X185517057Y-76691381D01*
X185517057Y-76691381D02*
X185707533Y-76691381D01*
X185707533Y-76691381D02*
X185859914Y-76653286D01*
X185859914Y-76653286D02*
X185936104Y-76615191D01*
X185936104Y-76615191D02*
X185974200Y-76577096D01*
X185974200Y-76577096D02*
X186012295Y-76500905D01*
X186012295Y-76500905D02*
X186012295Y-76424715D01*
X186012295Y-76424715D02*
X185974200Y-76348524D01*
X185974200Y-76348524D02*
X185936104Y-76310429D01*
X185936104Y-76310429D02*
X185859914Y-76272334D01*
X185859914Y-76272334D02*
X185707533Y-76234238D01*
X185707533Y-76234238D02*
X185517057Y-76234238D01*
X185517057Y-76234238D02*
X185364676Y-76272334D01*
X185364676Y-76272334D02*
X185288485Y-76310429D01*
X185288485Y-76310429D02*
X185250390Y-76348524D01*
X185250390Y-76348524D02*
X185212295Y-76424715D01*
X185212295Y-77186620D02*
X185212295Y-77262810D01*
X185212295Y-77262810D02*
X185250390Y-77339001D01*
X185250390Y-77339001D02*
X185288485Y-77377096D01*
X185288485Y-77377096D02*
X185364676Y-77415191D01*
X185364676Y-77415191D02*
X185517057Y-77453286D01*
X185517057Y-77453286D02*
X185707533Y-77453286D01*
X185707533Y-77453286D02*
X185859914Y-77415191D01*
X185859914Y-77415191D02*
X185936104Y-77377096D01*
X185936104Y-77377096D02*
X185974200Y-77339001D01*
X185974200Y-77339001D02*
X186012295Y-77262810D01*
X186012295Y-77262810D02*
X186012295Y-77186620D01*
X186012295Y-77186620D02*
X185974200Y-77110429D01*
X185974200Y-77110429D02*
X185936104Y-77072334D01*
X185936104Y-77072334D02*
X185859914Y-77034239D01*
X185859914Y-77034239D02*
X185707533Y-76996143D01*
X185707533Y-76996143D02*
X185517057Y-76996143D01*
X185517057Y-76996143D02*
X185364676Y-77034239D01*
X185364676Y-77034239D02*
X185288485Y-77072334D01*
X185288485Y-77072334D02*
X185250390Y-77110429D01*
X185250390Y-77110429D02*
X185212295Y-77186620D01*
X180932295Y-75929476D02*
X180932295Y-75472333D01*
X180932295Y-75700905D02*
X180132295Y-75700905D01*
X180132295Y-75700905D02*
X180246580Y-75624714D01*
X180246580Y-75624714D02*
X180322771Y-75548524D01*
X180322771Y-75548524D02*
X180360866Y-75472333D01*
X180132295Y-76424715D02*
X180132295Y-76500905D01*
X180132295Y-76500905D02*
X180170390Y-76577096D01*
X180170390Y-76577096D02*
X180208485Y-76615191D01*
X180208485Y-76615191D02*
X180284676Y-76653286D01*
X180284676Y-76653286D02*
X180437057Y-76691381D01*
X180437057Y-76691381D02*
X180627533Y-76691381D01*
X180627533Y-76691381D02*
X180779914Y-76653286D01*
X180779914Y-76653286D02*
X180856104Y-76615191D01*
X180856104Y-76615191D02*
X180894200Y-76577096D01*
X180894200Y-76577096D02*
X180932295Y-76500905D01*
X180932295Y-76500905D02*
X180932295Y-76424715D01*
X180932295Y-76424715D02*
X180894200Y-76348524D01*
X180894200Y-76348524D02*
X180856104Y-76310429D01*
X180856104Y-76310429D02*
X180779914Y-76272334D01*
X180779914Y-76272334D02*
X180627533Y-76234238D01*
X180627533Y-76234238D02*
X180437057Y-76234238D01*
X180437057Y-76234238D02*
X180284676Y-76272334D01*
X180284676Y-76272334D02*
X180208485Y-76310429D01*
X180208485Y-76310429D02*
X180170390Y-76348524D01*
X180170390Y-76348524D02*
X180132295Y-76424715D01*
X180398961Y-77377096D02*
X180932295Y-77377096D01*
X180094200Y-77186620D02*
X180665628Y-76996143D01*
X180665628Y-76996143D02*
X180665628Y-77491382D01*
D11*
%TO.C,D1*%
X108300000Y-152250000D02*
X108300000Y-151750000D01*
X108700000Y-152250000D02*
X108300000Y-152850000D01*
X107900000Y-152250000D02*
X108700000Y-152250000D01*
X108300000Y-152850000D02*
X107900000Y-152250000D01*
X108300000Y-152850000D02*
X108850000Y-152850000D01*
X108300000Y-152850000D02*
X107750000Y-152850000D01*
X108300000Y-153250000D02*
X108300000Y-152850000D01*
%TO.C,D2*%
X108300000Y-133250000D02*
X108300000Y-132750000D01*
X108700000Y-133250000D02*
X108300000Y-133850000D01*
X107900000Y-133250000D02*
X108700000Y-133250000D01*
X108300000Y-133850000D02*
X107900000Y-133250000D01*
X108300000Y-133850000D02*
X108850000Y-133850000D01*
X108300000Y-133850000D02*
X107750000Y-133850000D01*
X108300000Y-134250000D02*
X108300000Y-133850000D01*
%TO.C,D3*%
X108300000Y-114250000D02*
X108300000Y-113750000D01*
X108700000Y-114250000D02*
X108300000Y-114850000D01*
X107900000Y-114250000D02*
X108700000Y-114250000D01*
X108300000Y-114850000D02*
X107900000Y-114250000D01*
X108300000Y-114850000D02*
X108850000Y-114850000D01*
X108300000Y-114850000D02*
X107750000Y-114850000D01*
X108300000Y-115250000D02*
X108300000Y-114850000D01*
%TO.C,D4*%
X108300000Y-95250000D02*
X108300000Y-94750000D01*
X108700000Y-95250000D02*
X108300000Y-95850000D01*
X107900000Y-95250000D02*
X108700000Y-95250000D01*
X108300000Y-95850000D02*
X107900000Y-95250000D01*
X108300000Y-95850000D02*
X108850000Y-95850000D01*
X108300000Y-95850000D02*
X107750000Y-95850000D01*
X108300000Y-96250000D02*
X108300000Y-95850000D01*
%TO.C,D5*%
X128300000Y-152250000D02*
X128300000Y-151750000D01*
X128700000Y-152250000D02*
X128300000Y-152850000D01*
X127900000Y-152250000D02*
X128700000Y-152250000D01*
X128300000Y-152850000D02*
X127900000Y-152250000D01*
X128300000Y-152850000D02*
X128850000Y-152850000D01*
X128300000Y-152850000D02*
X127750000Y-152850000D01*
X128300000Y-153250000D02*
X128300000Y-152850000D01*
%TO.C,D6*%
X128300000Y-133250000D02*
X128300000Y-132750000D01*
X128700000Y-133250000D02*
X128300000Y-133850000D01*
X127900000Y-133250000D02*
X128700000Y-133250000D01*
X128300000Y-133850000D02*
X127900000Y-133250000D01*
X128300000Y-133850000D02*
X128850000Y-133850000D01*
X128300000Y-133850000D02*
X127750000Y-133850000D01*
X128300000Y-134250000D02*
X128300000Y-133850000D01*
%TO.C,D7*%
X128300000Y-114250000D02*
X128300000Y-113750000D01*
X128700000Y-114250000D02*
X128300000Y-114850000D01*
X127900000Y-114250000D02*
X128700000Y-114250000D01*
X128300000Y-114850000D02*
X127900000Y-114250000D01*
X128300000Y-114850000D02*
X128850000Y-114850000D01*
X128300000Y-114850000D02*
X127750000Y-114850000D01*
X128300000Y-115250000D02*
X128300000Y-114850000D01*
%TO.C,D8*%
X128300000Y-95250000D02*
X128300000Y-94750000D01*
X128700000Y-95250000D02*
X128300000Y-95850000D01*
X127900000Y-95250000D02*
X128700000Y-95250000D01*
X128300000Y-95850000D02*
X127900000Y-95250000D01*
X128300000Y-95850000D02*
X128850000Y-95850000D01*
X128300000Y-95850000D02*
X127750000Y-95850000D01*
X128300000Y-96250000D02*
X128300000Y-95850000D01*
%TO.C,D9*%
X148300000Y-138250000D02*
X148300000Y-137750000D01*
X148700000Y-138250000D02*
X148300000Y-138850000D01*
X147900000Y-138250000D02*
X148700000Y-138250000D01*
X148300000Y-138850000D02*
X147900000Y-138250000D01*
X148300000Y-138850000D02*
X148850000Y-138850000D01*
X148300000Y-138850000D02*
X147750000Y-138850000D01*
X148300000Y-139250000D02*
X148300000Y-138850000D01*
%TO.C,D10*%
X148300000Y-119250000D02*
X148300000Y-118750000D01*
X148700000Y-119250000D02*
X148300000Y-119850000D01*
X147900000Y-119250000D02*
X148700000Y-119250000D01*
X148300000Y-119850000D02*
X147900000Y-119250000D01*
X148300000Y-119850000D02*
X148850000Y-119850000D01*
X148300000Y-119850000D02*
X147750000Y-119850000D01*
X148300000Y-120250000D02*
X148300000Y-119850000D01*
%TO.C,D11*%
X148300000Y-100250000D02*
X148300000Y-99750000D01*
X148700000Y-100250000D02*
X148300000Y-100850000D01*
X147900000Y-100250000D02*
X148700000Y-100250000D01*
X148300000Y-100850000D02*
X147900000Y-100250000D01*
X148300000Y-100850000D02*
X148850000Y-100850000D01*
X148300000Y-100850000D02*
X147750000Y-100850000D01*
X148300000Y-101250000D02*
X148300000Y-100850000D01*
%TO.C,D12*%
X148300000Y-81250000D02*
X148300000Y-80750000D01*
X148700000Y-81250000D02*
X148300000Y-81850000D01*
X147900000Y-81250000D02*
X148700000Y-81250000D01*
X148300000Y-81850000D02*
X147900000Y-81250000D01*
X148300000Y-81850000D02*
X148850000Y-81850000D01*
X148300000Y-81850000D02*
X147750000Y-81850000D01*
X148300000Y-82250000D02*
X148300000Y-81850000D01*
%TO.C,D13*%
X168300000Y-130250000D02*
X168300000Y-129750000D01*
X168700000Y-130250000D02*
X168300000Y-130850000D01*
X167900000Y-130250000D02*
X168700000Y-130250000D01*
X168300000Y-130850000D02*
X167900000Y-130250000D01*
X168300000Y-130850000D02*
X168850000Y-130850000D01*
X168300000Y-130850000D02*
X167750000Y-130850000D01*
X168300000Y-131250000D02*
X168300000Y-130850000D01*
%TO.C,D14*%
X168300000Y-111250000D02*
X168300000Y-110750000D01*
X168700000Y-111250000D02*
X168300000Y-111850000D01*
X167900000Y-111250000D02*
X168700000Y-111250000D01*
X168300000Y-111850000D02*
X167900000Y-111250000D01*
X168300000Y-111850000D02*
X168850000Y-111850000D01*
X168300000Y-111850000D02*
X167750000Y-111850000D01*
X168300000Y-112250000D02*
X168300000Y-111850000D01*
%TO.C,D15*%
X168300000Y-92250000D02*
X168300000Y-91750000D01*
X168700000Y-92250000D02*
X168300000Y-92850000D01*
X167900000Y-92250000D02*
X168700000Y-92250000D01*
X168300000Y-92850000D02*
X167900000Y-92250000D01*
X168300000Y-92850000D02*
X168850000Y-92850000D01*
X168300000Y-92850000D02*
X167750000Y-92850000D01*
X168300000Y-93250000D02*
X168300000Y-92850000D01*
%TO.C,D16*%
X168300000Y-73250000D02*
X168300000Y-72750000D01*
X168700000Y-73250000D02*
X168300000Y-73850000D01*
X167900000Y-73250000D02*
X168700000Y-73250000D01*
X168300000Y-73850000D02*
X167900000Y-73250000D01*
X168300000Y-73850000D02*
X168850000Y-73850000D01*
X168300000Y-73850000D02*
X167750000Y-73850000D01*
X168300000Y-74250000D02*
X168300000Y-73850000D01*
%TO.C,D17*%
X188300000Y-119250000D02*
X188300000Y-118750000D01*
X188700000Y-119250000D02*
X188300000Y-119850000D01*
X187900000Y-119250000D02*
X188700000Y-119250000D01*
X188300000Y-119850000D02*
X187900000Y-119250000D01*
X188300000Y-119850000D02*
X188850000Y-119850000D01*
X188300000Y-119850000D02*
X187750000Y-119850000D01*
X188300000Y-120250000D02*
X188300000Y-119850000D01*
%TO.C,D18*%
X188300000Y-100250000D02*
X188300000Y-99750000D01*
X188700000Y-100250000D02*
X188300000Y-100850000D01*
X187900000Y-100250000D02*
X188700000Y-100250000D01*
X188300000Y-100850000D02*
X187900000Y-100250000D01*
X188300000Y-100850000D02*
X188850000Y-100850000D01*
X188300000Y-100850000D02*
X187750000Y-100850000D01*
X188300000Y-101250000D02*
X188300000Y-100850000D01*
%TO.C,D19*%
X188300000Y-81250000D02*
X188300000Y-80750000D01*
X188700000Y-81250000D02*
X188300000Y-81850000D01*
X187900000Y-81250000D02*
X188700000Y-81250000D01*
X188300000Y-81850000D02*
X187900000Y-81250000D01*
X188300000Y-81850000D02*
X188850000Y-81850000D01*
X188300000Y-81850000D02*
X187750000Y-81850000D01*
X188300000Y-82250000D02*
X188300000Y-81850000D01*
%TO.C,D20*%
X208300000Y-119250000D02*
X208300000Y-118750000D01*
X208700000Y-119250000D02*
X208300000Y-119850000D01*
X207900000Y-119250000D02*
X208700000Y-119250000D01*
X208300000Y-119850000D02*
X207900000Y-119250000D01*
X208300000Y-119850000D02*
X208850000Y-119850000D01*
X208300000Y-119850000D02*
X207750000Y-119850000D01*
X208300000Y-120250000D02*
X208300000Y-119850000D01*
%TO.C,D21*%
X208300000Y-100250000D02*
X208300000Y-99750000D01*
X208700000Y-100250000D02*
X208300000Y-100850000D01*
X207900000Y-100250000D02*
X208700000Y-100250000D01*
X208300000Y-100850000D02*
X207900000Y-100250000D01*
X208300000Y-100850000D02*
X208850000Y-100850000D01*
X208300000Y-100850000D02*
X207750000Y-100850000D01*
X208300000Y-101250000D02*
X208300000Y-100850000D01*
%TO.C,D22*%
X208300000Y-81250000D02*
X208300000Y-80750000D01*
X208700000Y-81250000D02*
X208300000Y-81850000D01*
X207900000Y-81250000D02*
X208700000Y-81250000D01*
X208300000Y-81850000D02*
X207900000Y-81250000D01*
X208300000Y-81850000D02*
X208850000Y-81850000D01*
X208300000Y-81850000D02*
X207750000Y-81850000D01*
X208300000Y-82250000D02*
X208300000Y-81850000D01*
%TO.C,D23*%
X203300000Y-138250000D02*
X203300000Y-137750000D01*
X203700000Y-138250000D02*
X203300000Y-138850000D01*
X202900000Y-138250000D02*
X203700000Y-138250000D01*
X203300000Y-138850000D02*
X202900000Y-138250000D01*
X203300000Y-138850000D02*
X203850000Y-138850000D01*
X203300000Y-138850000D02*
X202750000Y-138850000D01*
X203300000Y-139250000D02*
X203300000Y-138850000D01*
D12*
%TO.C,MCU1*%
X176760000Y-90890000D02*
X209780000Y-90890000D01*
X176760000Y-73110000D02*
X176760000Y-90890000D01*
X209780000Y-73110000D02*
X176760000Y-73110000D01*
X209780000Y-90890000D02*
X209780000Y-73110000D01*
D10*
%TO.C,T1*%
X209350000Y-132950000D02*
X209350000Y-129050000D01*
X209350000Y-131000000D02*
X209350000Y-127700000D01*
X209350000Y-127700000D02*
X206500000Y-127700000D01*
X206500000Y-127700000D02*
X206500000Y-134300000D01*
X206500000Y-134300000D02*
X209350000Y-134300000D01*
X209350000Y-131000000D02*
X209350000Y-134300000D01*
D13*
%TO.C,B1*%
X207725000Y-137550000D02*
X208275000Y-137550000D01*
X209850000Y-138575000D02*
X209850000Y-137650000D01*
X209850000Y-142350000D02*
X209850000Y-141425000D01*
X206150000Y-142350000D02*
X206150000Y-137650000D01*
X207725000Y-142450000D02*
X208275000Y-142450000D01*
D10*
%TO.C,JST1*%
X160250000Y-86250000D02*
X158650000Y-86250000D01*
X158650000Y-86250000D02*
X158650000Y-86950000D01*
X158650000Y-86950000D02*
X166250000Y-86950000D01*
X166250000Y-86950000D02*
X166250000Y-81050000D01*
X166250000Y-81050000D02*
X158650000Y-81050000D01*
X158650000Y-81050000D02*
X158650000Y-81750000D01*
X158650000Y-81750000D02*
X160250000Y-81750000D01*
X160250000Y-81750000D02*
X160250000Y-86250000D01*
X161500000Y-85000000D02*
X162000000Y-85000000D01*
X161750000Y-85250000D02*
X161750000Y-84750000D01*
%TD*%
D14*
%TO.C,MCU1*%
X205970000Y-74380000D03*
X203430000Y-74380000D03*
X200890000Y-74380000D03*
X198350000Y-74380000D03*
X195810000Y-74380000D03*
X193270000Y-74380000D03*
X190730000Y-74380000D03*
X188190000Y-74380000D03*
X185650000Y-74380000D03*
X183110000Y-74380000D03*
X180570000Y-74380000D03*
X178030000Y-74380000D03*
X178030000Y-89620000D03*
X180570000Y-89620000D03*
X183110000Y-89620000D03*
X185650000Y-89620000D03*
X188190000Y-89620000D03*
X190730000Y-89620000D03*
X193270000Y-89620000D03*
X195810000Y-89620000D03*
X198350000Y-89620000D03*
X200890000Y-89620000D03*
X203430000Y-89620000D03*
X205970000Y-89620000D03*
X183110000Y-76920000D03*
X183110000Y-79460000D03*
X183110000Y-82000000D03*
%TD*%
M02*
