%TF.GenerationSoftware,KiCad,Pcbnew,8.0.7*%
%TF.CreationDate,2025-01-04T23:43:43-07:00*%
%TF.ProjectId,left,6c656674-2e6b-4696-9361-645f70636258,v1.0.0*%
%TF.SameCoordinates,Original*%
%TF.FileFunction,Paste,Bot*%
%TF.FilePolarity,Positive*%
%FSLAX46Y46*%
G04 Gerber Fmt 4.6, Leading zero omitted, Abs format (unit mm)*
G04 Created by KiCad (PCBNEW 8.0.7) date 2025-01-04 23:43:43*
%MOMM*%
%LPD*%
G01*
G04 APERTURE LIST*
%ADD10R,2.600000X2.600000*%
%ADD11R,1.200000X0.900000*%
%ADD12R,1.250000X0.900000*%
%ADD13R,0.900000X0.900000*%
%ADD14R,1.000000X1.550000*%
G04 APERTURE END LIST*
D10*
%TO.C,S1*%
X103275000Y-155950000D03*
X91725000Y-153750000D03*
%TD*%
%TO.C,S2*%
X103275000Y-136950000D03*
X91725000Y-134750000D03*
%TD*%
%TO.C,S3*%
X103275000Y-117950000D03*
X91725000Y-115750000D03*
%TD*%
%TO.C,S4*%
X103275000Y-98950000D03*
X91725000Y-96750000D03*
%TD*%
%TO.C,S5*%
X123275000Y-155950000D03*
X111725000Y-153750000D03*
%TD*%
%TO.C,S6*%
X123275000Y-136950000D03*
X111725000Y-134750000D03*
%TD*%
%TO.C,S7*%
X123275000Y-117950000D03*
X111725000Y-115750000D03*
%TD*%
%TO.C,S8*%
X123275000Y-98950000D03*
X111725000Y-96750000D03*
%TD*%
%TO.C,S9*%
X143275000Y-141950000D03*
X131725000Y-139750000D03*
%TD*%
%TO.C,S10*%
X143275000Y-122950000D03*
X131725000Y-120750000D03*
%TD*%
%TO.C,S11*%
X143275000Y-103950000D03*
X131725000Y-101750000D03*
%TD*%
%TO.C,S12*%
X143275000Y-84950000D03*
X131725000Y-82750000D03*
%TD*%
%TO.C,S13*%
X163275000Y-133950000D03*
X151725000Y-131750000D03*
%TD*%
%TO.C,S14*%
X163275000Y-114950000D03*
X151725000Y-112750000D03*
%TD*%
%TO.C,S15*%
X163275000Y-95950000D03*
X151725000Y-93750000D03*
%TD*%
%TO.C,S16*%
X163275000Y-76950000D03*
X151725000Y-74750000D03*
%TD*%
%TO.C,S17*%
X183275000Y-122950000D03*
X171725000Y-120750000D03*
%TD*%
%TO.C,S18*%
X183275000Y-103950000D03*
X171725000Y-101750000D03*
%TD*%
%TO.C,S19*%
X183275000Y-84950000D03*
X171725000Y-82750000D03*
%TD*%
%TO.C,S20*%
X203275000Y-122950000D03*
X191725000Y-120750000D03*
%TD*%
%TO.C,S21*%
X203275000Y-103950000D03*
X191725000Y-101750000D03*
%TD*%
%TO.C,S22*%
X203275000Y-84950000D03*
X191725000Y-82750000D03*
%TD*%
%TO.C,S23*%
X198275000Y-141950000D03*
X186725000Y-139750000D03*
%TD*%
D11*
%TO.C,D1*%
X108300000Y-150850000D03*
X108300000Y-154150000D03*
%TD*%
%TO.C,D2*%
X108300000Y-131850000D03*
X108300000Y-135150000D03*
%TD*%
%TO.C,D3*%
X108300000Y-112850000D03*
X108300000Y-116150000D03*
%TD*%
%TO.C,D4*%
X108300000Y-93850000D03*
X108300000Y-97150000D03*
%TD*%
%TO.C,D5*%
X128300000Y-150850000D03*
X128300000Y-154150000D03*
%TD*%
%TO.C,D6*%
X128300000Y-131850000D03*
X128300000Y-135150000D03*
%TD*%
%TO.C,D7*%
X128300000Y-112850000D03*
X128300000Y-116150000D03*
%TD*%
%TO.C,D8*%
X128300000Y-93850000D03*
X128300000Y-97150000D03*
%TD*%
%TO.C,D9*%
X148300000Y-136850000D03*
X148300000Y-140150000D03*
%TD*%
%TO.C,D10*%
X148300000Y-117850000D03*
X148300000Y-121150000D03*
%TD*%
%TO.C,D11*%
X148300000Y-98850000D03*
X148300000Y-102150000D03*
%TD*%
%TO.C,D12*%
X148300000Y-79850000D03*
X148300000Y-83150000D03*
%TD*%
%TO.C,D13*%
X168300000Y-128850000D03*
X168300000Y-132150000D03*
%TD*%
%TO.C,D14*%
X168300000Y-109850000D03*
X168300000Y-113150000D03*
%TD*%
%TO.C,D15*%
X168300000Y-90850000D03*
X168300000Y-94150000D03*
%TD*%
%TO.C,D16*%
X168300000Y-71850000D03*
X168300000Y-75150000D03*
%TD*%
%TO.C,D17*%
X188300000Y-117850000D03*
X188300000Y-121150000D03*
%TD*%
%TO.C,D18*%
X188300000Y-98850000D03*
X188300000Y-102150000D03*
%TD*%
%TO.C,D19*%
X188300000Y-79850000D03*
X188300000Y-83150000D03*
%TD*%
%TO.C,D20*%
X208300000Y-117850000D03*
X208300000Y-121150000D03*
%TD*%
%TO.C,D21*%
X208300000Y-98850000D03*
X208300000Y-102150000D03*
%TD*%
%TO.C,D22*%
X208300000Y-79850000D03*
X208300000Y-83150000D03*
%TD*%
%TO.C,D23*%
X203300000Y-136850000D03*
X203300000Y-140150000D03*
%TD*%
D12*
%TO.C,T1*%
X205925000Y-128750000D03*
X205925000Y-131750000D03*
X205925000Y-133250000D03*
D13*
X209100000Y-134700000D03*
X206900000Y-134700000D03*
X206900000Y-127300000D03*
X209100000Y-127300000D03*
%TD*%
D14*
%TO.C,B1*%
X208850000Y-137375000D03*
X208850000Y-142625000D03*
X207150000Y-137375000D03*
X207150000Y-142625000D03*
%TD*%
M02*
