%TF.GenerationSoftware,KiCad,Pcbnew,8.0.7*%
%TF.CreationDate,2025-01-04T23:43:43-07:00*%
%TF.ProjectId,left,6c656674-2e6b-4696-9361-645f70636258,v1.0.0*%
%TF.SameCoordinates,Original*%
%TF.FileFunction,Soldermask,Bot*%
%TF.FilePolarity,Negative*%
%FSLAX46Y46*%
G04 Gerber Fmt 4.6, Leading zero omitted, Abs format (unit mm)*
G04 Created by KiCad (PCBNEW 8.0.7) date 2025-01-04 23:43:43*
%MOMM*%
%LPD*%
G01*
G04 APERTURE LIST*
G04 Aperture macros list*
%AMRoundRect*
0 Rectangle with rounded corners*
0 $1 Rounding radius*
0 $2 $3 $4 $5 $6 $7 $8 $9 X,Y pos of 4 corners*
0 Add a 4 corners polygon primitive as box body*
4,1,4,$2,$3,$4,$5,$6,$7,$8,$9,$2,$3,0*
0 Add four circle primitives for the rounded corners*
1,1,$1+$1,$2,$3*
1,1,$1+$1,$4,$5*
1,1,$1+$1,$6,$7*
1,1,$1+$1,$8,$9*
0 Add four rect primitives between the rounded corners*
20,1,$1+$1,$2,$3,$4,$5,0*
20,1,$1+$1,$4,$5,$6,$7,0*
20,1,$1+$1,$6,$7,$8,$9,0*
20,1,$1+$1,$8,$9,$2,$3,0*%
G04 Aperture macros list end*
%ADD10C,3.529000*%
%ADD11C,1.801800*%
%ADD12C,3.100000*%
%ADD13RoundRect,0.050000X1.300000X1.300000X-1.300000X1.300000X-1.300000X-1.300000X1.300000X-1.300000X0*%
%ADD14RoundRect,0.050000X0.600000X-0.450000X0.600000X0.450000X-0.600000X0.450000X-0.600000X-0.450000X0*%
%ADD15RoundRect,0.050000X0.889000X-0.889000X0.889000X0.889000X-0.889000X0.889000X-0.889000X-0.889000X0*%
%ADD16C,2.005000*%
%ADD17C,1.852600*%
%ADD18C,1.100000*%
%ADD19RoundRect,0.050000X-0.625000X0.450000X-0.625000X-0.450000X0.625000X-0.450000X0.625000X0.450000X0*%
%ADD20RoundRect,0.050000X-0.450000X0.450000X-0.450000X-0.450000X0.450000X-0.450000X0.450000X0.450000X0*%
%ADD21C,0.850000*%
%ADD22RoundRect,0.050000X-0.500000X0.775000X-0.500000X-0.775000X0.500000X-0.775000X0.500000X0.775000X0*%
%ADD23RoundRect,0.050000X0.850000X-0.600000X0.850000X0.600000X-0.850000X0.600000X-0.850000X-0.600000X0*%
%ADD24O,1.800000X1.300000*%
%ADD25C,4.100000*%
G04 APERTURE END LIST*
D10*
%TO.C,S1*%
X100000000Y-150000000D03*
D11*
X94500000Y-150000000D03*
X105500000Y-150000000D03*
D12*
X95000000Y-153750000D03*
X100000000Y-155950000D03*
D13*
X103275000Y-155950000D03*
X91725000Y-153750000D03*
%TD*%
D10*
%TO.C,S2*%
X100000000Y-131000000D03*
D11*
X94500000Y-131000000D03*
X105500000Y-131000000D03*
D12*
X95000000Y-134750000D03*
X100000000Y-136950000D03*
D13*
X103275000Y-136950000D03*
X91725000Y-134750000D03*
%TD*%
D10*
%TO.C,S3*%
X100000000Y-112000000D03*
D11*
X94500000Y-112000000D03*
X105500000Y-112000000D03*
D12*
X95000000Y-115750000D03*
X100000000Y-117950000D03*
D13*
X103275000Y-117950000D03*
X91725000Y-115750000D03*
%TD*%
D10*
%TO.C,S4*%
X100000000Y-93000000D03*
D11*
X94500000Y-93000000D03*
X105500000Y-93000000D03*
D12*
X95000000Y-96750000D03*
X100000000Y-98950000D03*
D13*
X103275000Y-98950000D03*
X91725000Y-96750000D03*
%TD*%
D10*
%TO.C,S5*%
X120000000Y-150000000D03*
D11*
X114500000Y-150000000D03*
X125500000Y-150000000D03*
D12*
X115000000Y-153750000D03*
X120000000Y-155950000D03*
D13*
X123275000Y-155950000D03*
X111725000Y-153750000D03*
%TD*%
D10*
%TO.C,S6*%
X120000000Y-131000000D03*
D11*
X114500000Y-131000000D03*
X125500000Y-131000000D03*
D12*
X115000000Y-134750000D03*
X120000000Y-136950000D03*
D13*
X123275000Y-136950000D03*
X111725000Y-134750000D03*
%TD*%
D10*
%TO.C,S7*%
X120000000Y-112000000D03*
D11*
X114500000Y-112000000D03*
X125500000Y-112000000D03*
D12*
X115000000Y-115750000D03*
X120000000Y-117950000D03*
D13*
X123275000Y-117950000D03*
X111725000Y-115750000D03*
%TD*%
D10*
%TO.C,S8*%
X120000000Y-93000000D03*
D11*
X114500000Y-93000000D03*
X125500000Y-93000000D03*
D12*
X115000000Y-96750000D03*
X120000000Y-98950000D03*
D13*
X123275000Y-98950000D03*
X111725000Y-96750000D03*
%TD*%
D10*
%TO.C,S9*%
X140000000Y-136000000D03*
D11*
X134500000Y-136000000D03*
X145500000Y-136000000D03*
D12*
X135000000Y-139750000D03*
X140000000Y-141950000D03*
D13*
X143275000Y-141950000D03*
X131725000Y-139750000D03*
%TD*%
D10*
%TO.C,S10*%
X140000000Y-117000000D03*
D11*
X134500000Y-117000000D03*
X145500000Y-117000000D03*
D12*
X135000000Y-120750000D03*
X140000000Y-122950000D03*
D13*
X143275000Y-122950000D03*
X131725000Y-120750000D03*
%TD*%
D10*
%TO.C,S11*%
X140000000Y-98000000D03*
D11*
X134500000Y-98000000D03*
X145500000Y-98000000D03*
D12*
X135000000Y-101750000D03*
X140000000Y-103950000D03*
D13*
X143275000Y-103950000D03*
X131725000Y-101750000D03*
%TD*%
D10*
%TO.C,S12*%
X140000000Y-79000000D03*
D11*
X134500000Y-79000000D03*
X145500000Y-79000000D03*
D12*
X135000000Y-82750000D03*
X140000000Y-84950000D03*
D13*
X143275000Y-84950000D03*
X131725000Y-82750000D03*
%TD*%
D10*
%TO.C,S13*%
X160000000Y-128000000D03*
D11*
X154500000Y-128000000D03*
X165500000Y-128000000D03*
D12*
X155000000Y-131750000D03*
X160000000Y-133950000D03*
D13*
X163275000Y-133950000D03*
X151725000Y-131750000D03*
%TD*%
D10*
%TO.C,S14*%
X160000000Y-109000000D03*
D11*
X154500000Y-109000000D03*
X165500000Y-109000000D03*
D12*
X155000000Y-112750000D03*
X160000000Y-114950000D03*
D13*
X163275000Y-114950000D03*
X151725000Y-112750000D03*
%TD*%
D10*
%TO.C,S15*%
X160000000Y-90000000D03*
D11*
X154500000Y-90000000D03*
X165500000Y-90000000D03*
D12*
X155000000Y-93750000D03*
X160000000Y-95950000D03*
D13*
X163275000Y-95950000D03*
X151725000Y-93750000D03*
%TD*%
D10*
%TO.C,S16*%
X160000000Y-71000000D03*
D11*
X154500000Y-71000000D03*
X165500000Y-71000000D03*
D12*
X155000000Y-74750000D03*
X160000000Y-76950000D03*
D13*
X163275000Y-76950000D03*
X151725000Y-74750000D03*
%TD*%
D10*
%TO.C,S17*%
X180000000Y-117000000D03*
D11*
X174500000Y-117000000D03*
X185500000Y-117000000D03*
D12*
X175000000Y-120750000D03*
X180000000Y-122950000D03*
D13*
X183275000Y-122950000D03*
X171725000Y-120750000D03*
%TD*%
D10*
%TO.C,S18*%
X180000000Y-98000000D03*
D11*
X174500000Y-98000000D03*
X185500000Y-98000000D03*
D12*
X175000000Y-101750000D03*
X180000000Y-103950000D03*
D13*
X183275000Y-103950000D03*
X171725000Y-101750000D03*
%TD*%
D10*
%TO.C,S19*%
X180000000Y-79000000D03*
D11*
X174500000Y-79000000D03*
X185500000Y-79000000D03*
D12*
X175000000Y-82750000D03*
X180000000Y-84950000D03*
D13*
X183275000Y-84950000D03*
X171725000Y-82750000D03*
%TD*%
D10*
%TO.C,S20*%
X200000000Y-117000000D03*
D11*
X194500000Y-117000000D03*
X205500000Y-117000000D03*
D12*
X195000000Y-120750000D03*
X200000000Y-122950000D03*
D13*
X203275000Y-122950000D03*
X191725000Y-120750000D03*
%TD*%
D10*
%TO.C,S21*%
X200000000Y-98000000D03*
D11*
X194500000Y-98000000D03*
X205500000Y-98000000D03*
D12*
X195000000Y-101750000D03*
X200000000Y-103950000D03*
D13*
X203275000Y-103950000D03*
X191725000Y-101750000D03*
%TD*%
D10*
%TO.C,S22*%
X200000000Y-79000000D03*
D11*
X194500000Y-79000000D03*
X205500000Y-79000000D03*
D12*
X195000000Y-82750000D03*
X200000000Y-84950000D03*
D13*
X203275000Y-84950000D03*
X191725000Y-82750000D03*
%TD*%
D10*
%TO.C,S23*%
X195000000Y-136000000D03*
D11*
X189500000Y-136000000D03*
X200500000Y-136000000D03*
D12*
X190000000Y-139750000D03*
X195000000Y-141950000D03*
D13*
X198275000Y-141950000D03*
X186725000Y-139750000D03*
%TD*%
D14*
%TO.C,D1*%
X108300000Y-150850000D03*
X108300000Y-154150000D03*
D15*
X108300000Y-156310000D03*
D16*
X108300000Y-148690000D03*
%TD*%
D14*
%TO.C,D2*%
X108300000Y-131850000D03*
X108300000Y-135150000D03*
D15*
X108300000Y-137310000D03*
D16*
X108300000Y-129690000D03*
%TD*%
D14*
%TO.C,D3*%
X108300000Y-112850000D03*
X108300000Y-116150000D03*
D15*
X108300000Y-118310000D03*
D16*
X108300000Y-110690000D03*
%TD*%
D14*
%TO.C,D4*%
X108300000Y-93850000D03*
X108300000Y-97150000D03*
D15*
X108300000Y-99310000D03*
D16*
X108300000Y-91690000D03*
%TD*%
D14*
%TO.C,D5*%
X128300000Y-150850000D03*
X128300000Y-154150000D03*
D15*
X128300000Y-156310000D03*
D16*
X128300000Y-148690000D03*
%TD*%
D14*
%TO.C,D6*%
X128300000Y-131850000D03*
X128300000Y-135150000D03*
D15*
X128300000Y-137310000D03*
D16*
X128300000Y-129690000D03*
%TD*%
D14*
%TO.C,D7*%
X128300000Y-112850000D03*
X128300000Y-116150000D03*
D15*
X128300000Y-118310000D03*
D16*
X128300000Y-110690000D03*
%TD*%
D14*
%TO.C,D8*%
X128300000Y-93850000D03*
X128300000Y-97150000D03*
D15*
X128300000Y-99310000D03*
D16*
X128300000Y-91690000D03*
%TD*%
D14*
%TO.C,D9*%
X148300000Y-136850000D03*
X148300000Y-140150000D03*
D15*
X148300000Y-142310000D03*
D16*
X148300000Y-134690000D03*
%TD*%
D14*
%TO.C,D10*%
X148300000Y-117850000D03*
X148300000Y-121150000D03*
D15*
X148300000Y-123310000D03*
D16*
X148300000Y-115690000D03*
%TD*%
D14*
%TO.C,D11*%
X148300000Y-98850000D03*
X148300000Y-102150000D03*
D15*
X148300000Y-104310000D03*
D16*
X148300000Y-96690000D03*
%TD*%
D14*
%TO.C,D12*%
X148300000Y-79850000D03*
X148300000Y-83150000D03*
D15*
X148300000Y-85310000D03*
D16*
X148300000Y-77690000D03*
%TD*%
D14*
%TO.C,D13*%
X168300000Y-128850000D03*
X168300000Y-132150000D03*
D15*
X168300000Y-134310000D03*
D16*
X168300000Y-126690000D03*
%TD*%
D14*
%TO.C,D14*%
X168300000Y-109850000D03*
X168300000Y-113150000D03*
D15*
X168300000Y-115310000D03*
D16*
X168300000Y-107690000D03*
%TD*%
D14*
%TO.C,D15*%
X168300000Y-90850000D03*
X168300000Y-94150000D03*
D15*
X168300000Y-96310000D03*
D16*
X168300000Y-88690000D03*
%TD*%
D14*
%TO.C,D16*%
X168300000Y-71850000D03*
X168300000Y-75150000D03*
D15*
X168300000Y-77310000D03*
D16*
X168300000Y-69690000D03*
%TD*%
D14*
%TO.C,D17*%
X188300000Y-117850000D03*
X188300000Y-121150000D03*
D15*
X188300000Y-123310000D03*
D16*
X188300000Y-115690000D03*
%TD*%
D14*
%TO.C,D18*%
X188300000Y-98850000D03*
X188300000Y-102150000D03*
D15*
X188300000Y-104310000D03*
D16*
X188300000Y-96690000D03*
%TD*%
D14*
%TO.C,D19*%
X188300000Y-79850000D03*
X188300000Y-83150000D03*
D15*
X188300000Y-85310000D03*
D16*
X188300000Y-77690000D03*
%TD*%
D14*
%TO.C,D20*%
X208300000Y-117850000D03*
X208300000Y-121150000D03*
D15*
X208300000Y-123310000D03*
D16*
X208300000Y-115690000D03*
%TD*%
D14*
%TO.C,D21*%
X208300000Y-98850000D03*
X208300000Y-102150000D03*
D15*
X208300000Y-104310000D03*
D16*
X208300000Y-96690000D03*
%TD*%
D14*
%TO.C,D22*%
X208300000Y-79850000D03*
X208300000Y-83150000D03*
D15*
X208300000Y-85310000D03*
D16*
X208300000Y-77690000D03*
%TD*%
D14*
%TO.C,D23*%
X203300000Y-136850000D03*
X203300000Y-140150000D03*
D15*
X203300000Y-142310000D03*
D16*
X203300000Y-134690000D03*
%TD*%
D17*
%TO.C,MCU1*%
X205970000Y-74380000D03*
X203430000Y-74380000D03*
X200890000Y-74380000D03*
X198350000Y-74380000D03*
X195810000Y-74380000D03*
X193270000Y-74380000D03*
X190730000Y-74380000D03*
X188190000Y-74380000D03*
X185650000Y-74380000D03*
X183110000Y-74380000D03*
X180570000Y-74380000D03*
X178030000Y-74380000D03*
X178030000Y-89620000D03*
X180570000Y-89620000D03*
X183110000Y-89620000D03*
X185650000Y-89620000D03*
X188190000Y-89620000D03*
X190730000Y-89620000D03*
X193270000Y-89620000D03*
X195810000Y-89620000D03*
X198350000Y-89620000D03*
X200890000Y-89620000D03*
X203430000Y-89620000D03*
X205970000Y-89620000D03*
X183110000Y-76920000D03*
X183110000Y-79460000D03*
X183110000Y-82000000D03*
%TD*%
D18*
%TO.C,T1*%
X208000000Y-132500000D03*
X208000000Y-129500000D03*
D19*
X205925000Y-128750000D03*
X205925000Y-131750000D03*
X205925000Y-133250000D03*
D20*
X209100000Y-134700000D03*
X206900000Y-134700000D03*
X206900000Y-127300000D03*
X209100000Y-127300000D03*
%TD*%
D21*
%TO.C,B1*%
X209375000Y-140000000D03*
X206625000Y-140000000D03*
D22*
X208850000Y-137375000D03*
X208850000Y-142625000D03*
X207150000Y-137375000D03*
X207150000Y-142625000D03*
%TD*%
D23*
%TO.C,JST1*%
X160000000Y-85000000D03*
D24*
X160000000Y-83000000D03*
%TD*%
D25*
%TO.C,*%
X110000000Y-141500000D03*
%TD*%
%TO.C,*%
X110000000Y-103500000D03*
%TD*%
%TO.C,*%
X152000000Y-101000000D03*
%TD*%
%TO.C,*%
X186000000Y-131000000D03*
%TD*%
%TO.C,*%
X172000000Y-90000000D03*
%TD*%
M02*
