%TF.GenerationSoftware,KiCad,Pcbnew,8.0.7*%
%TF.CreationDate,2025-01-04T23:43:43-07:00*%
%TF.ProjectId,left,6c656674-2e6b-4696-9361-645f70636258,v1.0.0*%
%TF.SameCoordinates,Original*%
%TF.FileFunction,Copper,L2,Bot*%
%TF.FilePolarity,Positive*%
%FSLAX46Y46*%
G04 Gerber Fmt 4.6, Leading zero omitted, Abs format (unit mm)*
G04 Created by KiCad (PCBNEW 8.0.7) date 2025-01-04 23:43:43*
%MOMM*%
%LPD*%
G01*
G04 APERTURE LIST*
%TA.AperFunction,SMDPad,CuDef*%
%ADD10R,2.600000X2.600000*%
%TD*%
%TA.AperFunction,SMDPad,CuDef*%
%ADD11R,1.200000X0.900000*%
%TD*%
%TA.AperFunction,ComponentPad*%
%ADD12R,1.778000X1.778000*%
%TD*%
%TA.AperFunction,ComponentPad*%
%ADD13C,1.905000*%
%TD*%
%TA.AperFunction,ComponentPad*%
%ADD14C,1.752600*%
%TD*%
%TA.AperFunction,WasherPad*%
%ADD15C,1.000000*%
%TD*%
%TA.AperFunction,SMDPad,CuDef*%
%ADD16R,1.250000X0.900000*%
%TD*%
%TA.AperFunction,SMDPad,CuDef*%
%ADD17R,0.900000X0.900000*%
%TD*%
%TA.AperFunction,SMDPad,CuDef*%
%ADD18R,1.000000X1.550000*%
%TD*%
%TA.AperFunction,ComponentPad*%
%ADD19R,1.700000X1.200000*%
%TD*%
%TA.AperFunction,ComponentPad*%
%ADD20O,1.700000X1.200000*%
%TD*%
%TA.AperFunction,ViaPad*%
%ADD21C,0.800000*%
%TD*%
%TA.AperFunction,Conductor*%
%ADD22C,0.250000*%
%TD*%
G04 APERTURE END LIST*
D10*
%TO.P,S1,1*%
%TO.N,P020*%
X103275000Y-155950000D03*
%TO.P,S1,2*%
%TO.N,shift_utility*%
X91725000Y-153750000D03*
%TD*%
%TO.P,S2,1*%
%TO.N,P020*%
X103275000Y-136950000D03*
%TO.P,S2,2*%
%TO.N,shift_down*%
X91725000Y-134750000D03*
%TD*%
%TO.P,S3,1*%
%TO.N,P020*%
X103275000Y-117950000D03*
%TO.P,S3,2*%
%TO.N,shift_home*%
X91725000Y-115750000D03*
%TD*%
%TO.P,S4,1*%
%TO.N,P020*%
X103275000Y-98950000D03*
%TO.P,S4,2*%
%TO.N,shift_up*%
X91725000Y-96750000D03*
%TD*%
%TO.P,S5,1*%
%TO.N,P022*%
X123275000Y-155950000D03*
%TO.P,S5,2*%
%TO.N,a_utility*%
X111725000Y-153750000D03*
%TD*%
%TO.P,S6,1*%
%TO.N,P022*%
X123275000Y-136950000D03*
%TO.P,S6,2*%
%TO.N,a_down*%
X111725000Y-134750000D03*
%TD*%
%TO.P,S7,1*%
%TO.N,P022*%
X123275000Y-117950000D03*
%TO.P,S7,2*%
%TO.N,a_home*%
X111725000Y-115750000D03*
%TD*%
%TO.P,S8,1*%
%TO.N,P022*%
X123275000Y-98950000D03*
%TO.P,S8,2*%
%TO.N,a_up*%
X111725000Y-96750000D03*
%TD*%
%TO.P,S9,1*%
%TO.N,P024*%
X143275000Y-141950000D03*
%TO.P,S9,2*%
%TO.N,s_utility*%
X131725000Y-139750000D03*
%TD*%
%TO.P,S10,1*%
%TO.N,P024*%
X143275000Y-122950000D03*
%TO.P,S10,2*%
%TO.N,s_down*%
X131725000Y-120750000D03*
%TD*%
%TO.P,S11,1*%
%TO.N,P024*%
X143275000Y-103950000D03*
%TO.P,S11,2*%
%TO.N,s_home*%
X131725000Y-101750000D03*
%TD*%
%TO.P,S12,1*%
%TO.N,P024*%
X143275000Y-84950000D03*
%TO.P,S12,2*%
%TO.N,s_up*%
X131725000Y-82750000D03*
%TD*%
%TO.P,S13,1*%
%TO.N,P100*%
X163275000Y-133950000D03*
%TO.P,S13,2*%
%TO.N,d_utility*%
X151725000Y-131750000D03*
%TD*%
%TO.P,S14,1*%
%TO.N,P100*%
X163275000Y-114950000D03*
%TO.P,S14,2*%
%TO.N,d_down*%
X151725000Y-112750000D03*
%TD*%
%TO.P,S15,1*%
%TO.N,P100*%
X163275000Y-95950000D03*
%TO.P,S15,2*%
%TO.N,d_home*%
X151725000Y-93750000D03*
%TD*%
%TO.P,S16,1*%
%TO.N,P100*%
X163275000Y-76950000D03*
%TO.P,S16,2*%
%TO.N,d_up*%
X151725000Y-74750000D03*
%TD*%
%TO.P,S17,1*%
%TO.N,P011*%
X183275000Y-122950000D03*
%TO.P,S17,2*%
%TO.N,f_down*%
X171725000Y-120750000D03*
%TD*%
%TO.P,S18,1*%
%TO.N,P011*%
X183275000Y-103950000D03*
%TO.P,S18,2*%
%TO.N,f_home*%
X171725000Y-101750000D03*
%TD*%
%TO.P,S19,1*%
%TO.N,P011*%
X183275000Y-84950000D03*
%TO.P,S19,2*%
%TO.N,f_up*%
X171725000Y-82750000D03*
%TD*%
%TO.P,S20,1*%
%TO.N,P017*%
X203275000Y-122950000D03*
%TO.P,S20,2*%
%TO.N,g_down*%
X191725000Y-120750000D03*
%TD*%
%TO.P,S21,1*%
%TO.N,P017*%
X203275000Y-103950000D03*
%TO.P,S21,2*%
%TO.N,g_home*%
X191725000Y-101750000D03*
%TD*%
%TO.P,S22,1*%
%TO.N,P017*%
X203275000Y-84950000D03*
%TO.P,S22,2*%
%TO.N,g_up*%
X191725000Y-82750000D03*
%TD*%
%TO.P,S23,1*%
%TO.N,P017*%
X198275000Y-141950000D03*
%TO.P,S23,2*%
%TO.N,g_anchor*%
X186725000Y-139750000D03*
%TD*%
D11*
%TO.P,D1,2*%
%TO.N,shift_utility*%
X108300000Y-150850000D03*
%TO.P,D1,1*%
%TO.N,P029*%
X108300000Y-154150000D03*
D12*
X108300000Y-156310000D03*
D13*
%TO.P,D1,2*%
%TO.N,shift_utility*%
X108300000Y-148690000D03*
%TD*%
D11*
%TO.P,D2,2*%
%TO.N,shift_down*%
X108300000Y-131850000D03*
%TO.P,D2,1*%
%TO.N,P002*%
X108300000Y-135150000D03*
D12*
X108300000Y-137310000D03*
D13*
%TO.P,D2,2*%
%TO.N,shift_down*%
X108300000Y-129690000D03*
%TD*%
D11*
%TO.P,D3,2*%
%TO.N,shift_home*%
X108300000Y-112850000D03*
%TO.P,D3,1*%
%TO.N,P115*%
X108300000Y-116150000D03*
D12*
X108300000Y-118310000D03*
D13*
%TO.P,D3,2*%
%TO.N,shift_home*%
X108300000Y-110690000D03*
%TD*%
D11*
%TO.P,D4,2*%
%TO.N,shift_up*%
X108300000Y-93850000D03*
%TO.P,D4,1*%
%TO.N,P113*%
X108300000Y-97150000D03*
D12*
X108300000Y-99310000D03*
D13*
%TO.P,D4,2*%
%TO.N,shift_up*%
X108300000Y-91690000D03*
%TD*%
D11*
%TO.P,D5,2*%
%TO.N,a_utility*%
X128300000Y-150850000D03*
%TO.P,D5,1*%
%TO.N,P029*%
X128300000Y-154150000D03*
D12*
X128300000Y-156310000D03*
D13*
%TO.P,D5,2*%
%TO.N,a_utility*%
X128300000Y-148690000D03*
%TD*%
D11*
%TO.P,D6,2*%
%TO.N,a_down*%
X128300000Y-131850000D03*
%TO.P,D6,1*%
%TO.N,P002*%
X128300000Y-135150000D03*
D12*
X128300000Y-137310000D03*
D13*
%TO.P,D6,2*%
%TO.N,a_down*%
X128300000Y-129690000D03*
%TD*%
D11*
%TO.P,D7,2*%
%TO.N,a_home*%
X128300000Y-112850000D03*
%TO.P,D7,1*%
%TO.N,P115*%
X128300000Y-116150000D03*
D12*
X128300000Y-118310000D03*
D13*
%TO.P,D7,2*%
%TO.N,a_home*%
X128300000Y-110690000D03*
%TD*%
D11*
%TO.P,D8,2*%
%TO.N,a_up*%
X128300000Y-93850000D03*
%TO.P,D8,1*%
%TO.N,P113*%
X128300000Y-97150000D03*
D12*
X128300000Y-99310000D03*
D13*
%TO.P,D8,2*%
%TO.N,a_up*%
X128300000Y-91690000D03*
%TD*%
D11*
%TO.P,D9,2*%
%TO.N,s_utility*%
X148300000Y-136850000D03*
%TO.P,D9,1*%
%TO.N,P029*%
X148300000Y-140150000D03*
D12*
X148300000Y-142310000D03*
D13*
%TO.P,D9,2*%
%TO.N,s_utility*%
X148300000Y-134690000D03*
%TD*%
D11*
%TO.P,D10,2*%
%TO.N,s_down*%
X148300000Y-117850000D03*
%TO.P,D10,1*%
%TO.N,P002*%
X148300000Y-121150000D03*
D12*
X148300000Y-123310000D03*
D13*
%TO.P,D10,2*%
%TO.N,s_down*%
X148300000Y-115690000D03*
%TD*%
D11*
%TO.P,D11,2*%
%TO.N,s_home*%
X148300000Y-98850000D03*
%TO.P,D11,1*%
%TO.N,P115*%
X148300000Y-102150000D03*
D12*
X148300000Y-104310000D03*
D13*
%TO.P,D11,2*%
%TO.N,s_home*%
X148300000Y-96690000D03*
%TD*%
D11*
%TO.P,D12,2*%
%TO.N,s_up*%
X148300000Y-79850000D03*
%TO.P,D12,1*%
%TO.N,P113*%
X148300000Y-83150000D03*
D12*
X148300000Y-85310000D03*
D13*
%TO.P,D12,2*%
%TO.N,s_up*%
X148300000Y-77690000D03*
%TD*%
D11*
%TO.P,D13,2*%
%TO.N,d_utility*%
X168300000Y-128850000D03*
%TO.P,D13,1*%
%TO.N,P029*%
X168300000Y-132150000D03*
D12*
X168300000Y-134310000D03*
D13*
%TO.P,D13,2*%
%TO.N,d_utility*%
X168300000Y-126690000D03*
%TD*%
D11*
%TO.P,D14,2*%
%TO.N,d_down*%
X168300000Y-109850000D03*
%TO.P,D14,1*%
%TO.N,P002*%
X168300000Y-113150000D03*
D12*
X168300000Y-115310000D03*
D13*
%TO.P,D14,2*%
%TO.N,d_down*%
X168300000Y-107690000D03*
%TD*%
D11*
%TO.P,D15,2*%
%TO.N,d_home*%
X168300000Y-90850000D03*
%TO.P,D15,1*%
%TO.N,P115*%
X168300000Y-94150000D03*
D12*
X168300000Y-96310000D03*
D13*
%TO.P,D15,2*%
%TO.N,d_home*%
X168300000Y-88690000D03*
%TD*%
D11*
%TO.P,D16,2*%
%TO.N,d_up*%
X168300000Y-71850000D03*
%TO.P,D16,1*%
%TO.N,P113*%
X168300000Y-75150000D03*
D12*
X168300000Y-77310000D03*
D13*
%TO.P,D16,2*%
%TO.N,d_up*%
X168300000Y-69690000D03*
%TD*%
D11*
%TO.P,D17,2*%
%TO.N,f_down*%
X188300000Y-117850000D03*
%TO.P,D17,1*%
%TO.N,P002*%
X188300000Y-121150000D03*
D12*
X188300000Y-123310000D03*
D13*
%TO.P,D17,2*%
%TO.N,f_down*%
X188300000Y-115690000D03*
%TD*%
D11*
%TO.P,D18,2*%
%TO.N,f_home*%
X188300000Y-98850000D03*
%TO.P,D18,1*%
%TO.N,P115*%
X188300000Y-102150000D03*
D12*
X188300000Y-104310000D03*
D13*
%TO.P,D18,2*%
%TO.N,f_home*%
X188300000Y-96690000D03*
%TD*%
D11*
%TO.P,D19,2*%
%TO.N,f_up*%
X188300000Y-79850000D03*
%TO.P,D19,1*%
%TO.N,P113*%
X188300000Y-83150000D03*
D12*
X188300000Y-85310000D03*
D13*
%TO.P,D19,2*%
%TO.N,f_up*%
X188300000Y-77690000D03*
%TD*%
D11*
%TO.P,D20,2*%
%TO.N,g_down*%
X208300000Y-117850000D03*
%TO.P,D20,1*%
%TO.N,P002*%
X208300000Y-121150000D03*
D12*
X208300000Y-123310000D03*
D13*
%TO.P,D20,2*%
%TO.N,g_down*%
X208300000Y-115690000D03*
%TD*%
D11*
%TO.P,D21,2*%
%TO.N,g_home*%
X208300000Y-98850000D03*
%TO.P,D21,1*%
%TO.N,P115*%
X208300000Y-102150000D03*
D12*
X208300000Y-104310000D03*
D13*
%TO.P,D21,2*%
%TO.N,g_home*%
X208300000Y-96690000D03*
%TD*%
D11*
%TO.P,D22,2*%
%TO.N,g_up*%
X208300000Y-79850000D03*
%TO.P,D22,1*%
%TO.N,P113*%
X208300000Y-83150000D03*
D12*
X208300000Y-85310000D03*
D13*
%TO.P,D22,2*%
%TO.N,g_up*%
X208300000Y-77690000D03*
%TD*%
D11*
%TO.P,D23,2*%
%TO.N,g_anchor*%
X203300000Y-136850000D03*
%TO.P,D23,1*%
%TO.N,P029*%
X203300000Y-140150000D03*
D12*
X203300000Y-142310000D03*
D13*
%TO.P,D23,2*%
%TO.N,g_anchor*%
X203300000Y-134690000D03*
%TD*%
D14*
%TO.P,MCU1,1*%
%TO.N,P006*%
X205970000Y-74380000D03*
%TO.P,MCU1,2*%
%TO.N,P008*%
X203430000Y-74380000D03*
%TO.P,MCU1,3*%
%TO.N,GND*%
X200890000Y-74380000D03*
%TO.P,MCU1,4*%
X198350000Y-74380000D03*
%TO.P,MCU1,5*%
%TO.N,P017*%
X195810000Y-74380000D03*
%TO.P,MCU1,6*%
%TO.N,P020*%
X193270000Y-74380000D03*
%TO.P,MCU1,7*%
%TO.N,P022*%
X190730000Y-74380000D03*
%TO.P,MCU1,8*%
%TO.N,P024*%
X188190000Y-74380000D03*
%TO.P,MCU1,9*%
%TO.N,P100*%
X185650000Y-74380000D03*
%TO.P,MCU1,10*%
%TO.N,P011*%
X183110000Y-74380000D03*
%TO.P,MCU1,11*%
%TO.N,P104*%
X180570000Y-74380000D03*
%TO.P,MCU1,12*%
%TO.N,P106*%
X178030000Y-74380000D03*
%TO.P,MCU1,13*%
%TO.N,P009*%
X178030000Y-89620000D03*
%TO.P,MCU1,14*%
%TO.N,P010*%
X180570000Y-89620000D03*
%TO.P,MCU1,15*%
%TO.N,P111*%
X183110000Y-89620000D03*
%TO.P,MCU1,16*%
%TO.N,P113*%
X185650000Y-89620000D03*
%TO.P,MCU1,17*%
%TO.N,P115*%
X188190000Y-89620000D03*
%TO.P,MCU1,18*%
%TO.N,P002*%
X190730000Y-89620000D03*
%TO.P,MCU1,19*%
%TO.N,P029*%
X193270000Y-89620000D03*
%TO.P,MCU1,20*%
%TO.N,P031*%
X195810000Y-89620000D03*
%TO.P,MCU1,21*%
%TO.N,VCC*%
X198350000Y-89620000D03*
%TO.P,MCU1,22*%
%TO.N,RST*%
X200890000Y-89620000D03*
%TO.P,MCU1,23*%
%TO.N,GND*%
X203430000Y-89620000D03*
%TO.P,MCU1,24*%
%TO.N,RAW*%
X205970000Y-89620000D03*
%TO.P,MCU1,31*%
%TO.N,P101*%
X183110000Y-76920000D03*
%TO.P,MCU1,32*%
%TO.N,P102*%
X183110000Y-79460000D03*
%TO.P,MCU1,33*%
%TO.N,P107*%
X183110000Y-82000000D03*
%TD*%
D15*
%TO.P,T1,*%
%TO.N,*%
X208000000Y-132500000D03*
X208000000Y-129500000D03*
D16*
%TO.P,T1,1*%
%TO.N,pos*%
X205925000Y-128750000D03*
%TO.P,T1,2*%
%TO.N,RAW*%
X205925000Y-131750000D03*
%TO.P,T1,3*%
%TO.N,N/C*%
X205925000Y-133250000D03*
D17*
%TO.P,T1,*%
%TO.N,*%
X209100000Y-134700000D03*
X206900000Y-134700000D03*
X206900000Y-127300000D03*
X209100000Y-127300000D03*
%TD*%
D18*
%TO.P,B1,1*%
%TO.N,GND*%
X208850000Y-137375000D03*
X208850000Y-142625000D03*
%TO.P,B1,2*%
%TO.N,RST*%
X207150000Y-137375000D03*
X207150000Y-142625000D03*
%TD*%
D19*
%TO.P,JST1,1*%
%TO.N,pos*%
X160000000Y-85000000D03*
D20*
%TO.P,JST1,2*%
%TO.N,GND*%
X160000000Y-83000000D03*
%TD*%
D21*
%TO.N,RAW*%
X203500000Y-97000000D03*
X206012653Y-108512653D03*
X209500000Y-119500000D03*
X204500000Y-92500000D03*
%TO.N,pos*%
X206500000Y-126000000D03*
X196500000Y-115000000D03*
X186500000Y-103000000D03*
X203500000Y-116000000D03*
X175000000Y-86500000D03*
X183000000Y-97000000D03*
X189000000Y-107500000D03*
%TO.N,RST*%
X191000000Y-124500000D03*
X205976387Y-135518365D03*
%TO.N,GND*%
X165500000Y-94000000D03*
X197000000Y-86500000D03*
X203000000Y-82350000D03*
X172500000Y-76500000D03*
X171500000Y-78500000D03*
%TD*%
D22*
%TO.N,RAW*%
X203500000Y-97454999D02*
X203500000Y-97000000D01*
X198125000Y-102829999D02*
X203500000Y-97454999D01*
X205970000Y-91030000D02*
X205970000Y-89620000D01*
X198125000Y-104726650D02*
X198125000Y-102829999D01*
X206012653Y-108512653D02*
X201911003Y-108512653D01*
X201911003Y-108512653D02*
X198125000Y-104726650D01*
X209525000Y-119525000D02*
X209500000Y-119500000D01*
X209525000Y-124513000D02*
X209525000Y-119525000D01*
X208000000Y-126038000D02*
X209525000Y-124513000D01*
X208000000Y-127750000D02*
X208000000Y-126038000D01*
X206875000Y-128875000D02*
X208000000Y-127750000D01*
X206875000Y-130800000D02*
X206875000Y-128875000D01*
X205925000Y-131750000D02*
X206875000Y-130800000D01*
X204500000Y-92500000D02*
X205970000Y-91030000D01*
%TO.N,pos*%
X205925000Y-126575000D02*
X205925000Y-128750000D01*
X206500000Y-126000000D02*
X205925000Y-126575000D01*
X196500000Y-115000000D02*
X197087500Y-114412500D01*
X186500000Y-103000000D02*
X186500000Y-105000000D01*
X201912500Y-114412500D02*
X203500000Y-116000000D01*
X175000000Y-89000000D02*
X183000000Y-97000000D01*
X197087500Y-114412500D02*
X201912500Y-114412500D01*
X175000000Y-86500000D02*
X175000000Y-89000000D01*
X186500000Y-105000000D02*
X189000000Y-107500000D01*
%TO.N,RST*%
X200048895Y-89620000D02*
X200890000Y-89620000D01*
X190100000Y-123600000D02*
X190100000Y-99568895D01*
X191000000Y-124500000D02*
X190100000Y-123600000D01*
X190100000Y-99568895D02*
X200048895Y-89620000D01*
X207150000Y-137375000D02*
X207150000Y-136691978D01*
X207150000Y-136691978D02*
X205976387Y-135518365D01*
X207375000Y-137600000D02*
X207150000Y-137375000D01*
X207375000Y-142400000D02*
X207375000Y-137600000D01*
X207150000Y-142625000D02*
X207375000Y-142400000D01*
%TO.N,GND*%
X208625000Y-142125000D02*
X208625000Y-137600000D01*
X208850000Y-142350000D02*
X208625000Y-142125000D01*
X208850000Y-142625000D02*
X208850000Y-142350000D01*
X208625000Y-137600000D02*
X208850000Y-137375000D01*
X208850000Y-142850000D02*
X208850000Y-142625000D01*
X207875000Y-143825000D02*
X208850000Y-142850000D01*
X187550000Y-143825000D02*
X207875000Y-143825000D01*
X170100000Y-126375000D02*
X187550000Y-143825000D01*
X170100000Y-103375000D02*
X170100000Y-126375000D01*
X165500000Y-98775000D02*
X170100000Y-103375000D01*
X165500000Y-94000000D02*
X165500000Y-98775000D01*
X199948350Y-82350000D02*
X197000000Y-85298350D01*
X203000000Y-82350000D02*
X199948350Y-82350000D01*
X197000000Y-85298350D02*
X197000000Y-86500000D01*
X171500000Y-78500000D02*
X171500000Y-77500000D01*
X171500000Y-77500000D02*
X172500000Y-76500000D01*
%TO.N,P020*%
X190390000Y-71500000D02*
X193270000Y-74380000D01*
X171717157Y-71500000D02*
X190390000Y-71500000D01*
X169800000Y-69582843D02*
X171717157Y-71500000D01*
X169800000Y-69300000D02*
X169800000Y-69582843D01*
X168787500Y-68287500D02*
X169800000Y-69300000D01*
X154937500Y-68287500D02*
X168787500Y-68287500D01*
X150100000Y-79900000D02*
X150100000Y-73125000D01*
X148460500Y-81539500D02*
X150100000Y-79900000D01*
X138862150Y-81539500D02*
X148460500Y-81539500D01*
X135776650Y-84625000D02*
X138862150Y-81539500D01*
X125420001Y-84625000D02*
X135776650Y-84625000D01*
X150100000Y-73125000D02*
X154937500Y-68287500D01*
X115819101Y-94225900D02*
X125420001Y-84625000D01*
X113274100Y-94225900D02*
X115819101Y-94225900D01*
X112375000Y-95125000D02*
X113274100Y-94225900D01*
X107100000Y-95125000D02*
X112375000Y-95125000D01*
X103275000Y-98950000D02*
X107100000Y-95125000D01*
%TO.N,P022*%
X170000000Y-72000000D02*
X188350000Y-72000000D01*
X169000000Y-71000000D02*
X170000000Y-72000000D01*
X166007784Y-69774100D02*
X167233684Y-71000000D01*
X161500000Y-73266316D02*
X164992216Y-69774100D01*
X161500000Y-74500000D02*
X161500000Y-73266316D01*
X159161954Y-74500000D02*
X161500000Y-74500000D01*
X157500000Y-76161954D02*
X159161954Y-74500000D01*
X164992216Y-69774100D02*
X166007784Y-69774100D01*
X157500000Y-79000000D02*
X157500000Y-76161954D01*
X153000000Y-83500000D02*
X157500000Y-79000000D01*
X150500000Y-83500000D02*
X153000000Y-83500000D01*
X188350000Y-72000000D02*
X190730000Y-74380000D01*
X146125000Y-82375000D02*
X149375000Y-82375000D01*
X145500000Y-83000000D02*
X146125000Y-82375000D01*
X139298350Y-83000000D02*
X145500000Y-83000000D01*
X138125000Y-84173350D02*
X139298350Y-83000000D01*
X138125000Y-85650000D02*
X138125000Y-84173350D01*
X167233684Y-71000000D02*
X169000000Y-71000000D01*
X124825000Y-98950000D02*
X138125000Y-85650000D01*
X123275000Y-98950000D02*
X124825000Y-98950000D01*
X149375000Y-82375000D02*
X150500000Y-83500000D01*
%TO.N,P024*%
X186435000Y-72625000D02*
X188190000Y-74380000D01*
X165375000Y-72625000D02*
X186435000Y-72625000D01*
X163000000Y-75000000D02*
X165375000Y-72625000D01*
X159298350Y-75000000D02*
X163000000Y-75000000D01*
X158125000Y-76173350D02*
X159298350Y-75000000D01*
X158125000Y-80375000D02*
X158125000Y-76173350D01*
X154404000Y-84096000D02*
X158125000Y-80375000D01*
X144129000Y-84096000D02*
X154404000Y-84096000D01*
X143275000Y-84950000D02*
X144129000Y-84096000D01*
%TO.N,P100*%
X168596300Y-73178700D02*
X184448700Y-73178700D01*
X164825000Y-76950000D02*
X168596300Y-73178700D01*
X184448700Y-73178700D02*
X185650000Y-74380000D01*
X163275000Y-76950000D02*
X164825000Y-76950000D01*
%TO.N,P011*%
X189577500Y-78219158D02*
X189577500Y-77160842D01*
X189577500Y-77160842D02*
X188416658Y-76000000D01*
X188721658Y-79075000D02*
X189577500Y-78219158D01*
X188416658Y-76000000D02*
X184730000Y-76000000D01*
X187375000Y-79075000D02*
X188721658Y-79075000D01*
X187375000Y-80850000D02*
X187375000Y-79075000D01*
X183275000Y-84950000D02*
X187375000Y-80850000D01*
X184730000Y-76000000D02*
X183110000Y-74380000D01*
%TO.N,P017*%
X208416658Y-76000000D02*
X197430000Y-76000000D01*
X209577500Y-77160842D02*
X208416658Y-76000000D01*
X209577500Y-80272500D02*
X209577500Y-77160842D01*
X197430000Y-76000000D02*
X195810000Y-74380000D01*
X204900000Y-84950000D02*
X209577500Y-80272500D01*
X203275000Y-84950000D02*
X204900000Y-84950000D01*
X209577500Y-91252500D02*
X203275000Y-84950000D01*
X204900000Y-103950000D02*
X209577500Y-99272500D01*
X209577500Y-99272500D02*
X209577500Y-91252500D01*
X203275000Y-103950000D02*
X204900000Y-103950000D01*
X209577500Y-110252500D02*
X203275000Y-103950000D01*
X209577500Y-118272500D02*
X209577500Y-110252500D01*
X208850000Y-119000000D02*
X209577500Y-118272500D01*
X207225000Y-119000000D02*
X208850000Y-119000000D01*
X203275000Y-122950000D02*
X207225000Y-119000000D01*
X204975000Y-136875000D02*
X204975000Y-124650000D01*
X204975000Y-124650000D02*
X203275000Y-122950000D01*
X199900000Y-141950000D02*
X204975000Y-136875000D01*
X198275000Y-141950000D02*
X199900000Y-141950000D01*
%TO.N,P011*%
X184448700Y-86123700D02*
X183275000Y-84950000D01*
X184448700Y-90117595D02*
X184448700Y-86123700D01*
X189577500Y-95246395D02*
X184448700Y-90117595D01*
X189577500Y-97219158D02*
X189577500Y-95246395D01*
X188829158Y-97967500D02*
X189577500Y-97219158D01*
X186725900Y-100499100D02*
X186725900Y-98274100D01*
X187032500Y-97967500D02*
X188829158Y-97967500D01*
X183275000Y-103950000D02*
X186725900Y-100499100D01*
X186725900Y-98274100D02*
X187032500Y-97967500D01*
X189577500Y-116219158D02*
X189577500Y-110252500D01*
X187375000Y-117075000D02*
X188721658Y-117075000D01*
X183275000Y-121175000D02*
X187375000Y-117075000D01*
X183275000Y-122950000D02*
X183275000Y-121175000D01*
X188721658Y-117075000D02*
X189577500Y-116219158D01*
X189577500Y-110252500D02*
X183275000Y-103950000D01*
%TO.N,P100*%
X150100000Y-90125000D02*
X163275000Y-76950000D01*
X150100000Y-95375000D02*
X150100000Y-90125000D01*
X155875000Y-95625000D02*
X150350000Y-95625000D01*
X161400000Y-94075000D02*
X157425000Y-94075000D01*
X150350000Y-95625000D02*
X150100000Y-95375000D01*
X163275000Y-95950000D02*
X161400000Y-94075000D01*
X157425000Y-94075000D02*
X155875000Y-95625000D01*
X150100000Y-109125000D02*
X163275000Y-95950000D01*
X152550000Y-116825000D02*
X150100000Y-114375000D01*
X161400000Y-116825000D02*
X152550000Y-116825000D01*
X150100000Y-114375000D02*
X150100000Y-109125000D01*
X163275000Y-114950000D02*
X161400000Y-116825000D01*
X150100000Y-128125000D02*
X163275000Y-114950000D01*
X152550000Y-135825000D02*
X150100000Y-133375000D01*
X161400000Y-135825000D02*
X152550000Y-135825000D01*
X163275000Y-133950000D02*
X161400000Y-135825000D01*
X150100000Y-133375000D02*
X150100000Y-128125000D01*
%TO.N,P024*%
X130100000Y-103375000D02*
X130100000Y-98125000D01*
X132550000Y-105825000D02*
X130100000Y-103375000D01*
X143275000Y-103950000D02*
X141400000Y-105825000D01*
X141400000Y-105825000D02*
X132550000Y-105825000D01*
X130100000Y-98125000D02*
X143275000Y-84950000D01*
X130100000Y-117125000D02*
X143275000Y-103950000D01*
X130100000Y-122375000D02*
X130100000Y-117125000D01*
X132550000Y-124825000D02*
X130100000Y-122375000D01*
X141400000Y-124825000D02*
X132550000Y-124825000D01*
X143275000Y-122950000D02*
X141400000Y-124825000D01*
X130100000Y-136125000D02*
X143275000Y-122950000D01*
X130100000Y-141375000D02*
X130100000Y-136125000D01*
X141400000Y-143825000D02*
X132550000Y-143825000D01*
X132550000Y-143825000D02*
X130100000Y-141375000D01*
X143275000Y-141950000D02*
X141400000Y-143825000D01*
%TO.N,P022*%
X110350000Y-117625000D02*
X110100000Y-117375000D01*
X110100000Y-112125000D02*
X123275000Y-98950000D01*
X116155650Y-117625000D02*
X110350000Y-117625000D01*
X119241150Y-114539500D02*
X116155650Y-117625000D01*
X110100000Y-117375000D02*
X110100000Y-112125000D01*
X122651650Y-117950000D02*
X119241150Y-114539500D01*
X123275000Y-117950000D02*
X122651650Y-117950000D01*
X110027500Y-131197500D02*
X123275000Y-117950000D01*
X110027500Y-136302500D02*
X110027500Y-131197500D01*
X110350000Y-136625000D02*
X110027500Y-136302500D01*
X115776650Y-136625000D02*
X110350000Y-136625000D01*
X117326650Y-135075000D02*
X115776650Y-136625000D01*
X121400000Y-135075000D02*
X117326650Y-135075000D01*
X123275000Y-136950000D02*
X121400000Y-135075000D01*
X110100000Y-155375000D02*
X110100000Y-150125000D01*
X110100000Y-150125000D02*
X123275000Y-136950000D01*
X117925000Y-154075000D02*
X116375000Y-155625000D01*
X123275000Y-155950000D02*
X121400000Y-154075000D01*
X121400000Y-154075000D02*
X117925000Y-154075000D01*
X116375000Y-155625000D02*
X110350000Y-155625000D01*
X110350000Y-155625000D02*
X110100000Y-155375000D01*
%TO.N,P020*%
X104800000Y-155950000D02*
X103275000Y-155950000D01*
X109577500Y-151172500D02*
X104800000Y-155950000D01*
X109577500Y-148160842D02*
X109577500Y-151172500D01*
X103275000Y-136950000D02*
X103275000Y-141858342D01*
X103275000Y-141858342D02*
X109577500Y-148160842D01*
X104800000Y-136950000D02*
X103275000Y-136950000D01*
X109577500Y-132172500D02*
X104800000Y-136950000D01*
X103275000Y-117950000D02*
X109577500Y-124252500D01*
X109577500Y-124252500D02*
X109577500Y-132172500D01*
X109577500Y-113172500D02*
X104800000Y-117950000D01*
X103275000Y-103858342D02*
X109577500Y-110160842D01*
X109577500Y-110160842D02*
X109577500Y-113172500D01*
X103275000Y-98950000D02*
X103275000Y-103858342D01*
X104800000Y-117950000D02*
X103275000Y-117950000D01*
%TO.N,g_anchor*%
X202520500Y-133910500D02*
X203300000Y-134690000D01*
X194134501Y-133910500D02*
X202520500Y-133910500D01*
X188600000Y-137875000D02*
X190170001Y-137875000D01*
X190170001Y-137875000D02*
X194134501Y-133910500D01*
X186725000Y-139750000D02*
X188600000Y-137875000D01*
%TO.N,g_down*%
X201676816Y-119089500D02*
X205076316Y-115690000D01*
X205076316Y-115690000D02*
X208300000Y-115690000D01*
X199134501Y-119089500D02*
X201676816Y-119089500D01*
X198270901Y-118225900D02*
X199134501Y-119089500D01*
X194249100Y-118225900D02*
X198270901Y-118225900D01*
X191725000Y-120750000D02*
X194249100Y-118225900D01*
%TO.N,g_home*%
X195817501Y-99227500D02*
X199134501Y-95910500D01*
X191725000Y-101750000D02*
X194247500Y-99227500D01*
X194247500Y-99227500D02*
X195817501Y-99227500D01*
X199134501Y-95910500D02*
X207520500Y-95910500D01*
X207520500Y-95910500D02*
X208300000Y-96690000D01*
%TO.N,g_up*%
X208300000Y-78200000D02*
X208300000Y-77690000D01*
X205410500Y-81089500D02*
X208300000Y-78200000D01*
X199134501Y-81089500D02*
X205410500Y-81089500D01*
X198920001Y-80875000D02*
X199134501Y-81089500D01*
X193600000Y-80875000D02*
X198920001Y-80875000D01*
X191725000Y-82750000D02*
X193600000Y-80875000D01*
%TO.N,f_up*%
X182088157Y-78133158D02*
X184633158Y-78133158D01*
X175170001Y-80875000D02*
X179134501Y-76910500D01*
X180865499Y-76910500D02*
X182088157Y-78133158D01*
X173600000Y-80875000D02*
X175170001Y-80875000D01*
X171725000Y-82750000D02*
X173600000Y-80875000D01*
X179134501Y-76910500D02*
X180865499Y-76910500D01*
X184633158Y-78133158D02*
X185076316Y-77690000D01*
X185076316Y-77690000D02*
X188300000Y-77690000D01*
%TO.N,f_down*%
X177375000Y-122625000D02*
X184310000Y-115690000D01*
X173600000Y-122625000D02*
X177375000Y-122625000D01*
X184310000Y-115690000D02*
X188300000Y-115690000D01*
X171725000Y-120750000D02*
X173600000Y-122625000D01*
%TO.N,f_home*%
X185076316Y-96690000D02*
X188300000Y-96690000D01*
X179134501Y-100089500D02*
X181676816Y-100089500D01*
X178920001Y-99875000D02*
X179134501Y-100089500D01*
X173600000Y-99875000D02*
X178920001Y-99875000D01*
X181676816Y-100089500D02*
X185076316Y-96690000D01*
X171725000Y-101750000D02*
X173600000Y-99875000D01*
%TO.N,d_up*%
X159307501Y-68737500D02*
X167347500Y-68737500D01*
X155170001Y-72875000D02*
X159307501Y-68737500D01*
X151725000Y-74750000D02*
X153600000Y-72875000D01*
X153600000Y-72875000D02*
X155170001Y-72875000D01*
X167347500Y-68737500D02*
X168300000Y-69690000D01*
%TO.N,d_home*%
X165076316Y-88690000D02*
X168300000Y-88690000D01*
X161676816Y-92089500D02*
X165076316Y-88690000D01*
X158920001Y-91875000D02*
X159134501Y-92089500D01*
X159134501Y-92089500D02*
X161676816Y-92089500D01*
X153600000Y-91875000D02*
X158920001Y-91875000D01*
X151725000Y-93750000D02*
X153600000Y-91875000D01*
%TO.N,d_down*%
X168300000Y-107933684D02*
X168300000Y-107690000D01*
X165144184Y-111089500D02*
X168300000Y-107933684D01*
X158875000Y-110875000D02*
X159089500Y-111089500D01*
X159089500Y-111089500D02*
X165144184Y-111089500D01*
X153600000Y-110875000D02*
X158875000Y-110875000D01*
X151725000Y-112750000D02*
X153600000Y-110875000D01*
%TO.N,d_utility*%
X165076316Y-126690000D02*
X168300000Y-126690000D01*
X161676816Y-130089500D02*
X165076316Y-126690000D01*
X159134501Y-130089500D02*
X161676816Y-130089500D01*
X158270901Y-129225900D02*
X159134501Y-130089500D01*
X154249100Y-129225900D02*
X158270901Y-129225900D01*
X151725000Y-131750000D02*
X154249100Y-129225900D01*
%TO.N,s_utility*%
X147110000Y-133500000D02*
X148300000Y-134690000D01*
X134249100Y-137225900D02*
X135819101Y-137225900D01*
X139545001Y-133500000D02*
X147110000Y-133500000D01*
X131725000Y-139750000D02*
X134249100Y-137225900D01*
X135819101Y-137225900D02*
X139545001Y-133500000D01*
%TO.N,s_down*%
X145076316Y-115690000D02*
X148300000Y-115690000D01*
X138875000Y-118875000D02*
X139089500Y-119089500D01*
X133600000Y-118875000D02*
X138875000Y-118875000D01*
X141676816Y-119089500D02*
X145076316Y-115690000D01*
X131725000Y-120750000D02*
X133600000Y-118875000D01*
X139089500Y-119089500D02*
X141676816Y-119089500D01*
%TO.N,s_home*%
X145076316Y-96690000D02*
X148300000Y-96690000D01*
X141676816Y-100089500D02*
X145076316Y-96690000D01*
X136684600Y-99225900D02*
X137548200Y-100089500D01*
X134249100Y-99225900D02*
X136684600Y-99225900D01*
X137548200Y-100089500D02*
X141676816Y-100089500D01*
X131725000Y-101750000D02*
X134249100Y-99225900D01*
%TO.N,s_up*%
X148300000Y-78200000D02*
X148300000Y-77690000D01*
X145410500Y-81089500D02*
X148300000Y-78200000D01*
X139134501Y-81089500D02*
X145410500Y-81089500D01*
X133600000Y-80875000D02*
X138920001Y-80875000D01*
X131725000Y-82750000D02*
X133600000Y-80875000D01*
X138920001Y-80875000D02*
X139134501Y-81089500D01*
%TO.N,a_up*%
X125144184Y-95089500D02*
X128300000Y-91933684D01*
X118920001Y-94875000D02*
X119134501Y-95089500D01*
X119134501Y-95089500D02*
X125144184Y-95089500D01*
X111725000Y-96750000D02*
X113600000Y-94875000D01*
X113600000Y-94875000D02*
X118920001Y-94875000D01*
X128300000Y-91933684D02*
X128300000Y-91690000D01*
%TO.N,a_home*%
X128300000Y-112200000D02*
X128300000Y-110690000D01*
X126410500Y-114089500D02*
X128300000Y-112200000D01*
X113600000Y-113875000D02*
X118875000Y-113875000D01*
X118875000Y-113875000D02*
X119089500Y-114089500D01*
X119089500Y-114089500D02*
X126410500Y-114089500D01*
X111725000Y-115750000D02*
X113600000Y-113875000D01*
%TO.N,a_down*%
X128300000Y-130200000D02*
X128300000Y-129690000D01*
X125410500Y-133089500D02*
X128300000Y-130200000D01*
X119089500Y-133089500D02*
X125410500Y-133089500D01*
X113600000Y-132875000D02*
X118875000Y-132875000D01*
X111725000Y-134750000D02*
X113600000Y-132875000D01*
X118875000Y-132875000D02*
X119089500Y-133089500D01*
%TO.N,a_utility*%
X125076316Y-148690000D02*
X128300000Y-148690000D01*
X118875000Y-151875000D02*
X119089500Y-152089500D01*
X119089500Y-152089500D02*
X121676816Y-152089500D01*
X113600000Y-151875000D02*
X118875000Y-151875000D01*
X121676816Y-152089500D02*
X125076316Y-148690000D01*
X111725000Y-153750000D02*
X113600000Y-151875000D01*
%TO.N,shift_utility*%
X105076316Y-148690000D02*
X108300000Y-148690000D01*
X101266316Y-152500000D02*
X105076316Y-148690000D01*
X99500000Y-152500000D02*
X101266316Y-152500000D01*
X93600000Y-151875000D02*
X98875000Y-151875000D01*
X91725000Y-153750000D02*
X93600000Y-151875000D01*
X98875000Y-151875000D02*
X99500000Y-152500000D01*
%TO.N,shift_down*%
X105076316Y-129690000D02*
X108300000Y-129690000D01*
X97339500Y-133089500D02*
X101676816Y-133089500D01*
X101676816Y-133089500D02*
X105076316Y-129690000D01*
X93600000Y-132875000D02*
X97125000Y-132875000D01*
X91725000Y-134750000D02*
X93600000Y-132875000D01*
X97125000Y-132875000D02*
X97339500Y-133089500D01*
%TO.N,shift_home*%
X108300000Y-110933684D02*
X108300000Y-110690000D01*
X105144184Y-114089500D02*
X108300000Y-110933684D01*
X99134501Y-114089500D02*
X105144184Y-114089500D01*
X98772501Y-113727500D02*
X99134501Y-114089500D01*
X92197500Y-113727500D02*
X98772501Y-113727500D01*
X91725000Y-114200000D02*
X92197500Y-113727500D01*
X91725000Y-115750000D02*
X91725000Y-114200000D01*
%TO.N,shift_up*%
X108300000Y-92200000D02*
X108300000Y-91690000D01*
X99134501Y-95089500D02*
X105410500Y-95089500D01*
X98920001Y-94875000D02*
X99134501Y-95089500D01*
X93600000Y-94875000D02*
X98920001Y-94875000D01*
X91725000Y-96750000D02*
X93600000Y-94875000D01*
X105410500Y-95089500D02*
X108300000Y-92200000D01*
%TD*%
M02*
