M48
; DRILL file {KiCad 8.0.7} date 2025-01-04T23:43:41-0700
; FORMAT={-:-/ absolute / inch / decimal}
; #@! TF.CreationDate,2025-01-04T23:43:41-07:00
; #@! TF.GenerationSoftware,Kicad,Pcbnew,8.0.7
; #@! TF.FileFunction,NonPlated,1,2,NPTH
FMAT,2
INCH
; #@! TA.AperFunction,NonPlated,NPTH,ComponentDrill
T1C0.0295
; #@! TA.AperFunction,NonPlated,NPTH,ComponentDrill
T2C0.0354
; #@! TA.AperFunction,NonPlated,NPTH,ComponentDrill
T3C0.0670
; #@! TA.AperFunction,NonPlated,NPTH,ComponentDrill
T4C0.1181
; #@! TA.AperFunction,NonPlated,NPTH,ComponentDrill
T5C0.1350
; #@! TA.AperFunction,NonPlated,NPTH,ComponentDrill
T6C0.1575
%
G90
G05
T1
X8.1348Y-5.5118
X8.2431Y-5.5118
T2
X8.189Y-5.0984
X8.189Y-5.2165
T3
X3.7205Y-3.6614
X3.7205Y-4.4094
X3.7205Y-5.1575
X3.7205Y-5.9055
X4.1535Y-3.6614
X4.1535Y-4.4094
X4.1535Y-5.1575
X4.1535Y-5.9055
X4.5079Y-3.6614
X4.5079Y-4.4094
X4.5079Y-5.1575
X4.5079Y-5.9055
X4.9409Y-3.6614
X4.9409Y-4.4094
X4.9409Y-5.1575
X4.9409Y-5.9055
X5.2953Y-3.1102
X5.2953Y-3.8583
X5.2953Y-4.6063
X5.2953Y-5.3543
X5.7283Y-3.1102
X5.7283Y-3.8583
X5.7283Y-4.6063
X5.7283Y-5.3543
X6.0827Y-2.7953
X6.0827Y-3.5433
X6.0827Y-4.2913
X6.0827Y-5.0394
X6.5157Y-2.7953
X6.5157Y-3.5433
X6.5157Y-4.2913
X6.5157Y-5.0394
X6.8701Y-3.1102
X6.8701Y-3.8583
X6.8701Y-4.6063
X7.3031Y-3.1102
X7.3031Y-3.8583
X7.3031Y-4.6063
X7.4606Y-5.3543
X7.6575Y-3.1102
X7.6575Y-3.8583
X7.6575Y-4.6063
X7.8937Y-5.3543
X8.0906Y-3.1102
X8.0906Y-3.8583
X8.0906Y-4.6063
T4
X3.7402Y-3.8091
X3.7402Y-4.5571
X3.7402Y-5.3051
X3.7402Y-6.0531
X3.937Y-3.8957
X3.937Y-4.6437
X3.937Y-5.3917
X3.937Y-6.1398
X4.5276Y-3.8091
X4.5276Y-4.5571
X4.5276Y-5.3051
X4.5276Y-6.0531
X4.7244Y-3.8957
X4.7244Y-4.6437
X4.7244Y-5.3917
X4.7244Y-6.1398
X5.315Y-3.2579
X5.315Y-4.0059
X5.315Y-4.7539
X5.315Y-5.502
X5.5118Y-3.3445
X5.5118Y-4.0925
X5.5118Y-4.8406
X5.5118Y-5.5886
X6.1024Y-2.9429
X6.1024Y-3.6909
X6.1024Y-4.439
X6.1024Y-5.187
X6.2992Y-3.0295
X6.2992Y-3.7776
X6.2992Y-4.5256
X6.2992Y-5.2736
X6.8898Y-3.2579
X6.8898Y-4.0059
X6.8898Y-4.7539
X7.0866Y-3.3445
X7.0866Y-4.0925
X7.0866Y-4.8406
X7.4803Y-5.502
X7.6772Y-3.2579
X7.6772Y-4.0059
X7.6772Y-4.7539
X7.6772Y-5.5886
X7.874Y-3.3445
X7.874Y-4.0925
X7.874Y-4.8406
T5
X3.937Y-3.6614
X3.937Y-4.4094
X3.937Y-5.1575
X3.937Y-5.9055
X4.7244Y-3.6614
X4.7244Y-4.4094
X4.7244Y-5.1575
X4.7244Y-5.9055
X5.5118Y-3.1102
X5.5118Y-3.8583
X5.5118Y-4.6063
X5.5118Y-5.3543
X6.2992Y-2.7953
X6.2992Y-3.5433
X6.2992Y-4.2913
X6.2992Y-5.0394
X7.0866Y-3.1102
X7.0866Y-3.8583
X7.0866Y-4.6063
X7.6772Y-5.3543
X7.874Y-3.1102
X7.874Y-3.8583
X7.874Y-4.6063
T6
X4.3307Y-4.0748
X4.3307Y-5.5709
X5.9843Y-3.9764
X6.7717Y-3.5433
X7.3228Y-5.1575
M30
