0
SECTION
2
HEADER
9
$INSUNITS
70
4
0
ENDSEC
0
SECTION
2
TABLES
0
TABLE
2
LTYPE
0
LTYPE
72
65
70
64
2
CONTINUOUS
3
______
73
0
40
0
0
ENDTAB
0
TABLE
2
LAYER
0
ENDTAB
0
ENDSEC
0
SECTION
2
ENTITIES
0
LINE
8
0
10
89.75
20
-159.75
11
89.75
21
-83.25
0
LINE
8
0
10
89.75
20
-83.25
11
129.75
21
-83.25
0
LINE
8
0
10
129.75
20
-83.25
11
129.75
21
-69.25
0
LINE
8
0
10
129.75
20
-69.25
11
149.75
21
-69.25
0
LINE
8
0
10
149.75
20
-69.25
11
149.75
21
-61.25
0
LINE
8
0
10
149.75
20
-61.25
11
170.25
21
-61.25
0
LINE
8
0
10
170.25
20
-61.25
11
170.25
21
-69.25
0
LINE
8
0
10
170.25
20
-69.25
11
210.25
21
-69.25
0
LINE
8
0
10
210.25
20
-69.25
11
210.25
21
-145.75
0
LINE
8
0
10
130.25
20
-145.75
11
210.25
21
-145.75
0
LINE
8
0
10
130.25
20
-145.75
11
130.25
21
-159.75
0
LINE
8
0
10
130.25
20
-159.75
11
89.75
21
-159.75
0
LINE
8
0
10
91.75
20
-157.75
11
108.25
21
-157.75
0
LINE
8
0
10
108.25
20
-157.75
11
108.25
21
-142.25
0
LINE
8
0
10
108.25
20
-142.25
11
91.75
21
-142.25
0
LINE
8
0
10
91.75
20
-142.25
11
91.75
21
-157.75
0
LINE
8
0
10
91.75
20
-138.75
11
108.25
21
-138.75
0
LINE
8
0
10
108.25
20
-138.75
11
108.25
21
-123.25
0
LINE
8
0
10
108.25
20
-123.25
11
91.75
21
-123.25
0
LINE
8
0
10
91.75
20
-123.25
11
91.75
21
-138.75
0
LINE
8
0
10
91.75
20
-119.75
11
108.25
21
-119.75
0
LINE
8
0
10
108.25
20
-119.75
11
108.25
21
-104.25
0
LINE
8
0
10
108.25
20
-104.25
11
91.75
21
-104.25
0
LINE
8
0
10
91.75
20
-104.25
11
91.75
21
-119.75
0
LINE
8
0
10
91.75
20
-100.75
11
108.25
21
-100.75
0
LINE
8
0
10
108.25
20
-100.75
11
108.25
21
-85.25
0
LINE
8
0
10
108.25
20
-85.25
11
91.75
21
-85.25
0
LINE
8
0
10
91.75
20
-85.25
11
91.75
21
-100.75
0
LINE
8
0
10
111.75
20
-157.75
11
128.25
21
-157.75
0
LINE
8
0
10
128.25
20
-157.75
11
128.25
21
-142.25
0
LINE
8
0
10
128.25
20
-142.25
11
111.75
21
-142.25
0
LINE
8
0
10
111.75
20
-142.25
11
111.75
21
-157.75
0
LINE
8
0
10
111.75
20
-138.75
11
128.25
21
-138.75
0
LINE
8
0
10
128.25
20
-138.75
11
128.25
21
-123.25
0
LINE
8
0
10
128.25
20
-123.25
11
111.75
21
-123.25
0
LINE
8
0
10
111.75
20
-123.25
11
111.75
21
-138.75
0
LINE
8
0
10
111.75
20
-119.75
11
128.25
21
-119.75
0
LINE
8
0
10
128.25
20
-119.75
11
128.25
21
-104.25
0
LINE
8
0
10
128.25
20
-104.25
11
111.75
21
-104.25
0
LINE
8
0
10
111.75
20
-104.25
11
111.75
21
-119.75
0
LINE
8
0
10
111.75
20
-100.75
11
128.25
21
-100.75
0
LINE
8
0
10
128.25
20
-100.75
11
128.25
21
-85.25
0
LINE
8
0
10
128.25
20
-85.25
11
111.75
21
-85.25
0
LINE
8
0
10
111.75
20
-85.25
11
111.75
21
-100.75
0
LINE
8
0
10
131.75
20
-143.75
11
148.25
21
-143.75
0
LINE
8
0
10
148.25
20
-143.75
11
148.25
21
-128.25
0
LINE
8
0
10
148.25
20
-128.25
11
131.75
21
-128.25
0
LINE
8
0
10
131.75
20
-128.25
11
131.75
21
-143.75
0
LINE
8
0
10
131.75
20
-124.75
11
148.25
21
-124.75
0
LINE
8
0
10
148.25
20
-124.75
11
148.25
21
-109.25
0
LINE
8
0
10
148.25
20
-109.25
11
131.75
21
-109.25
0
LINE
8
0
10
131.75
20
-109.25
11
131.75
21
-124.75
0
LINE
8
0
10
131.75
20
-105.75
11
148.25
21
-105.75
0
LINE
8
0
10
148.25
20
-105.75
11
148.25
21
-90.25
0
LINE
8
0
10
148.25
20
-90.25
11
131.75
21
-90.25
0
LINE
8
0
10
131.75
20
-90.25
11
131.75
21
-105.75
0
LINE
8
0
10
131.75
20
-86.75
11
148.25
21
-86.75
0
LINE
8
0
10
148.25
20
-86.75
11
148.25
21
-71.25
0
LINE
8
0
10
148.25
20
-71.25
11
131.75
21
-71.25
0
LINE
8
0
10
131.75
20
-71.25
11
131.75
21
-86.75
0
LINE
8
0
10
151.75
20
-135.75
11
168.25
21
-135.75
0
LINE
8
0
10
168.25
20
-135.75
11
168.25
21
-120.25
0
LINE
8
0
10
168.25
20
-120.25
11
151.75
21
-120.25
0
LINE
8
0
10
151.75
20
-120.25
11
151.75
21
-135.75
0
LINE
8
0
10
151.75
20
-116.75
11
168.25
21
-116.75
0
LINE
8
0
10
168.25
20
-116.75
11
168.25
21
-101.25
0
LINE
8
0
10
168.25
20
-101.25
11
151.75
21
-101.25
0
LINE
8
0
10
151.75
20
-101.25
11
151.75
21
-116.75
0
LINE
8
0
10
151.75
20
-97.75
11
168.25
21
-97.75
0
LINE
8
0
10
168.25
20
-97.75
11
168.25
21
-82.25
0
LINE
8
0
10
168.25
20
-82.25
11
151.75
21
-82.25
0
LINE
8
0
10
151.75
20
-82.25
11
151.75
21
-97.75
0
LINE
8
0
10
151.75
20
-78.75
11
168.25
21
-78.75
0
LINE
8
0
10
168.25
20
-78.75
11
168.25
21
-63.25
0
LINE
8
0
10
168.25
20
-63.25
11
151.75
21
-63.25
0
LINE
8
0
10
151.75
20
-63.25
11
151.75
21
-78.75
0
LINE
8
0
10
171.75
20
-124.75
11
188.25
21
-124.75
0
LINE
8
0
10
188.25
20
-124.75
11
188.25
21
-109.25
0
LINE
8
0
10
188.25
20
-109.25
11
171.75
21
-109.25
0
LINE
8
0
10
171.75
20
-109.25
11
171.75
21
-124.75
0
LINE
8
0
10
171.75
20
-105.75
11
188.25
21
-105.75
0
LINE
8
0
10
188.25
20
-105.75
11
188.25
21
-90.25
0
LINE
8
0
10
188.25
20
-90.25
11
171.75
21
-90.25
0
LINE
8
0
10
171.75
20
-90.25
11
171.75
21
-105.75
0
LINE
8
0
10
171.75
20
-86.75
11
188.25
21
-86.75
0
LINE
8
0
10
188.25
20
-86.75
11
188.25
21
-71.25
0
LINE
8
0
10
188.25
20
-71.25
11
171.75
21
-71.25
0
LINE
8
0
10
171.75
20
-71.25
11
171.75
21
-86.75
0
LINE
8
0
10
191.75
20
-124.75
11
208.25
21
-124.75
0
LINE
8
0
10
208.25
20
-124.75
11
208.25
21
-109.25
0
LINE
8
0
10
208.25
20
-109.25
11
191.75
21
-109.25
0
LINE
8
0
10
191.75
20
-109.25
11
191.75
21
-124.75
0
LINE
8
0
10
191.75
20
-105.75
11
208.25
21
-105.75
0
LINE
8
0
10
208.25
20
-105.75
11
208.25
21
-90.25
0
LINE
8
0
10
208.25
20
-90.25
11
191.75
21
-90.25
0
LINE
8
0
10
191.75
20
-90.25
11
191.75
21
-105.75
0
LINE
8
0
10
191.75
20
-86.75
11
208.25
21
-86.75
0
LINE
8
0
10
208.25
20
-86.75
11
208.25
21
-71.25
0
LINE
8
0
10
208.25
20
-71.25
11
191.75
21
-71.25
0
LINE
8
0
10
191.75
20
-71.25
11
191.75
21
-86.75
0
LINE
8
0
10
186.75
20
-143.75
11
203.25
21
-143.75
0
LINE
8
0
10
203.25
20
-143.75
11
203.25
21
-128.25
0
LINE
8
0
10
203.25
20
-128.25
11
186.75
21
-128.25
0
LINE
8
0
10
186.75
20
-128.25
11
186.75
21
-143.75
0
ENDSEC
0
EOF