0
SECTION
2
HEADER
9
$INSUNITS
70
4
0
ENDSEC
0
SECTION
2
TABLES
0
TABLE
2
LTYPE
0
LTYPE
72
65
70
64
2
CONTINUOUS
3
______
73
0
40
0
0
ENDTAB
0
TABLE
2
LAYER
0
ENDTAB
0
ENDSEC
0
SECTION
2
ENTITIES
0
LINE
8
0
10
89.75
20
-159.75
11
89.75
21
-83.25
0
LINE
8
0
10
89.75
20
-83.25
11
129.75
21
-83.25
0
LINE
8
0
10
129.75
20
-83.25
11
129.75
21
-69.25
0
LINE
8
0
10
129.75
20
-69.25
11
149.75
21
-69.25
0
LINE
8
0
10
149.75
20
-69.25
11
149.75
21
-61.25
0
LINE
8
0
10
149.75
20
-61.25
11
170.25
21
-61.25
0
LINE
8
0
10
170.25
20
-61.25
11
170.25
21
-69.25
0
LINE
8
0
10
170.25
20
-69.25
11
210.25
21
-69.25
0
LINE
8
0
10
210.25
20
-69.25
11
210.25
21
-145.75
0
LINE
8
0
10
130.25
20
-145.75
11
210.25
21
-145.75
0
LINE
8
0
10
130.25
20
-145.75
11
130.25
21
-159.75
0
LINE
8
0
10
130.25
20
-159.75
11
89.75
21
-159.75
0
LINE
8
0
10
93
20
-157
11
107
21
-157
0
LINE
8
0
10
107
20
-157
11
107
21
-143
0
LINE
8
0
10
107
20
-143
11
93
21
-143
0
LINE
8
0
10
93
20
-143
11
93
21
-157
0
LINE
8
0
10
93
20
-138
11
107
21
-138
0
LINE
8
0
10
107
20
-138
11
107
21
-124
0
LINE
8
0
10
107
20
-124
11
93
21
-124
0
LINE
8
0
10
93
20
-124
11
93
21
-138
0
LINE
8
0
10
93
20
-119
11
107
21
-119
0
LINE
8
0
10
107
20
-119
11
107
21
-105
0
LINE
8
0
10
107
20
-105
11
93
21
-105
0
LINE
8
0
10
93
20
-105
11
93
21
-119
0
LINE
8
0
10
93
20
-100
11
107
21
-100
0
LINE
8
0
10
107
20
-100
11
107
21
-86
0
LINE
8
0
10
107
20
-86
11
93
21
-86
0
LINE
8
0
10
93
20
-86
11
93
21
-100
0
LINE
8
0
10
113
20
-157
11
127
21
-157
0
LINE
8
0
10
127
20
-157
11
127
21
-143
0
LINE
8
0
10
127
20
-143
11
113
21
-143
0
LINE
8
0
10
113
20
-143
11
113
21
-157
0
LINE
8
0
10
113
20
-138
11
127
21
-138
0
LINE
8
0
10
127
20
-138
11
127
21
-124
0
LINE
8
0
10
127
20
-124
11
113
21
-124
0
LINE
8
0
10
113
20
-124
11
113
21
-138
0
LINE
8
0
10
113
20
-119
11
127
21
-119
0
LINE
8
0
10
127
20
-119
11
127
21
-105
0
LINE
8
0
10
127
20
-105
11
113
21
-105
0
LINE
8
0
10
113
20
-105
11
113
21
-119
0
LINE
8
0
10
113
20
-100
11
127
21
-100
0
LINE
8
0
10
127
20
-100
11
127
21
-86
0
LINE
8
0
10
127
20
-86
11
113
21
-86
0
LINE
8
0
10
113
20
-86
11
113
21
-100
0
LINE
8
0
10
133
20
-143
11
147
21
-143
0
LINE
8
0
10
147
20
-143
11
147
21
-129
0
LINE
8
0
10
147
20
-129
11
133
21
-129
0
LINE
8
0
10
133
20
-129
11
133
21
-143
0
LINE
8
0
10
133
20
-124
11
147
21
-124
0
LINE
8
0
10
147
20
-124
11
147
21
-110
0
LINE
8
0
10
147
20
-110
11
133
21
-110
0
LINE
8
0
10
133
20
-110
11
133
21
-124
0
LINE
8
0
10
133
20
-105
11
147
21
-105
0
LINE
8
0
10
147
20
-105
11
147
21
-91
0
LINE
8
0
10
147
20
-91
11
133
21
-91
0
LINE
8
0
10
133
20
-91
11
133
21
-105
0
LINE
8
0
10
133
20
-86
11
147
21
-86
0
LINE
8
0
10
147
20
-86
11
147
21
-72
0
LINE
8
0
10
147
20
-72
11
133
21
-72
0
LINE
8
0
10
133
20
-72
11
133
21
-86
0
LINE
8
0
10
153
20
-135
11
167
21
-135
0
LINE
8
0
10
167
20
-135
11
167
21
-121
0
LINE
8
0
10
167
20
-121
11
153
21
-121
0
LINE
8
0
10
153
20
-121
11
153
21
-135
0
LINE
8
0
10
153
20
-116
11
167
21
-116
0
LINE
8
0
10
167
20
-116
11
167
21
-102
0
LINE
8
0
10
167
20
-102
11
153
21
-102
0
LINE
8
0
10
153
20
-102
11
153
21
-116
0
LINE
8
0
10
153
20
-97
11
167
21
-97
0
LINE
8
0
10
167
20
-97
11
167
21
-83
0
LINE
8
0
10
167
20
-83
11
153
21
-83
0
LINE
8
0
10
153
20
-83
11
153
21
-97
0
LINE
8
0
10
153
20
-78
11
167
21
-78
0
LINE
8
0
10
167
20
-78
11
167
21
-64
0
LINE
8
0
10
167
20
-64
11
153
21
-64
0
LINE
8
0
10
153
20
-64
11
153
21
-78
0
LINE
8
0
10
173
20
-124
11
187
21
-124
0
LINE
8
0
10
187
20
-124
11
187
21
-110
0
LINE
8
0
10
187
20
-110
11
173
21
-110
0
LINE
8
0
10
173
20
-110
11
173
21
-124
0
LINE
8
0
10
173
20
-105
11
187
21
-105
0
LINE
8
0
10
187
20
-105
11
187
21
-91
0
LINE
8
0
10
187
20
-91
11
173
21
-91
0
LINE
8
0
10
173
20
-91
11
173
21
-105
0
LINE
8
0
10
173
20
-86
11
187
21
-86
0
LINE
8
0
10
187
20
-86
11
187
21
-72
0
LINE
8
0
10
187
20
-72
11
173
21
-72
0
LINE
8
0
10
173
20
-72
11
173
21
-86
0
LINE
8
0
10
193
20
-124
11
207
21
-124
0
LINE
8
0
10
207
20
-124
11
207
21
-110
0
LINE
8
0
10
207
20
-110
11
193
21
-110
0
LINE
8
0
10
193
20
-110
11
193
21
-124
0
LINE
8
0
10
193
20
-105
11
207
21
-105
0
LINE
8
0
10
207
20
-105
11
207
21
-91
0
LINE
8
0
10
207
20
-91
11
193
21
-91
0
LINE
8
0
10
193
20
-91
11
193
21
-105
0
LINE
8
0
10
193
20
-86
11
207
21
-86
0
LINE
8
0
10
207
20
-86
11
207
21
-72
0
LINE
8
0
10
207
20
-72
11
193
21
-72
0
LINE
8
0
10
193
20
-72
11
193
21
-86
0
LINE
8
0
10
188
20
-143
11
202
21
-143
0
LINE
8
0
10
202
20
-143
11
202
21
-129
0
LINE
8
0
10
202
20
-129
11
188
21
-129
0
LINE
8
0
10
188
20
-129
11
188
21
-143
0
ENDSEC
0
EOF