0
SECTION
2
HEADER
9
$INSUNITS
70
4
0
ENDSEC
0
SECTION
2
TABLES
0
TABLE
2
LTYPE
0
LTYPE
72
65
70
64
2
CONTINUOUS
3
______
73
0
40
0
0
ENDTAB
0
TABLE
2
LAYER
0
ENDTAB
0
ENDSEC
0
SECTION
2
ENTITIES
0
LINE
8
0
10
89.75
20
-159.75
11
89.75
21
-64.25
0
LINE
8
0
10
89.75
20
-64.25
11
170.25
21
-64.25
0
LINE
8
0
10
170.25
20
-64.25
11
170.25
21
-159.75
0
LINE
8
0
10
170.25
20
-159.75
11
89.75
21
-159.75
0
LINE
8
0
10
93
20
-157
11
107
21
-157
0
LINE
8
0
10
107
20
-157
11
107
21
-143
0
LINE
8
0
10
107
20
-143
11
93
21
-143
0
LINE
8
0
10
93
20
-143
11
93
21
-157
0
LINE
8
0
10
93
20
-138
11
107
21
-138
0
LINE
8
0
10
107
20
-138
11
107
21
-124
0
LINE
8
0
10
107
20
-124
11
93
21
-124
0
LINE
8
0
10
93
20
-124
11
93
21
-138
0
LINE
8
0
10
93
20
-119
11
107
21
-119
0
LINE
8
0
10
107
20
-119
11
107
21
-105
0
LINE
8
0
10
107
20
-105
11
93
21
-105
0
LINE
8
0
10
93
20
-105
11
93
21
-119
0
LINE
8
0
10
93
20
-100
11
107
21
-100
0
LINE
8
0
10
107
20
-100
11
107
21
-86
0
LINE
8
0
10
107
20
-86
11
93
21
-86
0
LINE
8
0
10
93
20
-86
11
93
21
-100
0
LINE
8
0
10
93
20
-81
11
107
21
-81
0
LINE
8
0
10
107
20
-81
11
107
21
-67
0
LINE
8
0
10
107
20
-67
11
93
21
-67
0
LINE
8
0
10
93
20
-67
11
93
21
-81
0
LINE
8
0
10
113
20
-157
11
127
21
-157
0
LINE
8
0
10
127
20
-157
11
127
21
-143
0
LINE
8
0
10
127
20
-143
11
113
21
-143
0
LINE
8
0
10
113
20
-143
11
113
21
-157
0
LINE
8
0
10
113
20
-138
11
127
21
-138
0
LINE
8
0
10
127
20
-138
11
127
21
-124
0
LINE
8
0
10
127
20
-124
11
113
21
-124
0
LINE
8
0
10
113
20
-124
11
113
21
-138
0
LINE
8
0
10
113
20
-119
11
127
21
-119
0
LINE
8
0
10
127
20
-119
11
127
21
-105
0
LINE
8
0
10
127
20
-105
11
113
21
-105
0
LINE
8
0
10
113
20
-105
11
113
21
-119
0
LINE
8
0
10
113
20
-100
11
127
21
-100
0
LINE
8
0
10
127
20
-100
11
127
21
-86
0
LINE
8
0
10
127
20
-86
11
113
21
-86
0
LINE
8
0
10
113
20
-86
11
113
21
-100
0
LINE
8
0
10
113
20
-81
11
127
21
-81
0
LINE
8
0
10
127
20
-81
11
127
21
-67
0
LINE
8
0
10
127
20
-67
11
113
21
-67
0
LINE
8
0
10
113
20
-67
11
113
21
-81
0
LINE
8
0
10
133
20
-157
11
147
21
-157
0
LINE
8
0
10
147
20
-157
11
147
21
-143
0
LINE
8
0
10
147
20
-143
11
133
21
-143
0
LINE
8
0
10
133
20
-143
11
133
21
-157
0
LINE
8
0
10
133
20
-138
11
147
21
-138
0
LINE
8
0
10
147
20
-138
11
147
21
-124
0
LINE
8
0
10
147
20
-124
11
133
21
-124
0
LINE
8
0
10
133
20
-124
11
133
21
-138
0
LINE
8
0
10
133
20
-119
11
147
21
-119
0
LINE
8
0
10
147
20
-119
11
147
21
-105
0
LINE
8
0
10
147
20
-105
11
133
21
-105
0
LINE
8
0
10
133
20
-105
11
133
21
-119
0
LINE
8
0
10
133
20
-100
11
147
21
-100
0
LINE
8
0
10
147
20
-100
11
147
21
-86
0
LINE
8
0
10
147
20
-86
11
133
21
-86
0
LINE
8
0
10
133
20
-86
11
133
21
-100
0
LINE
8
0
10
133
20
-81
11
147
21
-81
0
LINE
8
0
10
147
20
-81
11
147
21
-67
0
LINE
8
0
10
147
20
-67
11
133
21
-67
0
LINE
8
0
10
133
20
-67
11
133
21
-81
0
LINE
8
0
10
153
20
-157
11
167
21
-157
0
LINE
8
0
10
167
20
-157
11
167
21
-143
0
LINE
8
0
10
167
20
-143
11
153
21
-143
0
LINE
8
0
10
153
20
-143
11
153
21
-157
0
LINE
8
0
10
153
20
-138
11
167
21
-138
0
LINE
8
0
10
167
20
-138
11
167
21
-124
0
LINE
8
0
10
167
20
-124
11
153
21
-124
0
LINE
8
0
10
153
20
-124
11
153
21
-138
0
LINE
8
0
10
153
20
-119
11
167
21
-119
0
LINE
8
0
10
167
20
-119
11
167
21
-105
0
LINE
8
0
10
167
20
-105
11
153
21
-105
0
LINE
8
0
10
153
20
-105
11
153
21
-119
0
LINE
8
0
10
153
20
-100
11
167
21
-100
0
LINE
8
0
10
167
20
-100
11
167
21
-86
0
LINE
8
0
10
167
20
-86
11
153
21
-86
0
LINE
8
0
10
153
20
-86
11
153
21
-100
0
LINE
8
0
10
153
20
-81
11
167
21
-81
0
LINE
8
0
10
167
20
-81
11
167
21
-67
0
LINE
8
0
10
167
20
-67
11
153
21
-67
0
LINE
8
0
10
153
20
-67
11
153
21
-81
0
ENDSEC
0
EOF