0
SECTION
2
HEADER
9
$INSUNITS
70
4
0
ENDSEC
0
SECTION
2
TABLES
0
TABLE
2
LTYPE
0
LTYPE
72
65
70
64
2
CONTINUOUS
3
______
73
0
40
0
0
ENDTAB
0
TABLE
2
LAYER
0
ENDTAB
0
ENDSEC
0
SECTION
2
ENTITIES
0
LINE
8
0
10
91.75
20
-157.75
11
108.25
21
-157.75
0
LINE
8
0
10
108.25
20
-157.75
11
108.25
21
-142.25
0
LINE
8
0
10
108.25
20
-142.25
11
91.75
21
-142.25
0
LINE
8
0
10
91.75
20
-142.25
11
91.75
21
-157.75
0
LINE
8
0
10
91.75
20
-138.75
11
108.25
21
-138.75
0
LINE
8
0
10
108.25
20
-138.75
11
108.25
21
-123.25
0
LINE
8
0
10
108.25
20
-123.25
11
91.75
21
-123.25
0
LINE
8
0
10
91.75
20
-123.25
11
91.75
21
-138.75
0
LINE
8
0
10
91.75
20
-119.75
11
108.25
21
-119.75
0
LINE
8
0
10
108.25
20
-119.75
11
108.25
21
-104.25
0
LINE
8
0
10
108.25
20
-104.25
11
91.75
21
-104.25
0
LINE
8
0
10
91.75
20
-104.25
11
91.75
21
-119.75
0
LINE
8
0
10
91.75
20
-100.75
11
108.25
21
-100.75
0
LINE
8
0
10
108.25
20
-100.75
11
108.25
21
-85.25
0
LINE
8
0
10
108.25
20
-85.25
11
91.75
21
-85.25
0
LINE
8
0
10
91.75
20
-85.25
11
91.75
21
-100.75
0
LINE
8
0
10
91.75
20
-81.75
11
108.25
21
-81.75
0
LINE
8
0
10
108.25
20
-81.75
11
108.25
21
-66.25
0
LINE
8
0
10
108.25
20
-66.25
11
91.75
21
-66.25
0
LINE
8
0
10
91.75
20
-66.25
11
91.75
21
-81.75
0
LINE
8
0
10
111.75
20
-157.75
11
128.25
21
-157.75
0
LINE
8
0
10
128.25
20
-157.75
11
128.25
21
-142.25
0
LINE
8
0
10
128.25
20
-142.25
11
111.75
21
-142.25
0
LINE
8
0
10
111.75
20
-142.25
11
111.75
21
-157.75
0
LINE
8
0
10
111.75
20
-138.75
11
128.25
21
-138.75
0
LINE
8
0
10
128.25
20
-138.75
11
128.25
21
-123.25
0
LINE
8
0
10
128.25
20
-123.25
11
111.75
21
-123.25
0
LINE
8
0
10
111.75
20
-123.25
11
111.75
21
-138.75
0
LINE
8
0
10
111.75
20
-119.75
11
128.25
21
-119.75
0
LINE
8
0
10
128.25
20
-119.75
11
128.25
21
-104.25
0
LINE
8
0
10
128.25
20
-104.25
11
111.75
21
-104.25
0
LINE
8
0
10
111.75
20
-104.25
11
111.75
21
-119.75
0
LINE
8
0
10
111.75
20
-100.75
11
128.25
21
-100.75
0
LINE
8
0
10
128.25
20
-100.75
11
128.25
21
-85.25
0
LINE
8
0
10
128.25
20
-85.25
11
111.75
21
-85.25
0
LINE
8
0
10
111.75
20
-85.25
11
111.75
21
-100.75
0
LINE
8
0
10
111.75
20
-81.75
11
128.25
21
-81.75
0
LINE
8
0
10
128.25
20
-81.75
11
128.25
21
-66.25
0
LINE
8
0
10
128.25
20
-66.25
11
111.75
21
-66.25
0
LINE
8
0
10
111.75
20
-66.25
11
111.75
21
-81.75
0
LINE
8
0
10
131.75
20
-157.75
11
148.25
21
-157.75
0
LINE
8
0
10
148.25
20
-157.75
11
148.25
21
-142.25
0
LINE
8
0
10
148.25
20
-142.25
11
131.75
21
-142.25
0
LINE
8
0
10
131.75
20
-142.25
11
131.75
21
-157.75
0
LINE
8
0
10
131.75
20
-138.75
11
148.25
21
-138.75
0
LINE
8
0
10
148.25
20
-138.75
11
148.25
21
-123.25
0
LINE
8
0
10
148.25
20
-123.25
11
131.75
21
-123.25
0
LINE
8
0
10
131.75
20
-123.25
11
131.75
21
-138.75
0
LINE
8
0
10
131.75
20
-119.75
11
148.25
21
-119.75
0
LINE
8
0
10
148.25
20
-119.75
11
148.25
21
-104.25
0
LINE
8
0
10
148.25
20
-104.25
11
131.75
21
-104.25
0
LINE
8
0
10
131.75
20
-104.25
11
131.75
21
-119.75
0
LINE
8
0
10
131.75
20
-100.75
11
148.25
21
-100.75
0
LINE
8
0
10
148.25
20
-100.75
11
148.25
21
-85.25
0
LINE
8
0
10
148.25
20
-85.25
11
131.75
21
-85.25
0
LINE
8
0
10
131.75
20
-85.25
11
131.75
21
-100.75
0
LINE
8
0
10
131.75
20
-81.75
11
148.25
21
-81.75
0
LINE
8
0
10
148.25
20
-81.75
11
148.25
21
-66.25
0
LINE
8
0
10
148.25
20
-66.25
11
131.75
21
-66.25
0
LINE
8
0
10
131.75
20
-66.25
11
131.75
21
-81.75
0
LINE
8
0
10
151.75
20
-157.75
11
168.25
21
-157.75
0
LINE
8
0
10
168.25
20
-157.75
11
168.25
21
-142.25
0
LINE
8
0
10
168.25
20
-142.25
11
151.75
21
-142.25
0
LINE
8
0
10
151.75
20
-142.25
11
151.75
21
-157.75
0
LINE
8
0
10
151.75
20
-138.75
11
168.25
21
-138.75
0
LINE
8
0
10
168.25
20
-138.75
11
168.25
21
-123.25
0
LINE
8
0
10
168.25
20
-123.25
11
151.75
21
-123.25
0
LINE
8
0
10
151.75
20
-123.25
11
151.75
21
-138.75
0
LINE
8
0
10
151.75
20
-119.75
11
168.25
21
-119.75
0
LINE
8
0
10
168.25
20
-119.75
11
168.25
21
-104.25
0
LINE
8
0
10
168.25
20
-104.25
11
151.75
21
-104.25
0
LINE
8
0
10
151.75
20
-104.25
11
151.75
21
-119.75
0
LINE
8
0
10
151.75
20
-100.75
11
168.25
21
-100.75
0
LINE
8
0
10
168.25
20
-100.75
11
168.25
21
-85.25
0
LINE
8
0
10
168.25
20
-85.25
11
151.75
21
-85.25
0
LINE
8
0
10
151.75
20
-85.25
11
151.75
21
-100.75
0
LINE
8
0
10
151.75
20
-81.75
11
168.25
21
-81.75
0
LINE
8
0
10
168.25
20
-81.75
11
168.25
21
-66.25
0
LINE
8
0
10
168.25
20
-66.25
11
151.75
21
-66.25
0
LINE
8
0
10
151.75
20
-66.25
11
151.75
21
-81.75
0
ENDSEC
0
EOF